<?xml version="1.0" encoding="UTF-8" standalone="no"?>
<!-- Created with Inkscape (http://www.inkscape.org/) -->

<svg
   xmlns:osb="http://www.openswatchbook.org/uri/2009/osb"
   xmlns:dc="http://purl.org/dc/elements/1.1/"
   xmlns:cc="http://creativecommons.org/ns#"
   xmlns:rdf="http://www.w3.org/1999/02/22-rdf-syntax-ns#"
   xmlns:svg="http://www.w3.org/2000/svg"
   xmlns="http://www.w3.org/2000/svg"
   xmlns:sodipodi="http://sodipodi.sourceforge.net/DTD/sodipodi-0.dtd"
   xmlns:inkscape="http://www.inkscape.org/namespaces/inkscape"
   width="210mm"
   height="297mm"
   viewBox="0 0 210 297"
   version="1.1"
   id="svg980"
   inkscape:version="0.92.5 (2060ec1f9f, 2020-04-08)"
   sodipodi:docname="neuroscheme.svg"
   inkscape:export-filename="/home/felix/Desarrollo/Code/SGA3Documentation/SimVisSuiteDevelopers/source/images/neuroscheme_deps.png"
   inkscape:export-xdpi="96"
   inkscape:export-ydpi="96">
  <defs
     id="defs974">
    <linearGradient
       id="linearGradient3109"
       osb:paint="solid">
      <stop
         style="stop-color:#000000;stop-opacity:1;"
         offset="0"
         id="stop3107" />
    </linearGradient>
  </defs>
  <sodipodi:namedview
     id="base"
     pagecolor="#ffffff"
     bordercolor="#666666"
     borderopacity="1.0"
     inkscape:pageopacity="0.0"
     inkscape:pageshadow="2"
     inkscape:zoom="1.4"
     inkscape:cx="317.29573"
     inkscape:cy="627.24438"
     inkscape:document-units="mm"
     inkscape:current-layer="layer1"
     showgrid="false"
     inkscape:window-width="1848"
     inkscape:window-height="1043"
     inkscape:window-x="72"
     inkscape:window-y="0"
     inkscape:window-maximized="1" />
  <metadata
     id="metadata977">
    <rdf:RDF>
      <cc:Work
         rdf:about="">
        <dc:format>image/svg+xml</dc:format>
        <dc:type
           rdf:resource="http://purl.org/dc/dcmitype/StillImage" />
        <dc:title />
      </cc:Work>
    </rdf:RDF>
  </metadata>
  <g
     inkscape:label="Layer 1"
     inkscape:groupmode="layer"
     id="layer1">
    <path
       style="fill:#4bacc6;fill-rule:evenodd;stroke:#000000;stroke-width:0.80949974;stroke-miterlimit:4;stroke-dasharray:none;stroke-opacity:1"
       inkscape:connector-curvature="0"
       id="path35"
       d="M 16.13309,78.150526 H 203.5329 V 110.93092 H 16.13309 Z" />
    <g
       id="g3158" />
    <g
       id="g3338"
       transform="translate(-52.745986,-16.14677)">
      <path
         d="m 89.968149,144.225 h 30.063701 v 8.55 H 89.968149 Z"
         id="path113"
         inkscape:connector-curvature="0"
         style="fill:#eed591;fill-opacity:1;fill-rule:evenodd;stroke-width:0.17508449" />
      <text
         id="text3171"
         y="150.44717"
         x="93.223976"
         style="font-style:normal;font-variant:normal;font-weight:normal;font-stretch:normal;font-size:6.3499999px;line-height:1.25;font-family:sans-serif;-inkscape-font-specification:'sans-serif, Normal';font-variant-ligatures:normal;font-variant-caps:normal;font-variant-numeric:normal;font-feature-settings:normal;text-align:start;letter-spacing:0px;word-spacing:0px;writing-mode:lr-tb;text-anchor:start;fill:#000000;fill-opacity:1;stroke:none;stroke-width:0.26458332"
         xml:space="preserve"><tspan
           style="font-style:normal;font-variant:normal;font-weight:normal;font-stretch:normal;font-size:6.3499999px;font-family:sans-serif;-inkscape-font-specification:'sans-serif, Normal';font-variant-ligatures:normal;font-variant-caps:normal;font-variant-numeric:normal;font-feature-settings:normal;text-align:start;writing-mode:lr-tb;text-anchor:start;stroke-width:0.26458332"
           y="150.44717"
           x="93.223976"
           id="tspan3169"
           sodipodi:role="line">ZeroEQ</tspan></text>
    </g>
    <g
       id="g3253"
       transform="translate(-6.997467,-33.24678)">
      <path
         d="m 94.433334,144.225 h 21.133336 v 8.55 H 94.433334 Z"
         id="path29"
         inkscape:connector-curvature="0"
         style="fill:#8064a2;fill-rule:evenodd;stroke-width:0.26458332" />
      <path
         d="m 100.73979,149.50652 q 0,0.28112 -0.10335,0.50023 -0.10335,0.21911 -0.28939,0.3762 -0.1819,0.15296 -0.434079,0.23151 -0.248047,0.0744 -0.537435,0.0744 -0.198437,0 -0.37207,-0.0331 -0.173633,-0.0331 -0.31006,-0.0827 -0.132292,-0.0496 -0.223242,-0.10335 -0.09095,-0.0537 -0.128157,-0.0909 -0.03307,-0.0372 -0.05374,-0.0951 -0.01654,-0.0579 -0.01654,-0.15297 0,-0.0661 0.0041,-0.11162 0.0083,-0.0455 0.02066,-0.0744 0.01241,-0.0289 0.02894,-0.0372 0.02066,-0.0124 0.04547,-0.0124 0.04548,0 0.124023,0.0537 0.07855,0.0538 0.202573,0.11576 0.124024,0.062 0.297657,0.11575 0.177765,0.0538 0.405143,0.0538 0.173633,0 0.318325,-0.0455 0.144696,-0.0496 0.248047,-0.13229 0.103355,-0.0868 0.157095,-0.21084 0.0579,-0.12402 0.0579,-0.28112 0,-0.1695 -0.0786,-0.28939 -0.0744,-0.12402 -0.202571,-0.21497 -0.128156,-0.0909 -0.289388,-0.16537 -0.161229,-0.0786 -0.334862,-0.15709 -0.1695,-0.0786 -0.330729,-0.17363 -0.161232,-0.0992 -0.289388,-0.22738 -0.124024,-0.13229 -0.206706,-0.30593 -0.07855,-0.17363 -0.07855,-0.42168 0,-0.24804 0.09095,-0.44648 0.09509,-0.19844 0.256316,-0.33073 0.161231,-0.13229 0.384474,-0.20257 0.227375,-0.0703 0.487825,-0.0703 0.132292,0 0.268716,0.0248 0.136427,0.0207 0.252183,0.062 0.11989,0.0372 0.21084,0.0868 0.0951,0.0455 0.12402,0.0786 0.0331,0.0289 0.0413,0.0455 0.008,0.0165 0.0124,0.0455 0.008,0.0248 0.0124,0.062 0.004,0.0372 0.004,0.0951 0,0.0537 -0.008,0.0992 -0.004,0.0413 -0.0124,0.0744 -0.008,0.0289 -0.0248,0.0413 -0.0165,0.0124 -0.0413,0.0124 -0.0331,0 -0.10749,-0.0413 -0.0703,-0.0455 -0.17776,-0.0992 -0.10336,-0.0537 -0.248048,-0.0992 -0.144695,-0.0455 -0.322461,-0.0455 -0.1695,0 -0.293523,0.0455 -0.124024,0.0455 -0.206706,0.11989 -0.07855,0.0744 -0.119888,0.17776 -0.03721,0.10336 -0.03721,0.21498 0,0.1695 0.07441,0.28939 0.07855,0.11989 0.206705,0.21497 0.128159,0.0909 0.293524,0.1695 0.165364,0.0785 0.334862,0.1571 0.1695,0.0785 0.334865,0.17363 0.16536,0.0951 0.29352,0.22324 0.12816,0.12816 0.20671,0.30593 0.0785,0.17363 0.0785,0.41341 z m 3.10782,1.04593 q 0,0.0248 -0.0124,0.0413 -0.0124,0.0165 -0.0413,0.0331 -0.0248,0.0124 -0.0744,0.0165 -0.0496,0.008 -0.12402,0.008 -0.0785,0 -0.12816,-0.008 -0.0496,-0.004 -0.0785,-0.0165 -0.0289,-0.0165 -0.0413,-0.0331 -0.0124,-0.0165 -0.0124,-0.0413 v -1.63297 q 0,-0.23978 -0.0372,-0.38448 -0.0372,-0.14469 -0.10749,-0.24804 -0.0703,-0.10749 -0.18603,-0.16123 -0.11162,-0.0579 -0.26045,-0.0579 -0.19017,0 -0.38448,0.13642 -0.19016,0.13643 -0.401,0.39688 v 1.9513 q 0,0.0248 -0.0124,0.0413 -0.0124,0.0165 -0.0413,0.0331 -0.0289,0.0124 -0.0786,0.0165 -0.0496,0.008 -0.12816,0.008 -0.0744,0 -0.12403,-0.008 -0.0496,-0.004 -0.0785,-0.0165 -0.0289,-0.0165 -0.0413,-0.0331 -0.008,-0.0165 -0.008,-0.0413 v -4.14238 q 0,-0.0248 0.008,-0.0413 0.0124,-0.0207 0.0413,-0.0331 0.0289,-0.0124 0.0785,-0.0165 0.0496,-0.008 0.12403,-0.008 0.0785,0 0.12816,0.008 0.0496,0.004 0.0786,0.0165 0.0289,0.0124 0.0413,0.0331 0.0124,0.0165 0.0124,0.0413 v 1.67018 q 0.2191,-0.23151 0.44235,-0.34313 0.22324,-0.11576 0.45062,-0.11576 0.27698,0 0.46715,0.0951 0.19017,0.0951 0.30592,0.25631 0.11989,0.1571 0.1695,0.36794 0.0537,0.21084 0.0537,0.51263 z m 1.44694,0 q 0,0.0248 -0.0124,0.0413 -0.0124,0.0165 -0.0413,0.0331 -0.0289,0.0124 -0.0785,0.0165 -0.0496,0.008 -0.12815,0.008 -0.0744,0 -0.12403,-0.008 -0.0496,-0.004 -0.0786,-0.0165 -0.0289,-0.0165 -0.0413,-0.0331 -0.008,-0.0165 -0.008,-0.0413 v -2.79053 q 0,-0.0207 0.008,-0.0372 0.0124,-0.0207 0.0413,-0.0331 0.0289,-0.0124 0.0786,-0.0165 0.0496,-0.008 0.12403,-0.008 0.0786,0 0.12815,0.008 0.0496,0.004 0.0785,0.0165 0.0289,0.0124 0.0413,0.0331 0.0124,0.0165 0.0124,0.0372 z m 0.0579,-3.7331 q 0,0.1819 -0.0703,0.24804 -0.0662,0.062 -0.24804,0.062 -0.1819,0 -0.24805,-0.062 -0.0662,-0.0661 -0.0662,-0.23978 0,-0.1819 0.0662,-0.24391 0.0703,-0.0661 0.25218,-0.0661 0.1819,0 0.24805,0.062 0.0662,0.062 0.0662,0.23978 z m 3.05305,0.0289 q 0,0.0579 -0.008,0.10336 -0.004,0.0413 -0.0207,0.0703 -0.0124,0.0248 -0.0331,0.0372 -0.0207,0.0124 -0.0413,0.0124 h -1.47175 v 1.36426 h 1.38907 q 0.0207,0 0.0413,0.0124 0.0207,0.008 0.0372,0.0331 0.0165,0.0248 0.0207,0.0661 0.008,0.0413 0.008,0.10749 0,0.0579 -0.008,0.10335 -0.004,0.0413 -0.0207,0.0661 -0.0165,0.0248 -0.0372,0.0413 -0.0207,0.0124 -0.0413,0.0124 h -1.38907 v 1.67019 q 0,0.0248 -0.0124,0.0455 -0.0124,0.0165 -0.0455,0.0289 -0.0289,0.0124 -0.0785,0.0207 -0.0496,0.008 -0.12816,0.008 -0.0744,0 -0.12815,-0.008 -0.0537,-0.008 -0.0868,-0.0207 -0.0289,-0.0124 -0.0413,-0.0289 -0.0124,-0.0207 -0.0124,-0.0455 v -3.71244 q 0,-0.11989 0.062,-0.1695 0.0662,-0.0496 0.13643,-0.0496 h 1.8066 q 0.0207,0 0.0413,0.0124 0.0207,0.0124 0.0331,0.0413 0.0165,0.0289 0.0207,0.0744 0.008,0.0455 0.008,0.10335 z m 3.32279,0 q 0,0.0579 -0.008,0.10336 -0.004,0.0413 -0.0165,0.0703 -0.0124,0.0248 -0.0331,0.0372 -0.0207,0.0124 -0.0455,0.0124 h -1.12861 v 3.4768 q 0,0.0248 -0.0124,0.0455 -0.0124,0.0165 -0.0455,0.0289 -0.0289,0.0124 -0.0827,0.0207 -0.0496,0.008 -0.12816,0.008 -0.0744,0 -0.12816,-0.008 -0.0496,-0.008 -0.0827,-0.0207 -0.0289,-0.0124 -0.0413,-0.0289 -0.0124,-0.0207 -0.0124,-0.0455 v -3.4768 h -1.12861 q -0.0248,0 -0.0455,-0.0124 -0.0207,-0.0124 -0.0331,-0.0372 -0.0124,-0.0289 -0.0207,-0.0703 -0.008,-0.0455 -0.008,-0.10336 0,-0.0579 0.008,-0.10335 0.008,-0.0455 0.0207,-0.0744 0.0124,-0.0289 0.0331,-0.0413 0.0207,-0.0124 0.0455,-0.0124 h 2.79053 q 0.0248,0 0.0455,0.0124 0.0207,0.0124 0.0331,0.0413 0.0124,0.0289 0.0165,0.0744 0.008,0.0455 0.008,0.10335 z"
         id="path33"
         inkscape:connector-curvature="0"
         style="fill:#ffffff;fill-rule:nonzero;stroke-width:0.26458332" />
    </g>
    <g
       id="g3257"
       transform="translate(-6.997467,-24.89678)">
      <path
         d="m 94.433334,144.425 h 21.133336 v 8.15 H 94.433334 Z"
         id="path107"
         inkscape:connector-curvature="0"
         style="fill:#00cccc;fill-rule:evenodd;stroke-width:0.26458332" />
      <path
         d="m 100.59616,146.74505 q 0,0.0579 -0.008,0.10335 -0.004,0.0413 -0.0207,0.0703 -0.0124,0.0248 -0.0331,0.0372 -0.0207,0.0124 -0.0413,0.0124 h -1.471749 v 1.36426 h 1.389059 q 0.0207,0 0.0413,0.0124 0.0207,0.008 0.0372,0.0331 0.0165,0.0248 0.0207,0.0661 0.008,0.0413 0.008,0.10749 0,0.0579 -0.008,0.10335 -0.004,0.0413 -0.0207,0.0661 -0.0165,0.0248 -0.0372,0.0413 -0.0207,0.0124 -0.0413,0.0124 h -1.389059 v 1.67018 q 0,0.0248 -0.01241,0.0455 -0.01241,0.0165 -0.04548,0.0289 -0.02894,0.0124 -0.07855,0.0207 -0.04961,0.008 -0.128159,0.008 -0.07441,0 -0.128156,-0.008 -0.05374,-0.008 -0.08682,-0.0207 -0.02894,-0.0124 -0.04134,-0.0289 -0.01241,-0.0207 -0.01241,-0.0455 v -3.71243 q 0,-0.11989 0.06201,-0.1695 0.06615,-0.0496 0.136428,-0.0496 h 1.806606 q 0.0207,0 0.0413,0.0124 0.0207,0.0124 0.0331,0.0413 0.0165,0.0289 0.0207,0.0744 0.008,0.0455 0.008,0.10336 z m 1.264,3.70417 q 0,0.0248 -0.0124,0.0413 -0.0124,0.0165 -0.0413,0.0331 -0.0289,0.0124 -0.0785,0.0165 -0.0496,0.008 -0.12816,0.008 -0.0744,0 -0.12402,-0.008 -0.0496,-0.004 -0.0785,-0.0165 -0.0289,-0.0165 -0.0413,-0.0331 -0.008,-0.0165 -0.008,-0.0413 v -2.79053 q 0,-0.0207 0.008,-0.0372 0.0124,-0.0207 0.0413,-0.0331 0.0289,-0.0124 0.0785,-0.0165 0.0496,-0.008 0.12402,-0.008 0.0786,0 0.12816,0.008 0.0496,0.004 0.0785,0.0165 0.0289,0.0124 0.0413,0.0331 0.0124,0.0165 0.0124,0.0372 z m 0.0579,-3.73311 q 0,0.1819 -0.0703,0.24805 -0.0661,0.062 -0.24805,0.062 -0.1819,0 -0.24804,-0.062 -0.0661,-0.0661 -0.0661,-0.23978 0,-0.1819 0.0661,-0.24391 0.0703,-0.0661 0.25218,-0.0661 0.1819,0 0.24804,0.062 0.0661,0.062 0.0661,0.23977 z m 3.61942,3.72897 q 0,0.0248 -0.008,0.0455 -0.008,0.0165 -0.0413,0.0331 -0.0289,0.0124 -0.0868,0.0165 -0.0537,0.008 -0.14883,0.008 -0.0786,0 -0.13229,-0.008 -0.0496,-0.004 -0.0827,-0.0165 -0.0289,-0.0165 -0.0455,-0.0413 -0.0165,-0.0248 -0.0289,-0.062 l -0.36794,-0.94671 q -0.0661,-0.16123 -0.13642,-0.29352 -0.0703,-0.13643 -0.16537,-0.23565 -0.0951,-0.0992 -0.22738,-0.15296 -0.12815,-0.0537 -0.31419,-0.0537 h -0.35553 v 1.70739 q 0,0.0248 -0.0165,0.0455 -0.0124,0.0165 -0.0413,0.0289 -0.0289,0.0124 -0.0827,0.0207 -0.0496,0.008 -0.12403,0.008 -0.0786,0 -0.13229,-0.008 -0.0496,-0.008 -0.0827,-0.0207 -0.0289,-0.0124 -0.0413,-0.0289 -0.0124,-0.0207 -0.0124,-0.0455 v -3.71244 q 0,-0.11989 0.062,-0.1695 0.0661,-0.0496 0.13643,-0.0496 h 0.85163 q 0.15296,0 0.25218,0.008 0.10335,0.008 0.1819,0.0165 0.23564,0.0413 0.41341,0.12816 0.17777,0.0868 0.29766,0.22324 0.11989,0.1323 0.1819,0.30593 0.062,0.1695 0.062,0.3762 0,0.20257 -0.0579,0.36381 -0.0537,0.15709 -0.1571,0.28112 -0.0992,0.11988 -0.24391,0.21083 -0.14056,0.0909 -0.31833,0.15297 0.0992,0.0413 0.17777,0.11162 0.0827,0.0661 0.15296,0.16123 0.0703,0.0909 0.13229,0.21084 0.062,0.11989 0.12402,0.27285 l 0.35967,0.8847 q 0.0413,0.11162 0.0537,0.1571 0.0124,0.0413 0.0124,0.0661 z m -0.80202,-2.81533 q 0,-0.23565 -0.10749,-0.39688 -0.10335,-0.16536 -0.3514,-0.23564 -0.0786,-0.0248 -0.17777,-0.0331 -0.0951,-0.008 -0.25218,-0.008 H 103.396 v 1.35186 h 0.5209 q 0.21084,0 0.36381,-0.0496 0.15296,-0.0537 0.25631,-0.1447 0.10335,-0.0909 0.14883,-0.21497 0.0496,-0.12403 0.0496,-0.26872 z m 3.78685,1.30224 q 0,0.12403 -0.062,0.17364 -0.0579,0.0496 -0.13643,0.0496 h -1.83141 q 0,0.23564 0.0455,0.42168 0.0496,0.18603 0.15709,0.31832 0.10749,0.1323 0.28112,0.20671 0.17364,0.0703 0.42582,0.0703 0.19844,0 0.3514,-0.0331 0.15709,-0.0331 0.26872,-0.0744 0.11575,-0.0413 0.18603,-0.0703 0.0744,-0.0331 0.11162,-0.0331 0.0207,0 0.0372,0.0124 0.0207,0.008 0.0289,0.0289 0.008,0.0207 0.0124,0.062 0.004,0.0372 0.004,0.0951 0,0.0372 -0.004,0.0703 0,0.0289 -0.004,0.0537 -0.004,0.0207 -0.0165,0.0413 -0.0124,0.0165 -0.0289,0.0331 -0.0165,0.0165 -0.0992,0.0579 -0.0827,0.0372 -0.2191,0.0744 -0.1323,0.0372 -0.31006,0.0661 -0.17364,0.0289 -0.37207,0.0289 -0.34313,0 -0.60359,-0.0951 -0.25631,-0.0951 -0.43408,-0.28526 -0.17776,-0.19016 -0.26871,-0.47542 -0.0868,-0.28525 -0.0868,-0.66146 0,-0.35967 0.091,-0.64492 0.0951,-0.28939 0.26871,-0.48782 0.17777,-0.20258 0.42582,-0.31006 0.24804,-0.10749 0.55397,-0.10749 0.32659,0 0.5581,0.10749 0.23151,0.10335 0.38034,0.28525 0.14883,0.17777 0.21911,0.41755 0.0703,0.23978 0.0703,0.51263 z m -0.51677,-0.14882 q 0.0124,-0.40515 -0.17776,-0.63252 -0.18604,-0.23151 -0.55398,-0.23151 -0.19017,0 -0.33486,0.0744 -0.14056,0.0703 -0.23978,0.19017 -0.0951,0.11575 -0.14882,0.27285 -0.0496,0.15296 -0.0579,0.32659 z m 3.50676,0.62011 q 0,0.28112 -0.10335,0.50023 -0.10335,0.21911 -0.28938,0.37621 -0.18191,0.15296 -0.43409,0.23151 -0.24805,0.0744 -0.53743,0.0744 -0.19844,0 -0.37207,-0.0331 -0.17364,-0.0331 -0.31006,-0.0827 -0.13229,-0.0496 -0.22324,-0.10336 -0.091,-0.0537 -0.12816,-0.091 -0.0331,-0.0372 -0.0537,-0.0951 -0.0165,-0.0579 -0.0165,-0.15296 0,-0.0661 0.004,-0.11162 0.008,-0.0455 0.0207,-0.0744 0.0124,-0.0289 0.0289,-0.0372 0.0207,-0.0124 0.0455,-0.0124 0.0455,0 0.12402,0.0538 0.0785,0.0537 0.20257,0.11576 0.12403,0.062 0.29766,0.11575 0.17777,0.0537 0.40514,0.0537 0.17363,0 0.31833,-0.0455 0.14469,-0.0496 0.24805,-0.13229 0.10335,-0.0868 0.15709,-0.21084 0.0579,-0.12403 0.0579,-0.28112 0,-0.1695 -0.0785,-0.28939 -0.0744,-0.12402 -0.20257,-0.21497 -0.12816,-0.0909 -0.28939,-0.16537 -0.16123,-0.0786 -0.33486,-0.15709 -0.1695,-0.0786 -0.33073,-0.17364 -0.16123,-0.0992 -0.28939,-0.22737 -0.12402,-0.13229 -0.2067,-0.30593 -0.0786,-0.17363 -0.0786,-0.42168 0,-0.24804 0.091,-0.44648 0.0951,-0.19844 0.25631,-0.33073 0.16123,-0.13229 0.38447,-0.20257 0.22738,-0.0703 0.48783,-0.0703 0.13229,0 0.26872,0.0248 0.13642,0.0207 0.25218,0.062 0.11989,0.0372 0.21084,0.0868 0.0951,0.0455 0.12402,0.0786 0.0331,0.0289 0.0413,0.0455 0.008,0.0165 0.0124,0.0455 0.008,0.0248 0.0124,0.062 0.004,0.0372 0.004,0.0951 0,0.0537 -0.008,0.0992 -0.004,0.0413 -0.0124,0.0744 -0.008,0.0289 -0.0248,0.0413 -0.0165,0.0124 -0.0413,0.0124 -0.0331,0 -0.10749,-0.0413 -0.0703,-0.0455 -0.17776,-0.0992 -0.10336,-0.0537 -0.24805,-0.0992 -0.14469,-0.0455 -0.32246,-0.0455 -0.1695,0 -0.29352,0.0455 -0.12403,0.0455 -0.20671,0.11989 -0.0785,0.0744 -0.11989,0.17776 -0.0372,0.10335 -0.0372,0.21498 0,0.16949 0.0744,0.28939 0.0786,0.11988 0.20671,0.21497 0.12815,0.091 0.29352,0.1695 0.16536,0.0785 0.33486,0.15709 0.1695,0.0786 0.33486,0.17364 0.16537,0.0951 0.29353,0.22324 0.12815,0.12816 0.2067,0.30592 0.0786,0.17364 0.0786,0.41341 z"
         id="path111"
         inkscape:connector-curvature="0"
         style="fill:#000000;fill-rule:nonzero;stroke-width:0.26458332" />
    </g>
    <g
       id="g3243"
       transform="translate(-27.639133,-33.24678)">
      <path
         d="M 94.924998,144.225 H 115.075 v 8.55 H 94.924998 Z"
         id="path127"
         inkscape:connector-curvature="0"
         style="fill:#93c47d;fill-rule:evenodd;stroke-width:0.26458332" />
      <path
         d="m 99.674203,148.60142 q 0,0.21498 -0.08268,0.38448 -0.07855,0.16536 -0.223242,0.28112 -0.144694,0.11575 -0.347266,0.17363 -0.202571,0.0579 -0.44235,0.0579 -0.148828,0 -0.285254,-0.0248 -0.132292,-0.0207 -0.239779,-0.0537 -0.107487,-0.0372 -0.181901,-0.0744 -0.07441,-0.0413 -0.111621,-0.0703 -0.03307,-0.0331 -0.04961,-0.0868 -0.0124,-0.0579 -0.0124,-0.15296 0,-0.062 0.0041,-0.0992 0.0083,-0.0413 0.01654,-0.0661 0.0083,-0.0248 0.02481,-0.0331 0.02067,-0.0124 0.04134,-0.0124 0.03307,0 0.09922,0.0413 0.06615,0.0413 0.165365,0.0909 0.09922,0.0496 0.23151,0.091 0.132292,0.0413 0.305925,0.0413 0.132291,0 0.235644,-0.0248 0.107487,-0.0289 0.181901,-0.0827 0.07855,-0.0579 0.119889,-0.14056 0.04134,-0.0827 0.04134,-0.19844 0,-0.11575 -0.06201,-0.1943 -0.05788,-0.0827 -0.1571,-0.14469 -0.09922,-0.062 -0.223243,-0.11163 -0.124023,-0.0496 -0.256315,-0.0992 -0.132291,-0.0538 -0.256315,-0.11989 -0.124023,-0.0662 -0.223242,-0.16123 -0.09922,-0.0992 -0.16123,-0.23151 -0.06201,-0.1323 -0.06201,-0.31833 0,-0.16536 0.06201,-0.31419 0.06615,-0.15297 0.194303,-0.26459 0.128158,-0.11575 0.318327,-0.1819 0.190169,-0.0703 0.44235,-0.0703 0.111621,0 0.223243,0.0207 0.111621,0.0165 0.202571,0.0455 0.09095,0.0289 0.152962,0.062 0.06615,0.0331 0.09508,0.0579 0.03307,0.0248 0.04548,0.0455 0.0124,0.0165 0.01654,0.0414 0.0041,0.0207 0.0083,0.0537 0.0041,0.0331 0.0041,0.0827 0,0.0537 -0.0041,0.0951 -0.0041,0.0372 -0.01654,0.062 -0.0083,0.0248 -0.02481,0.0372 -0.01654,0.008 -0.03307,0.008 -0.02894,0 -0.08268,-0.0331 -0.05374,-0.0331 -0.136426,-0.0703 -0.08268,-0.0413 -0.198438,-0.0744 -0.111621,-0.0372 -0.256315,-0.0372 -0.132292,0 -0.231511,0.0331 -0.09922,0.0289 -0.16123,0.0827 -0.06201,0.0538 -0.09509,0.12816 -0.03307,0.0744 -0.03307,0.16123 0,0.11989 0.06201,0.20257 0.06201,0.0827 0.161231,0.14469 0.09922,0.062 0.223242,0.11163 0.128157,0.0496 0.260449,0.10335 0.132292,0.0496 0.260449,0.11575 0.128158,0.0661 0.227376,0.16123 0.09922,0.0909 0.161231,0.22325 0.06201,0.12815 0.06201,0.30592 z m 2.735747,0.33487 q 0,0.0537 -0.004,0.0951 0,0.0372 -0.008,0.0662 -0.008,0.0248 -0.0207,0.0455 -0.008,0.0165 -0.0496,0.0579 -0.0372,0.0372 -0.13229,0.0951 -0.0909,0.0579 -0.2067,0.10335 -0.11576,0.0455 -0.25218,0.0703 -0.13643,0.0289 -0.28526,0.0289 -0.29765,0 -0.5333,-0.0992 -0.2315,-0.0992 -0.3886,-0.28939 -0.1571,-0.19017 -0.23978,-0.46715 -0.0786,-0.27699 -0.0786,-0.64079 0,-0.41341 0.0992,-0.70694 0.0992,-0.29765 0.27285,-0.48782 0.17777,-0.19017 0.41341,-0.28112 0.23978,-0.091 0.51677,-0.091 0.13229,0 0.25631,0.0248 0.12816,0.0248 0.23151,0.0662 0.10749,0.0413 0.18604,0.0951 0.0827,0.0496 0.11989,0.0868 0.0372,0.0372 0.0496,0.062 0.0165,0.0207 0.0248,0.0496 0.0124,0.0289 0.0124,0.0661 0.004,0.0372 0.004,0.091 0,0.12403 -0.0289,0.17364 -0.0248,0.0455 -0.0662,0.0455 -0.0455,0 -0.10749,-0.0496 -0.062,-0.0537 -0.1571,-0.11575 -0.0909,-0.062 -0.22324,-0.11162 -0.12816,-0.0538 -0.31006,-0.0538 -0.36794,0 -0.56637,0.28526 -0.19431,0.28525 -0.19431,0.82269 0,0.26871 0.0496,0.47542 0.0496,0.20257 0.14883,0.339 0.0992,0.13642 0.24391,0.20257 0.1447,0.0661 0.33073,0.0661 0.17777,0 0.31006,-0.0537 0.13229,-0.0579 0.23151,-0.12402 0.0992,-0.0661 0.16537,-0.11989 0.0661,-0.0579 0.10335,-0.0579 0.0207,0 0.0372,0.0124 0.0165,0.0124 0.0248,0.0455 0.0124,0.0289 0.0165,0.0744 0.004,0.0413 0.004,0.10335 z m 3.22358,-1.00046 q 0,0.34313 -0.091,0.62839 -0.0909,0.28525 -0.26872,0.49609 -0.17776,0.20671 -0.44648,0.32246 -0.26872,0.11576 -0.62012,0.11576 -0.34727,0 -0.60358,-0.0992 -0.25218,-0.10335 -0.42581,-0.29766 -0.1695,-0.19844 -0.25219,-0.47542 -0.0827,-0.28112 -0.0827,-0.63252 0,-0.34313 0.0868,-0.62839 0.0868,-0.28939 0.26459,-0.49609 0.1819,-0.20671 0.44648,-0.32246 0.26872,-0.11576 0.62425,-0.11576 0.34314,0 0.59945,0.10336 0.25632,0.10335 0.42581,0.29765 0.1695,0.19431 0.25632,0.47543 0.0868,0.27698 0.0868,0.62838 z m -0.54157,0.0331 q 0,-0.22324 -0.0413,-0.42581 -0.0413,-0.20257 -0.14056,-0.3514 -0.0951,-0.15296 -0.26045,-0.23978 -0.16123,-0.091 -0.40514,-0.091 -0.22738,0 -0.39274,0.0827 -0.16123,0.0786 -0.26872,0.22738 -0.10335,0.14469 -0.1571,0.34727 -0.0496,0.20257 -0.0496,0.43821 0,0.23151 0.0413,0.43408 0.0455,0.19844 0.14056,0.3514 0.0992,0.14883 0.26045,0.23978 0.16537,0.0868 0.41341,0.0868 0.22325,0 0.38448,-0.0786 0.16536,-0.0827 0.26871,-0.22738 0.10749,-0.14882 0.1571,-0.34726 0.0496,-0.20257 0.0496,-0.44649 z m 3.8902,-0.0331 q 0,0.34313 -0.091,0.62839 -0.0909,0.28525 -0.26872,0.49609 -0.17776,0.20671 -0.44648,0.32246 -0.26872,0.11576 -0.62012,0.11576 -0.34726,0 -0.60358,-0.0992 -0.25218,-0.10335 -0.42581,-0.29766 -0.1695,-0.19844 -0.25218,-0.47542 -0.0827,-0.28112 -0.0827,-0.63252 0,-0.34313 0.0868,-0.62839 0.0868,-0.28939 0.26458,-0.49609 0.1819,-0.20671 0.44649,-0.32246 0.26871,-0.11576 0.62425,-0.11576 0.34313,0 0.59944,0.10336 0.25632,0.10335 0.42582,0.29765 0.1695,0.19431 0.25631,0.47542 0.0868,0.27699 0.0868,0.62839 z m -0.54157,0.0331 q 0,-0.22324 -0.0413,-0.42581 -0.0413,-0.20257 -0.14056,-0.3514 -0.0951,-0.15296 -0.26044,-0.23978 -0.16124,-0.091 -0.40515,-0.091 -0.22738,0 -0.39274,0.0827 -0.16123,0.0786 -0.26872,0.22738 -0.10335,0.14469 -0.15709,0.34727 -0.0496,0.20257 -0.0496,0.43821 0,0.23151 0.0413,0.43408 0.0455,0.19844 0.14056,0.3514 0.0992,0.14883 0.26045,0.23978 0.16536,0.0868 0.41341,0.0868 0.22324,0 0.38447,-0.0786 0.16537,-0.0827 0.26872,-0.22738 0.10748,-0.14882 0.15709,-0.34726 0.0496,-0.20257 0.0496,-0.44649 z m 3.86127,-0.0455 q 0,0.36793 -0.0785,0.66146 -0.0786,0.28939 -0.23565,0.49196 -0.15296,0.20257 -0.38034,0.31419 -0.22324,0.10749 -0.51676,0.10749 -0.12402,0 -0.23151,-0.0248 -0.10335,-0.0248 -0.20257,-0.0744 -0.0992,-0.0537 -0.19844,-0.13229 -0.0992,-0.0827 -0.21084,-0.1943 v 1.39733 q 0,0.0248 -0.0124,0.0413 -0.0124,0.0207 -0.0413,0.0331 -0.0289,0.0124 -0.0786,0.0165 -0.0496,0.008 -0.12816,0.008 -0.0744,0 -0.12402,-0.008 -0.0496,-0.004 -0.0786,-0.0165 -0.0289,-0.0124 -0.0413,-0.0331 -0.008,-0.0165 -0.008,-0.0413 v -3.89847 q 0,-0.0289 0.008,-0.0455 0.008,-0.0165 0.0372,-0.0289 0.0289,-0.0124 0.0703,-0.0165 0.0455,-0.004 0.10749,-0.004 0.0661,0 0.10748,0.004 0.0413,0.004 0.0662,0.0165 0.0289,0.0124 0.0413,0.0289 0.0124,0.0165 0.0124,0.0455 v 0.3762 q 0.12403,-0.13229 0.23978,-0.22738 0.11989,-0.0951 0.23978,-0.15709 0.11989,-0.0661 0.24392,-0.0992 0.12815,-0.0331 0.26871,-0.0331 0.30179,0 0.51677,0.11989 0.21497,0.11575 0.34726,0.32246 0.13643,0.20257 0.19844,0.47542 0.062,0.27285 0.062,0.57464 z m -0.54157,0.0579 q 0,-0.21084 -0.0331,-0.40928 -0.0289,-0.20257 -0.11162,-0.35553 -0.0786,-0.1571 -0.21084,-0.24805 -0.13229,-0.0951 -0.33073,-0.0951 -0.0992,0 -0.19844,0.0289 -0.0951,0.0289 -0.1943,0.0951 -0.0992,0.062 -0.20671,0.16536 -0.10749,0.10335 -0.22737,0.25632 v 1.10794 q 0.21083,0.26045 0.39687,0.39688 0.19017,0.13642 0.39688,0.13642 0.1943,0 0.33072,-0.0909 0.14056,-0.0951 0.22325,-0.24805 0.0868,-0.15709 0.12402,-0.34726 0.0413,-0.19431 0.0413,-0.39274 z"
         id="path131"
         inkscape:connector-curvature="0"
         style="fill:#ffffff;fill-rule:nonzero;stroke-width:0.26458332" />
    </g>
    <g
       id="g3330"
       transform="translate(-52.745985,-33.24678)">
      <path
         d="m 89.968148,144.225 h 30.063702 v 8.55 H 89.968148 Z"
         id="path113-8"
         inkscape:connector-curvature="0"
         style="fill:#eb91ee;fill-opacity:1;fill-rule:evenodd;stroke-width:0.17508449" />
      <text
         id="text3171-5"
         y="150.15416"
         x="91.146584"
         style="font-style:normal;font-variant:normal;font-weight:normal;font-stretch:normal;font-size:6.3499999px;line-height:1.25;font-family:sans-serif;-inkscape-font-specification:'sans-serif, Normal';font-variant-ligatures:normal;font-variant-caps:normal;font-variant-numeric:normal;font-feature-settings:normal;text-align:start;letter-spacing:0px;word-spacing:0px;writing-mode:lr-tb;text-anchor:start;fill:#000000;fill-opacity:1;stroke:none;stroke-width:0.26458332"
         xml:space="preserve"><tspan
           y="150.15416"
           x="91.146584"
           id="tspan3322"
           sodipodi:role="line">gmrvLex</tspan><tspan
           y="158.09166"
           x="91.146584"
           id="tspan3324"
           sodipodi:role="line" /></text>
    </g>
    <g
       id="g3372"
       transform="translate(-52.745986,-24.69678)">
      <path
         d="m 89.96815,144.225 h 30.0637 v 8.55001 h -30.0637 z"
         id="path113-1"
         inkscape:connector-curvature="0"
         style="fill:#91b5ee;fill-opacity:1;fill-rule:evenodd;stroke-width:0.17508449" />
      <text
         id="text3171-59"
         y="150.86729"
         x="96.817551"
         style="font-style:normal;font-variant:normal;font-weight:normal;font-stretch:normal;font-size:6.3499999px;line-height:1.25;font-family:sans-serif;-inkscape-font-specification:'sans-serif, Normal';font-variant-ligatures:normal;font-variant-caps:normal;font-variant-numeric:normal;font-feature-settings:normal;text-align:start;letter-spacing:0px;word-spacing:0px;writing-mode:lr-tb;text-anchor:start;fill:#000000;fill-opacity:1;stroke:none;stroke-width:0.26458332"
         xml:space="preserve"><tspan
           y="150.86729"
           x="96.817551"
           id="tspan3367"
           sodipodi:role="line">Lexis</tspan></text>
    </g>
    <g
       id="g3432"
       transform="translate(92.097198,-32.29662)">
      <path
         d="m 90.551195,151.82484 h 21.133335 v 8.55 H 90.551195 Z"
         id="path29-8"
         inkscape:connector-curvature="0"
         style="fill:#1f36e7;fill-opacity:1;fill-rule:evenodd;stroke-width:0.26458332" />
      <text
         xml:space="preserve"
         style="font-style:normal;font-variant:normal;font-weight:normal;font-stretch:normal;font-size:6.3499999px;line-height:1.25;font-family:sans-serif;-inkscape-font-specification:'sans-serif, Normal';font-variant-ligatures:normal;font-variant-caps:normal;font-variant-numeric:normal;font-feature-settings:normal;text-align:start;letter-spacing:0px;word-spacing:0px;writing-mode:lr-tb;text-anchor:start;fill:#ffffff;fill-opacity:1;stroke:none;stroke-width:0.26458332;stroke-opacity:1"
         x="97.271584"
         y="158.04701"
         id="text3171-5-3"><tspan
           y="158.04701"
           x="97.271584"
           id="tspan3427"
           sodipodi:role="line">Qt</tspan></text>
    </g>
    <g
       id="g3469"
       transform="translate(33.742443,-42.65154)">
      <path
         d="m 127.77262,153.62976 h 21.13333 v 8.55 h -21.13333 z"
         id="path29-8-4"
         inkscape:connector-curvature="0"
         style="fill:#e7ac1f;fill-opacity:1;fill-rule:evenodd;stroke-width:0.26458332" />
      <text
         xml:space="preserve"
         style="font-style:normal;font-variant:normal;font-weight:normal;font-stretch:normal;font-size:6.3499999px;line-height:1.25;font-family:sans-serif;-inkscape-font-specification:'sans-serif, Normal';font-variant-ligatures:normal;font-variant-caps:normal;font-variant-numeric:normal;font-feature-settings:normal;text-align:start;letter-spacing:0px;word-spacing:0px;writing-mode:lr-tb;text-anchor:start;fill:#ffffff;fill-opacity:1;stroke:none;stroke-width:0.26458332;stroke-opacity:1"
         x="129.1414"
         y="160.17439"
         id="text3171-5-3-4"><tspan
           y="160.17439"
           x="129.1414"
           id="tspan3461"
           sodipodi:role="line">Boost</tspan><tspan
           y="168.11189"
           x="129.1414"
           id="tspan3463"
           sodipodi:role="line" /></text>
    </g>
    <g
       id="g3513"
       transform="translate(-2.267857,-37.23065)">
      <path
         d="m 110.83706,148.20887 h 26.47293 v 8.55 h -26.47293 z"
         id="path113-8-3"
         inkscape:connector-curvature="0"
         style="fill:#951717;fill-opacity:1;fill-rule:evenodd;stroke-width:0.16429617" />
      <text
         id="text3171-5-1"
         y="154.85117"
         x="117.59175"
         style="font-style:normal;font-variant:normal;font-weight:normal;font-stretch:normal;font-size:6.3499999px;line-height:1.25;font-family:sans-serif;-inkscape-font-specification:'sans-serif, Normal';font-variant-ligatures:normal;font-variant-caps:normal;font-variant-numeric:normal;font-feature-settings:normal;text-align:start;letter-spacing:0px;word-spacing:0px;writing-mode:lr-tb;text-anchor:start;fill:#ffffff;fill-opacity:1;stroke:none;stroke-width:0.26458332"
         xml:space="preserve"><tspan
           y="154.85117"
           x="117.59175"
           id="tspan3502"
           sodipodi:role="line">nsol</tspan><tspan
           y="162.78867"
           x="117.59175"
           id="tspan3504"
           sodipodi:role="line" /><tspan
           y="170.72617"
           x="117.59175"
           id="tspan3506"
           sodipodi:role="line" /></text>
    </g>
    <g
       id="g3558"
       transform="translate(-17.289567,-45.62982)">
      <path
         d="m 125.85877,165.15804 h 26.47293 v 8.55 h -26.47293 z"
         id="path113-8-3-6"
         inkscape:connector-curvature="0"
         style="fill:#17952a;fill-opacity:1;fill-rule:evenodd;stroke-width:0.16429617" />
      <text
         id="text3171-5-1-2"
         y="171.80034"
         x="130.73296"
         style="font-style:normal;font-variant:normal;font-weight:normal;font-stretch:normal;font-size:6.3499999px;line-height:1.25;font-family:sans-serif;-inkscape-font-specification:'sans-serif, Normal';font-variant-ligatures:normal;font-variant-caps:normal;font-variant-numeric:normal;font-feature-settings:normal;text-align:start;letter-spacing:0px;word-spacing:0px;writing-mode:lr-tb;text-anchor:start;fill:#ffffff;fill-opacity:1;stroke:none;stroke-width:0.26458332"
         xml:space="preserve"><tspan
           y="171.80034"
           x="130.73296"
           id="tspan3550"
           sodipodi:role="line">Brion</tspan><tspan
           y="179.73784"
           x="130.73296"
           id="tspan3552"
           sodipodi:role="line" /></text>
    </g>
    <g
       id="g3613"
       transform="translate(-138.5201,-35.46999)">
      <path
         d="m 154.60893,146.44821 h 21.13333 v 8.55 h -21.13333 z"
         id="path29-8-4-4"
         inkscape:connector-curvature="0"
         style="fill:#2be71f;fill-opacity:1;fill-rule:evenodd;stroke-width:0.26458332" />
      <text
         xml:space="preserve"
         style="font-style:normal;font-variant:normal;font-weight:normal;font-stretch:normal;font-size:6.3499999px;line-height:1.25;font-family:sans-serif;-inkscape-font-specification:'sans-serif, Normal';font-variant-ligatures:normal;font-variant-caps:normal;font-variant-numeric:normal;font-feature-settings:normal;text-align:start;letter-spacing:0px;word-spacing:0px;writing-mode:lr-tb;text-anchor:start;fill:#ffffff;fill-opacity:1;stroke:none;stroke-width:0.26458332;stroke-opacity:1"
         x="156.26451"
         y="152.47504"
         id="text3171-5-3-4-1"><tspan
           y="152.47504"
           x="156.26451"
           id="tspan3608"
           sodipodi:role="line">Eigen</tspan></text>
    </g>
    <g
       id="g3856"
       transform="translate(0,-1.0583333)">
      <path
         d="m 110.17835,154.41425 v 0 c 0,0.86874 5.20573,1.57298 11.62732,1.57298 6.42159,0 11.62732,-0.70424 11.62732,-1.57298 v 9.43787 c 0,0.86873 -5.20573,1.57298 -11.62732,1.57298 -6.42159,0 -11.62732,-0.70425 -11.62732,-1.57298 z"
         id="path41"
         inkscape:connector-curvature="0"
         style="fill:#4f81bd;fill-rule:evenodd;stroke-width:0.22399487" />
      <path
         d="m 110.17835,154.41425 v 0 c 0,-0.86873 5.20573,-1.57298 11.62732,-1.57298 6.42159,0 11.62732,0.70425 11.62732,1.57298 v 0 c 0,0.86874 -5.20573,1.57298 -11.62732,1.57298 -6.42159,0 -11.62732,-0.70424 -11.62732,-1.57298 z"
         id="path43"
         inkscape:connector-curvature="0"
         style="fill:#95b3d7;fill-rule:evenodd;stroke-width:0.22399487" />
      <path
         d="m 133.43299,154.41425 v 0 c 0,0.86874 -5.20573,1.57298 -11.62732,1.57298 -6.42159,0 -11.62732,-0.70424 -11.62732,-1.57298 v 0 c 0,-0.86873 5.20573,-1.57298 11.62732,-1.57298 6.42159,0 11.62732,0.70425 11.62732,1.57298 v 9.43787 c 0,0.86873 -5.20573,1.57298 -11.62732,1.57298 -6.42159,0 -11.62732,-0.70425 -11.62732,-1.57298 v -9.43787"
         id="path45"
         inkscape:connector-curvature="0"
         style="fill:#000000;fill-opacity:0;fill-rule:evenodd;stroke-width:0.22399487" />
      <path
         d="m 133.43299,154.41425 v 0 c 0,0.86874 -5.20573,1.57298 -11.62732,1.57298 -6.42159,0 -11.62732,-0.70424 -11.62732,-1.57298 v 0 c 0,-0.86873 5.20573,-1.57298 11.62732,-1.57298 6.42159,0 11.62732,0.70425 11.62732,1.57298 v 9.43787 c 0,0.86873 -5.20573,1.57298 -11.62732,1.57298 -6.42159,0 -11.62732,-0.70425 -11.62732,-1.57298 v -9.43787"
         id="path47"
         inkscape:connector-curvature="0"
         style="fill:#8fbbf3;fill-opacity:1;fill-rule:evenodd;stroke:#333333;stroke-width:0.25397846;stroke-linecap:butt;stroke-linejoin:round" />
      <path
         d="m 114.86053,160.72717 q 0,0.12457 -0.031,0.23135 -0.031,0.10677 -0.0895,0.19219 -0.055,0.0854 -0.13423,0.14948 -0.0792,0.0641 -0.17896,0.11034 -0.0998,0.0427 -0.21339,0.0641 -0.11358,0.0213 -0.25813,0.0213 h -0.67801 q -0.0482,0 -0.0895,-0.032 -0.0413,-0.032 -0.0413,-0.1139 v -2.3953 q 0,-0.0783 0.0413,-0.11033 0.0413,-0.032 0.0895,-0.032 h 0.58853 q 0.23403,0 0.38202,0.0463 0.148,0.0427 0.24781,0.13168 0.0998,0.0854 0.14798,0.21356 0.0516,0.12456 0.0516,0.28473 0,0.0961 -0.0241,0.18507 -0.0207,0.0854 -0.0654,0.16016 -0.0413,0.0712 -0.1067,0.13169 -0.0653,0.0569 -0.15143,0.0961 0.10669,0.0178 0.19962,0.0747 0.0929,0.0534 0.16175,0.13881 0.0688,0.0854 0.11014,0.19931 0.0413,0.1139 0.0413,0.2527 z m -0.51969,-1.20299 q 0,-0.0961 -0.0276,-0.1744 -0.0276,-0.0819 -0.0826,-0.13525 -0.0551,-0.0534 -0.148,-0.0819 -0.0895,-0.032 -0.23747,-0.032 h -0.35793 v 0.86843 h 0.39579 q 0.13422,0 0.21682,-0.0356 0.0826,-0.0356 0.13423,-0.0961 0.0551,-0.0605 0.0792,-0.14236 0.0276,-0.0819 0.0276,-0.17085 z m 0.15488,1.22435 q 0,-0.12101 -0.0379,-0.21355 -0.0379,-0.0925 -0.11013,-0.15305 -0.0689,-0.0641 -0.17553,-0.0961 -0.10669,-0.032 -0.27189,-0.032 h -0.413 v 0.94674 h 0.50248 q 0.12047,0 0.2065,-0.0285 0.0895,-0.0285 0.15488,-0.0854 0.0688,-0.0569 0.10669,-0.14237 0.0379,-0.0854 0.0379,-0.19575 z m 1.17867,0.69403 q 0,0.0178 -0.007,0.032 -0.007,0.0107 -0.0276,0.0178 -0.0172,0.007 -0.0482,0.0107 -0.031,0.003 -0.0826,0.003 -0.0482,0 -0.0826,-0.003 -0.031,-0.003 -0.0516,-0.0107 -0.0172,-0.007 -0.0241,-0.0178 -0.007,-0.0142 -0.007,-0.032 v -2.76902 q 0,-0.0178 0.007,-0.0285 0.007,-0.0142 0.0241,-0.0213 0.0206,-0.0107 0.0516,-0.0142 0.0344,-0.003 0.0826,-0.003 0.0516,0 0.0826,0.003 0.031,0.003 0.0482,0.0142 0.0207,0.007 0.0276,0.0213 0.007,0.0107 0.007,0.0285 z m 2.16142,0 q 0,0.0178 -0.007,0.032 -0.007,0.0107 -0.0276,0.0178 -0.0172,0.007 -0.0482,0.0107 -0.0276,0.003 -0.0688,0.003 -0.0447,0 -0.0758,-0.003 -0.0275,-0.003 -0.0447,-0.0107 -0.0172,-0.007 -0.0241,-0.0178 -0.007,-0.0142 -0.007,-0.032 v -0.24558 q -0.15488,0.17796 -0.30632,0.25981 -0.14799,0.0783 -0.30286,0.0783 -0.17897,0 -0.30288,-0.0605 -0.12388,-0.064 -0.1996,-0.17083 -0.0757,-0.10678 -0.11014,-0.24915 -0.0344,-0.14236 -0.0344,-0.34523 v -1.13182 q 0,-0.0178 0.007,-0.0285 0.007,-0.0107 0.0276,-0.0214 0.0206,-0.0107 0.0516,-0.0107 0.0344,-0.003 0.0826,-0.003 0.0482,0 0.0792,0.003 0.031,0 0.0482,0.0107 0.0207,0.0107 0.0276,0.0214 0.0103,0.0107 0.0103,0.0285 v 1.08555 q 0,0.16372 0.0206,0.26337 0.0241,0.0997 0.0723,0.17084 0.0482,0.0677 0.12045,0.10678 0.0723,0.0356 0.16864,0.0356 0.1239,0 0.24781,-0.089 0.1239,-0.0925 0.26156,-0.2705 v -1.30265 q 0,-0.0178 0.007,-0.0285 0.007,-0.0107 0.0276,-0.0213 0.0206,-0.0107 0.0516,-0.0107 0.031,-0.003 0.0792,-0.003 0.0482,0 0.0792,0.003 0.0344,0 0.0516,0.0107 0.0172,0.0107 0.0276,0.0213 0.0103,0.0107 0.0103,0.0285 z m 2.15213,-1.01435 q 0,0.0819 -0.0413,0.11744 -0.0379,0.032 -0.086,0.032 h -1.18394 q 0,0.1566 0.0276,0.28117 0.031,0.12457 0.0998,0.21355 0.0723,0.089 0.18241,0.13881 0.11358,0.0462 0.27534,0.0462 0.13078,0 0.23059,-0.0214 0.0998,-0.0213 0.17208,-0.0462 0.0757,-0.0285 0.12046,-0.0499 0.0482,-0.0249 0.0723,-0.0249 0.0137,0 0.0241,0.007 0.0137,0.007 0.0172,0.0249 0.007,0.0142 0.0103,0.0392 0.003,0.0249 0.003,0.0641 0,0.0249 -0.003,0.0462 0,0.0178 -0.003,0.0356 -0.003,0.0142 -0.0103,0.0285 -0.007,0.0107 -0.0206,0.0214 -0.0103,0.0107 -0.0654,0.0392 -0.0516,0.0249 -0.13766,0.0498 -0.0861,0.0249 -0.19962,0.0427 -0.11358,0.0213 -0.24092,0.0213 -0.22371,0 -0.39235,-0.0641 -0.16865,-0.064 -0.28223,-0.18864 -0.11357,-0.12813 -0.17208,-0.31676 -0.0585,-0.1922 -0.0585,-0.44846 0,-0.23846 0.0585,-0.43066 0.0619,-0.19219 0.17552,-0.32388 0.11357,-0.13525 0.27189,-0.20643 0.16176,-0.0747 0.36138,-0.0747 0.21338,0 0.36138,0.0712 0.15143,0.0712 0.24779,0.19219 0.0964,0.11745 0.14111,0.28117 0.0447,0.16017 0.0447,0.34169 z m -0.33384,-0.0997 q 0.007,-0.2705 -0.11702,-0.42354 -0.12046,-0.15305 -0.35794,-0.15305 -0.12389,0 -0.21681,0.0498 -0.0895,0.0462 -0.15144,0.12457 -0.0619,0.0783 -0.0964,0.18508 -0.0344,0.10321 -0.0379,0.2171 z m 2.60909,0.78657 q 0,0.0356 -0.003,0.0605 0,0.0249 -0.007,0.0427 -0.003,0.0178 -0.0137,0.032 -0.007,0.0142 -0.0276,0.0356 -0.0172,0.0213 -0.0826,0.064 -0.0654,0.0427 -0.16176,0.0854 -0.0929,0.0392 -0.21682,0.0641 -0.1239,0.0285 -0.26846,0.0285 -0.25468,0 -0.45774,-0.0854 -0.20305,-0.089 -0.34759,-0.25625 -0.14455,-0.17085 -0.22027,-0.41998 -0.0757,-0.25271 -0.0757,-0.57659 0,-0.33456 0.0826,-0.59438 0.0826,-0.26337 0.23059,-0.44489 0.15144,-0.18151 0.36138,-0.27761 0.20994,-0.0961 0.46462,-0.0961 0.11358,0 0.22028,0.0249 0.10668,0.0213 0.19617,0.0534 0.0895,0.032 0.15831,0.0783 0.0723,0.0427 0.0998,0.0712 0.0276,0.0249 0.0344,0.0427 0.007,0.0142 0.0103,0.0356 0.007,0.0178 0.0103,0.0462 0.003,0.0249 0.003,0.0605 0,0.0427 -0.003,0.0712 -0.003,0.0285 -0.0137,0.0498 -0.007,0.0178 -0.0172,0.0285 -0.0103,0.0107 -0.0276,0.0107 -0.0276,0 -0.0792,-0.0392 -0.0482,-0.0427 -0.12734,-0.0925 -0.0792,-0.0498 -0.19275,-0.089 -0.11357,-0.0392 -0.27188,-0.0392 -0.17208,0 -0.31664,0.0712 -0.14111,0.0712 -0.24092,0.20999 -0.0998,0.13881 -0.15487,0.34168 -0.0551,0.19931 -0.0551,0.45557 0,0.25626 0.0516,0.45201 0.0551,0.19576 0.15488,0.32744 0.0998,0.13169 0.24436,0.19932 0.14455,0.0676 0.32696,0.0676 0.15487,0 0.26845,-0.0392 0.11702,-0.0392 0.19617,-0.089 0.0826,-0.0498 0.13423,-0.089 0.0516,-0.0392 0.0826,-0.0392 0.0137,0 0.0241,0.007 0.0103,0.003 0.0137,0.0213 0.007,0.0178 0.0103,0.0499 0.003,0.032 0.003,0.0783 z m 2.09819,-0.62642 q 0,0.2278 -0.0585,0.41999 -0.0585,0.19219 -0.17553,0.331 -0.11358,0.1388 -0.2891,0.2171 -0.17209,0.0783 -0.39924,0.0783 -0.2237,0 -0.3889,-0.0677 -0.16521,-0.0676 -0.27534,-0.19931 -0.11013,-0.13169 -0.1652,-0.31676 -0.0551,-0.18863 -0.0551,-0.42354 0,-0.22779 0.0585,-0.41998 0.0585,-0.19219 0.17209,-0.331 0.11702,-0.13881 0.2891,-0.21711 0.17208,-0.0783 0.40268,-0.0783 0.2237,0 0.3889,0.0712 0.16521,0.0676 0.27534,0.19931 0.11013,0.12814 0.1652,0.31676 0.0551,0.18509 0.0551,0.41999 z m -0.34761,0.0249 q 0,-0.15303 -0.0276,-0.28828 -0.0276,-0.13525 -0.0895,-0.23491 -0.0619,-0.10321 -0.16865,-0.16016 -0.10669,-0.0605 -0.26501,-0.0605 -0.14799,0 -0.25468,0.0534 -0.10325,0.0534 -0.17208,0.15304 -0.0654,0.0997 -0.0998,0.2349 -0.0344,0.1317 -0.0344,0.29185 0,0.15305 0.0276,0.2883 0.0276,0.13524 0.0895,0.23846 0.0653,0.0996 0.17209,0.16017 0.10669,0.0569 0.26501,0.0569 0.14455,0 0.24779,-0.0534 0.1067,-0.0534 0.17553,-0.14949 0.0688,-0.0997 0.0998,-0.23491 0.0344,-0.13524 0.0344,-0.29541 z m 2.39076,0.92895 q 0,0.0178 -0.0103,0.032 -0.007,0.0107 -0.0241,0.0178 -0.0172,0.007 -0.0516,0.0107 -0.031,0.003 -0.0792,0.003 -0.0482,0 -0.0826,-0.003 -0.031,-0.003 -0.0516,-0.0107 -0.0172,-0.007 -0.0241,-0.0178 -0.007,-0.0142 -0.007,-0.032 v -1.09266 q 0,-0.16016 -0.0241,-0.25626 -0.0241,-0.0997 -0.0723,-0.16729 -0.0447,-0.0712 -0.12047,-0.10677 -0.0723,-0.0392 -0.16864,-0.0392 -0.1239,0 -0.24779,0.0925 -0.1239,0.089 -0.26158,0.26694 v 1.30265 q 0,0.0178 -0.007,0.032 -0.007,0.0107 -0.0275,0.0178 -0.0172,0.007 -0.0482,0.0107 -0.031,0.003 -0.0826,0.003 -0.0482,0 -0.0826,-0.003 -0.031,-0.003 -0.0516,-0.0107 -0.0172,-0.007 -0.0241,-0.0178 -0.007,-0.0142 -0.007,-0.032 v -1.865 q 0,-0.0178 0.007,-0.0285 0.007,-0.0107 0.0241,-0.0214 0.0172,-0.0107 0.0447,-0.0107 0.031,-0.003 0.0757,-0.003 0.0447,0 0.0723,0.003 0.031,0 0.0447,0.0107 0.0172,0.0107 0.0241,0.0214 0.007,0.0107 0.007,0.0285 v 0.24559 q 0.15143,-0.17441 0.30286,-0.25626 0.15144,-0.0854 0.30632,-0.0854 0.18241,0 0.30286,0.0641 0.1239,0.0641 0.19962,0.17084 0.0792,0.10678 0.11013,0.24914 0.0344,0.13881 0.0344,0.33812 z m 1.57048,-2.63378 q 0,0.0392 -0.007,0.0641 -0.003,0.0213 -0.0103,0.0392 -0.003,0.0142 -0.0103,0.0214 -0.007,0.003 -0.0207,0.003 -0.0137,0 -0.0344,-0.0107 -0.0207,-0.0107 -0.0516,-0.0213 -0.031,-0.0107 -0.0723,-0.0178 -0.0413,-0.0107 -0.0929,-0.0107 -0.0758,0 -0.12734,0.0249 -0.0516,0.0249 -0.086,0.0783 -0.031,0.0498 -0.0447,0.13525 -0.0137,0.0854 -0.0137,0.20286 v 0.20644 h 0.40267 q 0.0172,0 0.0276,0.007 0.0103,0.007 0.0206,0.0249 0.0103,0.0178 0.0137,0.0462 0.003,0.0249 0.003,0.064 0,0.0747 -0.0172,0.10677 -0.0172,0.032 -0.0482,0.032 h -0.40267 v 1.6372 q 0,0.0178 -0.0103,0.032 -0.007,0.0107 -0.0276,0.0178 -0.0172,0.007 -0.0482,0.0107 -0.031,0.003 -0.0792,0.003 -0.0482,0 -0.0826,-0.003 -0.031,-0.003 -0.0516,-0.0107 -0.0172,-0.007 -0.0276,-0.0178 -0.007,-0.0142 -0.007,-0.032 v -1.6372 h -0.25469 q -0.031,0 -0.0482,-0.032 -0.0137,-0.032 -0.0137,-0.10677 0,-0.0392 0.003,-0.064 0.003,-0.0285 0.0103,-0.0462 0.0103,-0.0178 0.0206,-0.0249 0.0137,-0.007 0.0276,-0.007 h 0.25469 v -0.19576 q 0,-0.19219 0.0344,-0.331 0.0379,-0.14237 0.11013,-0.23135 0.0723,-0.089 0.17897,-0.13168 0.11014,-0.0427 0.25812,-0.0427 0.0723,0 0.13768,0.0142 0.0653,0.0107 0.0998,0.0285 0.0379,0.0142 0.0482,0.0285 0.0137,0.0107 0.0206,0.032 0.0103,0.0178 0.0137,0.0462 0.003,0.0285 0.003,0.0676 z m 0.59328,2.63378 q 0,0.0178 -0.007,0.032 -0.007,0.0107 -0.0276,0.0178 -0.0172,0.007 -0.0482,0.0107 -0.031,0.003 -0.0826,0.003 -0.0482,0 -0.0826,-0.003 -0.031,-0.003 -0.0516,-0.0107 -0.0172,-0.007 -0.0241,-0.0178 -0.007,-0.0142 -0.007,-0.032 v -1.865 q 0,-0.0142 0.007,-0.0249 0.007,-0.0142 0.0241,-0.0214 0.0206,-0.0107 0.0516,-0.0142 0.0344,-0.003 0.0826,-0.003 0.0516,0 0.0826,0.003 0.031,0.003 0.0482,0.0142 0.0206,0.007 0.0276,0.0214 0.007,0.0107 0.007,0.0249 z m 0.0379,-2.49853 q 0,0.12101 -0.0447,0.16728 -0.0413,0.0427 -0.16176,0.0427 -0.11357,0 -0.15832,-0.0427 -0.0413,-0.0427 -0.0413,-0.16016 0,-0.12101 0.0413,-0.16372 0.0447,-0.0462 0.1652,-0.0462 0.11358,0 0.15488,0.0427 0.0447,0.0427 0.0447,0.16017 z m 2.08569,0.71895 q 0,0.0712 -0.0206,0.10322 -0.0172,0.032 -0.0482,0.032 h -0.25812 q 0.0688,0.0747 0.0964,0.16728 0.0276,0.089 0.0276,0.18507 0,0.16372 -0.0516,0.2883 -0.0482,0.12457 -0.1411,0.20999 -0.0929,0.0854 -0.22371,0.13168 -0.12734,0.0463 -0.28222,0.0463 -0.11013,0 -0.20994,-0.0285 -0.0998,-0.032 -0.15488,-0.0782 -0.0344,0.0356 -0.0585,0.0854 -0.0241,0.0462 -0.0241,0.11034 0,0.0712 0.0654,0.12101 0.0654,0.0462 0.17552,0.0498 l 0.47152,0.0214 q 0.13422,0.003 0.24436,0.0392 0.11357,0.032 0.19617,0.0961 0.0826,0.0641 0.12735,0.15661 0.0482,0.0925 0.0482,0.21355 0,0.12813 -0.055,0.24558 -0.0516,0.11745 -0.15832,0.20287 -0.10669,0.089 -0.27533,0.13881 -0.16521,0.0534 -0.39235,0.0534 -0.21683,0 -0.37171,-0.0392 -0.15143,-0.0392 -0.25124,-0.10677 -0.0964,-0.064 -0.14111,-0.1566 -0.0447,-0.0925 -0.0447,-0.19931 0,-0.0712 0.0137,-0.13525 0.0172,-0.0641 0.0482,-0.12101 0.0344,-0.0569 0.0826,-0.11034 0.0516,-0.0534 0.11701,-0.10677 -0.0998,-0.0499 -0.14798,-0.12813 -0.0447,-0.0819 -0.0447,-0.17084 0,-0.12813 0.0482,-0.22779 0.0516,-0.0997 0.1239,-0.17796 -0.0619,-0.0747 -0.0998,-0.17083 -0.0344,-0.0997 -0.0344,-0.23491 0,-0.16016 0.0516,-0.28473 0.055,-0.12813 0.14456,-0.21355 0.0929,-0.089 0.2237,-0.13525 0.13079,-0.0462 0.28222,-0.0462 0.0826,0 0.15143,0.0107 0.0723,0.007 0.13423,0.0249 h 0.54722 q 0.0344,0 0.0516,0.0356 0.0172,0.032 0.0172,0.10322 z m -0.51969,0.49116 q 0,-0.19219 -0.10326,-0.29897 -0.0998,-0.10677 -0.28565,-0.10677 -0.0964,0 -0.16864,0.0356 -0.0688,0.032 -0.11702,0.089 -0.0482,0.057 -0.0723,0.13525 -0.0207,0.0747 -0.0207,0.15661 0,0.18507 0.0998,0.29185 0.10325,0.10677 0.28566,0.10677 0.0964,0 0.16864,-0.032 0.0723,-0.032 0.12046,-0.089 0.0482,-0.0569 0.0688,-0.13169 0.0241,-0.0747 0.0241,-0.1566 z m 0.16864,1.47706 q 0,-0.11746 -0.0964,-0.18152 -0.0964,-0.0677 -0.25813,-0.0712 l -0.46806,-0.0178 q -0.0654,0.0534 -0.1067,0.0997 -0.0379,0.0462 -0.0619,0.089 -0.0241,0.0427 -0.0344,0.0819 -0.0103,0.0427 -0.0103,0.0854 0,0.13525 0.13078,0.20287 0.13423,0.0712 0.3717,0.0712 0.15143,0 0.25124,-0.032 0.10326,-0.0285 0.16521,-0.0783 0.0619,-0.0498 0.0895,-0.1139 0.0276,-0.0641 0.0276,-0.13525 z"
         id="path49"
         inkscape:connector-curvature="0"
         style="fill:#000000;fill-opacity:1;fill-rule:nonzero;stroke-width:0.22399487" />
    </g>
    <g
       id="g3715"
       transform="translate(-36.173787,24.484773)">
      <path
         d="m 171.21592,95.043452 h 26.47293 v 8.549998 h -26.47293 z"
         id="path113-8-3-7"
         inkscape:connector-curvature="0"
         style="fill:#174f95;fill-opacity:1;fill-rule:evenodd;stroke-width:0.16429617" />
      <text
         id="text3171-5-1-5"
         y="101.68575"
         x="176.8916"
         style="font-style:normal;font-variant:normal;font-weight:normal;font-stretch:normal;font-size:6.3499999px;line-height:1.25;font-family:sans-serif;-inkscape-font-specification:'sans-serif, Normal';font-variant-ligatures:normal;font-variant-caps:normal;font-variant-numeric:normal;font-feature-settings:normal;text-align:start;letter-spacing:0px;word-spacing:0px;writing-mode:lr-tb;text-anchor:start;fill:#ffffff;fill-opacity:1;stroke:none;stroke-width:0.26458332"
         xml:space="preserve"><tspan
           y="101.68575"
           x="176.8916"
           id="tspan3701"
           sodipodi:role="line">nslib</tspan><tspan
           y="109.62325"
           x="176.8916"
           id="tspan3703"
           sodipodi:role="line" /><tspan
           y="117.56075"
           x="176.8916"
           id="tspan3705"
           sodipodi:role="line" /><tspan
           y="125.49825"
           x="176.8916"
           id="tspan3707"
           sodipodi:role="line" /></text>
    </g>
    <path
       style="fill:#0065a2;fill-opacity:0.43627451;fill-rule:evenodd;stroke:#333333;stroke-width:1.10748327;stroke-linecap:butt;stroke-linejoin:round;stroke-miterlimit:4;stroke-dasharray:none;stroke-opacity:1"
       inkscape:connector-curvature="0"
       id="path63-5-3"
       d="m 143.8911,135.83381 4.3875,-4.44739 4.38749,4.44739 h -2.19376 v 8.06699 h 2.19376 l -4.38749,4.4474 -4.3875,-4.4474 h 2.19374 v -8.06699 z" />
    <g
       id="g3921"
       transform="translate(-53.371697,14.61185)">
      <path
         d="m 188.41383,96.36637 h 26.47293 v 8.55 h -26.47293 z"
         id="path113-8-3-7-3"
         inkscape:connector-curvature="0"
         style="fill:#1f6ccc;fill-opacity:1;fill-rule:evenodd;stroke-width:0.16429617" />
      <text
         id="text3171-5-1-5-0"
         y="102.00391"
         x="189.77092"
         style="font-style:normal;font-variant:normal;font-weight:normal;font-stretch:normal;font-size:4.93888903px;line-height:1.25;font-family:sans-serif;-inkscape-font-specification:'sans-serif, Normal';font-variant-ligatures:normal;font-variant-caps:normal;font-variant-numeric:normal;font-feature-settings:normal;text-align:start;letter-spacing:0px;word-spacing:0px;writing-mode:lr-tb;text-anchor:start;fill:#ffffff;fill-opacity:1;stroke:none;stroke-width:0.26458332"
         xml:space="preserve"><tspan
           y="102.00391"
           x="189.77092"
           id="tspan3907"
           sodipodi:role="line">nsplugins</tspan><tspan
           y="108.17752"
           x="189.77092"
           id="tspan3909"
           sodipodi:role="line" /><tspan
           y="114.35113"
           x="189.77092"
           id="tspan3911"
           sodipodi:role="line" /><tspan
           y="120.52474"
           x="189.77092"
           id="tspan3913"
           sodipodi:role="line" /></text>
    </g>
    <g
       id="g3952"
       transform="translate(-1.8106757,16.041665)">
      <path
         d="m 138.65094,137.31082 v 0 c 0,0.86874 5.20573,1.57299 11.62732,1.57299 6.4216,0 11.62733,-0.70425 11.62733,-1.57299 v 9.43788 c 0,0.86873 -5.20573,1.57297 -11.62733,1.57297 -6.42159,0 -11.62732,-0.70424 -11.62732,-1.57297 z"
         id="path41-8"
         inkscape:connector-curvature="0"
         style="fill:#4f81bd;fill-rule:evenodd;stroke-width:0.22399487" />
      <path
         d="m 138.65094,137.31082 v 0 c 0,-0.86873 5.20573,-1.57297 11.62732,-1.57297 6.4216,0 11.62733,0.70424 11.62733,1.57297 v 0 c 0,0.86874 -5.20573,1.57299 -11.62733,1.57299 -6.42159,0 -11.62732,-0.70425 -11.62732,-1.57299 z"
         id="path43-9"
         inkscape:connector-curvature="0"
         style="fill:#95b3d7;fill-rule:evenodd;stroke-width:0.22399487" />
      <path
         d="m 161.90559,137.31082 v 0 c 0,0.86874 -5.20573,1.57299 -11.62733,1.57299 -6.42159,0 -11.62732,-0.70425 -11.62732,-1.57299 v 0 c 0,-0.86873 5.20573,-1.57297 11.62732,-1.57297 6.4216,0 11.62733,0.70424 11.62733,1.57297 v 9.43788 c 0,0.86873 -5.20573,1.57297 -11.62733,1.57297 -6.42159,0 -11.62732,-0.70424 -11.62732,-1.57297 v -9.43788"
         id="path45-7"
         inkscape:connector-curvature="0"
         style="fill:#000000;fill-opacity:0;fill-rule:evenodd;stroke-width:0.22399487" />
      <path
         d="m 161.90559,137.31082 v 0 c 0,0.86874 -5.20573,1.57299 -11.62733,1.57299 -6.42159,0 -11.62732,-0.70425 -11.62732,-1.57299 v 0 c 0,-0.86873 5.20573,-1.57297 11.62732,-1.57297 6.4216,0 11.62733,0.70424 11.62733,1.57297 v 9.43788 c 0,0.86873 -5.20573,1.57297 -11.62733,1.57297 -6.42159,0 -11.62732,-0.70424 -11.62732,-1.57297 v -9.43788"
         id="path47-7"
         inkscape:connector-curvature="0"
         style="fill:#8fbbf3;fill-opacity:1;fill-rule:evenodd;stroke:#333333;stroke-width:0.25397846;stroke-linecap:butt;stroke-linejoin:round" />
      <text
         id="text3925"
         y="142.59673"
         x="141.12035"
         style="font-style:normal;font-variant:normal;font-weight:normal;font-stretch:normal;font-size:3.52777767px;line-height:1.25;font-family:sans-serif;-inkscape-font-specification:'sans-serif, Normal';font-variant-ligatures:normal;font-variant-caps:normal;font-variant-numeric:normal;font-feature-settings:normal;text-align:start;letter-spacing:0px;word-spacing:0px;writing-mode:lr-tb;text-anchor:start;fill:#000000;fill-opacity:1;stroke:none;stroke-width:0.26458332"
         xml:space="preserve"><tspan
           y="142.59673"
           x="141.12035"
           id="tspan3941"
           sodipodi:role="line">JSON/XML/</tspan><tspan
           y="147.00645"
           x="141.12035"
           id="tspan3943"
           sodipodi:role="line"> NeuroML</tspan></text>
    </g>
    <g
       id="g7735"
       transform="translate(0.09329607)">
      <g
         id="g854"
         transform="matrix(0.2084432,0,0,0.20844318,41.72811,158.85454)">
        <path
           inkscape:connector-curvature="0"
           style="fill:#222222;stroke:#222222"
           d="m 14,91 v 4 c 0,0 -2,0 -3,0 -1,0 -2,2 -2,2 1,0 18,0 19,0 0,0 -1,-2 -2,-2 -1,0 -3,0 -3,0 v -4"
           id="path2" />
        <path
           inkscape:connector-curvature="0"
           style="fill:#cccccc;stroke:#000000;stroke-width:2px;stroke-linecap:butt"
           d="m 2.1,89 c 0,-5 0,-16 0,-20 0,-1 0,-3 1.9,-3 3.9,0 29,0 31,0 2,0 2,2 2,4 0,4 0,17 0,19 0,1 0,2 -3,2 C 32,91 6,91 4,91 2.1,91 2.1,89 2.1,89 Z"
           id="path4" />
        <path
           inkscape:connector-curvature="0"
           style="fill:#333333;stroke:#cccccc"
           d="M 4,68 H 35 V 89 H 4 Z"
           id="path6" />
        <path
           inkscape:connector-curvature="0"
           style="fill:#222222;stroke:#222222"
           d="m 76,91 v 4 c 0,0 -2,0 -3,0 -1,0 -2,2 -2,2 1,0 19,0 20,0 0,0 -1,-2 -2,-2 -1,0 -3,0 -3,0 v -4"
           id="path8" />
        <path
           inkscape:connector-curvature="0"
           style="fill:#cccccc;stroke:#000000;stroke-width:2px;stroke-linecap:butt"
           d="m 63,89 c 0,-5 0,-16 0,-20 0,-1 0,-3 2,-3 4,0 29,0 31,0 2,0 2,2 2,4 0,4 0,17 0,19 0,1 0,2 -3,2 -2,0 -28,0 -30,0 -2,0 -2,-2 -2,-2 z"
           id="path10" />
        <path
           inkscape:connector-curvature="0"
           style="fill:#333333;stroke:#cccccc"
           d="M 65,68 H 96 V 89 H 65 Z"
           id="path12" />
        <path
           inkscape:connector-curvature="0"
           style="fill:#222222;stroke:#222222"
           d="m 44,30 v 4 c 0,0 -2,0 -3,0 -1,0 -2,2 -2,2 1,0 19,0 20,0 0,0 -1,-2 -2,-2 -1,0 -3,0 -3,0 v -4"
           id="path14" />
        <path
           inkscape:connector-curvature="0"
           style="fill:#cccccc;stroke:#000000;stroke-width:2px;stroke-linecap:butt"
           d="m 32,28 c 0,-5 0,-16 0,-20 0,-1 0,-3 2,-3 4,0 29,0 31,0 2,0 2,2 2,4 0,4 0,17 0,19 0,1 0,2 -3,2 -2,0 -28,0 -30,0 -2,0 -2,-2 -2,-2 z"
           id="path16" />
        <path
           inkscape:connector-curvature="0"
           style="fill:#333333;stroke:#cccccc"
           d="M 34,7 H 65 V 28 H 34 Z"
           id="path18" />
        <path
           inkscape:connector-curvature="0"
           style="fill:none;stroke:#222222;stroke-width:4"
           d="M 2,51 H 20 V 64 51 H 98 80 V 64 51 H 49 V 37"
           id="path20" />
        <circle
           r="5"
           cx="49"
           cy="51"
           style="fill:#222222"
           id="ellipse22" />
        <circle
           r="5"
           cx="20"
           cy="51"
           style="fill:#222222"
           id="ellipse24" />
        <circle
           r="5"
           cx="80"
           cy="51"
           style="fill:#222222"
           id="ellipse26" />
      </g>
      <text
         id="text7717"
         y="184.3631"
         x="43.121475"
         style="font-style:normal;font-variant:normal;font-weight:normal;font-stretch:normal;font-size:4.23333311px;line-height:1.25;font-family:sans-serif;-inkscape-font-specification:'sans-serif, Normal';font-variant-ligatures:normal;font-variant-caps:normal;font-variant-numeric:normal;font-feature-settings:normal;text-align:start;letter-spacing:0px;word-spacing:0px;writing-mode:lr-tb;text-anchor:start;fill:#000000;fill-opacity:1;stroke:none;stroke-width:0.26458332"
         xml:space="preserve"><tspan
           style="font-style:normal;font-variant:normal;font-weight:normal;font-stretch:normal;font-size:4.23333311px;font-family:sans-serif;-inkscape-font-specification:'sans-serif, Normal';font-variant-ligatures:normal;font-variant-caps:normal;font-variant-numeric:normal;font-feature-settings:normal;text-align:start;writing-mode:lr-tb;text-anchor:start;stroke-width:0.26458332"
           y="184.3631"
           x="43.121475"
           id="tspan7715"
           sodipodi:role="line">Network</tspan></text>
    </g>
    <text
       xml:space="preserve"
       style="font-style:normal;font-weight:normal;font-size:10.58333302px;line-height:1.25;font-family:sans-serif;letter-spacing:0px;word-spacing:0px;fill:#ffffff;fill-opacity:1;stroke:none;stroke-width:0.26458332"
       x="72.442513"
       y="98.486221"
       id="text8412"><tspan
         sodipodi:role="line"
         id="tspan8410"
         x="72.442513"
         y="98.486221"
         style="fill:#ffffff;stroke-width:0.26458332">NeuroScheme</tspan></text>
    <path
       style="fill:#0065a2;fill-opacity:0.43627451;fill-rule:evenodd;stroke:#333333;stroke-width:1.10748327;stroke-linecap:butt;stroke-linejoin:round;stroke-miterlimit:4;stroke-dasharray:none;stroke-opacity:1"
       inkscape:connector-curvature="0"
       id="path63-5-3-5"
       d="m 117.41817,135.83381 4.3875,-4.44739 4.38749,4.44739 h -2.19376 v 8.06699 h 2.19376 l -4.38749,4.4474 -4.3875,-4.4474 h 2.19374 v -8.06699 z" />
    <path
       style="fill:#0065a2;fill-opacity:0.43627451;fill-rule:evenodd;stroke:#333333;stroke-width:1.10748327;stroke-linecap:butt;stroke-linejoin:round;stroke-miterlimit:4;stroke-dasharray:none;stroke-opacity:1"
       inkscape:connector-curvature="0"
       id="path63-5-3-52"
       d="m 47.866519,143.6659 4.3875,-4.44739 4.38749,4.44739 h -2.19376 v 8.06699 h 2.19376 l -4.38749,4.4474 -4.3875,-4.4474 h 2.19374 v -8.06699 z" />
    <g
       id="g8491"
       transform="translate(48.828163,23.872272)">
      <path
         d="m 133.82023,87.105948 h 21.13334 v 8.55 h -21.13334 z"
         id="path29-8-2"
         inkscape:connector-curvature="0"
         style="fill:#5011a3;fill-opacity:1;fill-rule:evenodd;stroke-width:0.26458332" />
      <text
         xml:space="preserve"
         style="font-style:normal;font-variant:normal;font-weight:normal;font-stretch:normal;font-size:3.52777767px;line-height:1.25;font-family:sans-serif;-inkscape-font-specification:'sans-serif, Normal';font-variant-ligatures:normal;font-variant-caps:normal;font-variant-numeric:normal;font-feature-settings:normal;text-align:start;letter-spacing:0px;word-spacing:0px;writing-mode:lr-tb;text-anchor:start;fill:#ffffff;fill-opacity:1;stroke:none;stroke-width:0.26458332;stroke-opacity:1"
         x="136.48213"
         y="90.436989"
         id="text3171-5-3-8"><tspan
           y="90.436989"
           x="136.48213"
           id="tspan8480"
           sodipodi:role="line">  Acute</tspan><tspan
           y="94.84671"
           x="136.48213"
           id="tspan8482"
           sodipodi:role="line">Recorder</tspan><tspan
           y="99.256432"
           x="136.48213"
           id="tspan8484"
           sodipodi:role="line" /></text>
    </g>
  </g>
</svg>
