<?xml version="1.0" encoding="UTF-8" standalone="no"?>
<!-- Created with Inkscape (http://www.inkscape.org/) -->

<svg
   xmlns:osb="http://www.openswatchbook.org/uri/2009/osb"
   xmlns:dc="http://purl.org/dc/elements/1.1/"
   xmlns:cc="http://creativecommons.org/ns#"
   xmlns:rdf="http://www.w3.org/1999/02/22-rdf-syntax-ns#"
   xmlns:svg="http://www.w3.org/2000/svg"
   xmlns="http://www.w3.org/2000/svg"
   xmlns:sodipodi="http://sodipodi.sourceforge.net/DTD/sodipodi-0.dtd"
   xmlns:inkscape="http://www.inkscape.org/namespaces/inkscape"
   width="210mm"
   height="297mm"
   viewBox="0 0 210 297"
   version="1.1"
   id="svg980"
   inkscape:version="0.92.5 (2060ec1f9f, 2020-04-08)"
   sodipodi:docname="neurotessmesh.svg"
   inkscape:export-filename="/home/felix/Desarrollo/Code/SGA3Documentation/SimVisSuiteDevelopers/source/images/neurotessmesh_deps.png"
   inkscape:export-xdpi="96"
   inkscape:export-ydpi="96">
  <defs
     id="defs974">
    <linearGradient
       id="linearGradient3109"
       osb:paint="solid">
      <stop
         style="stop-color:#000000;stop-opacity:1;"
         offset="0"
         id="stop3107" />
    </linearGradient>
  </defs>
  <sodipodi:namedview
     id="base"
     pagecolor="#ffffff"
     bordercolor="#666666"
     borderopacity="1.0"
     inkscape:pageopacity="0.0"
     inkscape:pageshadow="2"
     inkscape:zoom="1.979899"
     inkscape:cx="401.36933"
     inkscape:cy="595.59269"
     inkscape:document-units="mm"
     inkscape:current-layer="layer1"
     showgrid="false"
     inkscape:window-width="1848"
     inkscape:window-height="1043"
     inkscape:window-x="72"
     inkscape:window-y="0"
     inkscape:window-maximized="1" />
  <metadata
     id="metadata977">
    <rdf:RDF>
      <cc:Work
         rdf:about="">
        <dc:format>image/svg+xml</dc:format>
        <dc:type
           rdf:resource="http://purl.org/dc/dcmitype/StillImage" />
        <dc:title />
      </cc:Work>
    </rdf:RDF>
  </metadata>
  <g
     inkscape:label="Layer 1"
     inkscape:groupmode="layer"
     id="layer1">
    <path
       style="fill:#4bacc6;fill-rule:evenodd;stroke:#000000;stroke-width:0.58168942;stroke-miterlimit:4;stroke-dasharray:none;stroke-opacity:1"
       inkscape:connector-curvature="0"
       id="path35"
       d="M 30.387986,93.706902 H 162.96096 V 117.63328 H 30.387986 Z"
       inkscape:export-xdpi="96"
       inkscape:export-ydpi="96" />
    <g
       id="g3158"
       inkscape:export-xdpi="96"
       inkscape:export-ydpi="96" />
    <g
       id="g3338"
       transform="matrix(0.729,0,0,0.729,-19.774334,24.940914)"
       inkscape:export-xdpi="96"
       inkscape:export-ydpi="96">
      <path
         d="m 89.968149,144.225 h 30.063701 v 8.55 H 89.968149 Z"
         id="path113"
         inkscape:connector-curvature="0"
         style="fill:#eed591;fill-opacity:1;fill-rule:evenodd;stroke-width:0.17508449" />
      <text
         id="text3171"
         y="150.44717"
         x="93.223976"
         style="font-style:normal;font-variant:normal;font-weight:normal;font-stretch:normal;font-size:6.3499999px;line-height:1.25;font-family:sans-serif;-inkscape-font-specification:'sans-serif, Normal';font-variant-ligatures:normal;font-variant-caps:normal;font-variant-numeric:normal;font-feature-settings:normal;text-align:start;letter-spacing:0px;word-spacing:0px;writing-mode:lr-tb;text-anchor:start;fill:#000000;fill-opacity:1;stroke:none;stroke-width:0.26458332"
         xml:space="preserve"><tspan
           style="font-style:normal;font-variant:normal;font-weight:normal;font-stretch:normal;font-size:6.3499999px;font-family:sans-serif;-inkscape-font-specification:'sans-serif, Normal';font-variant-ligatures:normal;font-variant-caps:normal;font-variant-numeric:normal;font-feature-settings:normal;text-align:start;writing-mode:lr-tb;text-anchor:start;stroke-width:0.26458332"
           y="150.44717"
           x="93.223976"
           id="tspan3169"
           sodipodi:role="line">ZeroEQ</tspan></text>
    </g>
    <g
       id="g3330"
       transform="matrix(0.729,0,0,0.729,-19.774334,12.475006)"
       inkscape:export-xdpi="96"
       inkscape:export-ydpi="96">
      <path
         d="m 89.968148,144.225 h 30.063702 v 8.55 H 89.968148 Z"
         id="path113-8"
         inkscape:connector-curvature="0"
         style="fill:#eb91ee;fill-opacity:1;fill-rule:evenodd;stroke-width:0.17508449" />
      <text
         id="text3171-5"
         y="150.15416"
         x="91.146584"
         style="font-style:normal;font-variant:normal;font-weight:normal;font-stretch:normal;font-size:6.3499999px;line-height:1.25;font-family:sans-serif;-inkscape-font-specification:'sans-serif, Normal';font-variant-ligatures:normal;font-variant-caps:normal;font-variant-numeric:normal;font-feature-settings:normal;text-align:start;letter-spacing:0px;word-spacing:0px;writing-mode:lr-tb;text-anchor:start;fill:#000000;fill-opacity:1;stroke:none;stroke-width:0.26458332"
         xml:space="preserve"><tspan
           y="150.15416"
           x="91.146584"
           id="tspan3322"
           sodipodi:role="line">gmrvLex</tspan><tspan
           y="158.09166"
           x="91.146584"
           id="tspan3324"
           sodipodi:role="line" /></text>
    </g>
    <g
       id="g3372"
       transform="matrix(0.729,0,0,0.729,-19.774334,18.707956)"
       inkscape:export-xdpi="96"
       inkscape:export-ydpi="96">
      <path
         d="m 89.96815,144.225 h 30.0637 v 8.55001 h -30.0637 z"
         id="path113-1"
         inkscape:connector-curvature="0"
         style="fill:#91b5ee;fill-opacity:1;fill-rule:evenodd;stroke-width:0.17508449" />
      <text
         id="text3171-59"
         y="150.86729"
         x="96.817551"
         style="font-style:normal;font-variant:normal;font-weight:normal;font-stretch:normal;font-size:6.3499999px;line-height:1.25;font-family:sans-serif;-inkscape-font-specification:'sans-serif, Normal';font-variant-ligatures:normal;font-variant-caps:normal;font-variant-numeric:normal;font-feature-settings:normal;text-align:start;letter-spacing:0px;word-spacing:0px;writing-mode:lr-tb;text-anchor:start;fill:#000000;fill-opacity:1;stroke:none;stroke-width:0.26458332"
         xml:space="preserve"><tspan
           y="150.86729"
           x="96.817551"
           id="tspan3367"
           sodipodi:role="line">Lexis</tspan></text>
    </g>
    <g
       id="g3432"
       transform="matrix(0.729,0,0,0.729,81.470269,13.184643)"
       inkscape:export-xdpi="96"
       inkscape:export-ydpi="96">
      <path
         d="m 90.551195,151.82484 h 21.133335 v 8.55 H 90.551195 Z"
         id="path29-8"
         inkscape:connector-curvature="0"
         style="fill:#1f36e7;fill-opacity:1;fill-rule:evenodd;stroke-width:0.26458332" />
      <text
         xml:space="preserve"
         style="font-style:normal;font-variant:normal;font-weight:normal;font-stretch:normal;font-size:6.3499999px;line-height:1.25;font-family:sans-serif;-inkscape-font-specification:'sans-serif, Normal';font-variant-ligatures:normal;font-variant-caps:normal;font-variant-numeric:normal;font-feature-settings:normal;text-align:start;letter-spacing:0px;word-spacing:0px;writing-mode:lr-tb;text-anchor:start;fill:#ffffff;fill-opacity:1;stroke:none;stroke-width:0.26458332;stroke-opacity:1"
         x="97.271584"
         y="158.04701"
         id="text3171-5-3"><tspan
           y="158.04701"
           x="97.271584"
           id="tspan3427"
           sodipodi:role="line">Qt</tspan></text>
    </g>
    <g
       id="g3469"
       transform="matrix(0.729,0,0,0.729,38.929652,5.635906)"
       inkscape:export-xdpi="96"
       inkscape:export-ydpi="96">
      <path
         d="m 127.77262,153.62976 h 21.13333 v 8.55 h -21.13333 z"
         id="path29-8-4"
         inkscape:connector-curvature="0"
         style="fill:#e7ac1f;fill-opacity:1;fill-rule:evenodd;stroke-width:0.26458332" />
      <text
         xml:space="preserve"
         style="font-style:normal;font-variant:normal;font-weight:normal;font-stretch:normal;font-size:6.3499999px;line-height:1.25;font-family:sans-serif;-inkscape-font-specification:'sans-serif, Normal';font-variant-ligatures:normal;font-variant-caps:normal;font-variant-numeric:normal;font-feature-settings:normal;text-align:start;letter-spacing:0px;word-spacing:0px;writing-mode:lr-tb;text-anchor:start;fill:#ffffff;fill-opacity:1;stroke:none;stroke-width:0.26458332;stroke-opacity:1"
         x="129.1414"
         y="160.17439"
         id="text3171-5-3-4"><tspan
           y="160.17439"
           x="129.1414"
           id="tspan3461"
           sodipodi:role="line">Boost</tspan><tspan
           y="168.11189"
           x="129.1414"
           id="tspan3463"
           sodipodi:role="line" /></text>
    </g>
    <path
       style="fill:#951717;fill-opacity:1;fill-rule:evenodd;stroke-width:0.11981525"
       inkscape:connector-curvature="0"
       id="path113-8-3"
       d="m 112.87982,117.61503 h 19.31274 v 6.23295 h -19.31274 z"
       inkscape:export-xdpi="96"
       inkscape:export-ydpi="96" />
    <text
       xml:space="preserve"
       style="font-style:normal;font-variant:normal;font-weight:normal;font-stretch:normal;font-size:4.62915039px;line-height:1.25;font-family:sans-serif;-inkscape-font-specification:'sans-serif, Normal';font-variant-ligatures:normal;font-variant-caps:normal;font-variant-numeric:normal;font-feature-settings:normal;text-align:start;letter-spacing:0px;word-spacing:0px;writing-mode:lr-tb;text-anchor:start;fill:#ffffff;fill-opacity:1;stroke:none;stroke-width:0.19288123"
       x="116.05696"
       y="122.45727"
       id="text3171-5-1"
       inkscape:export-xdpi="96"
       inkscape:export-ydpi="96"><tspan
         sodipodi:role="line"
         id="tspan8583"
         x="116.05696"
         y="122.45727"
         style="stroke-width:0.19288123">SimIL</tspan><tspan
         sodipodi:role="line"
         id="tspan8585"
         x="116.05696"
         y="128.24371"
         style="stroke-width:0.19288123" /><tspan
         sodipodi:role="line"
         id="tspan8587"
         x="116.05696"
         y="134.03015"
         style="stroke-width:0.19288123" /></text>
    <g
       id="g3558"
       transform="matrix(0.729,0,0,0.729,1.8300026,-2.7851801)"
       inkscape:export-xdpi="96"
       inkscape:export-ydpi="96">
      <path
         d="m 125.85877,165.15804 h 26.47293 v 8.55 h -26.47293 z"
         id="path113-8-3-6"
         inkscape:connector-curvature="0"
         style="fill:#17952a;fill-opacity:1;fill-rule:evenodd;stroke-width:0.16429617" />
      <text
         id="text3171-5-1-2"
         y="171.80034"
         x="130.73296"
         style="font-style:normal;font-variant:normal;font-weight:normal;font-stretch:normal;font-size:6.3499999px;line-height:1.25;font-family:sans-serif;-inkscape-font-specification:'sans-serif, Normal';font-variant-ligatures:normal;font-variant-caps:normal;font-variant-numeric:normal;font-feature-settings:normal;text-align:start;letter-spacing:0px;word-spacing:0px;writing-mode:lr-tb;text-anchor:start;fill:#ffffff;fill-opacity:1;stroke:none;stroke-width:0.26458332"
         xml:space="preserve"><tspan
           y="171.80034"
           x="130.73296"
           id="tspan3550"
           sodipodi:role="line">Brion</tspan><tspan
           y="179.73784"
           x="130.73296"
           id="tspan3552"
           sodipodi:role="line" /></text>
    </g>
    <g
       id="g3613"
       transform="matrix(0.729,0,0,0.729,-82.303662,10.854286)"
       inkscape:export-xdpi="96"
       inkscape:export-ydpi="96">
      <path
         d="m 154.60893,146.44821 h 21.13333 v 8.55 h -21.13333 z"
         id="path29-8-4-4"
         inkscape:connector-curvature="0"
         style="fill:#2be71f;fill-opacity:1;fill-rule:evenodd;stroke-width:0.26458332" />
      <text
         xml:space="preserve"
         style="font-style:normal;font-variant:normal;font-weight:normal;font-stretch:normal;font-size:6.3499999px;line-height:1.25;font-family:sans-serif;-inkscape-font-specification:'sans-serif, Normal';font-variant-ligatures:normal;font-variant-caps:normal;font-variant-numeric:normal;font-feature-settings:normal;text-align:start;letter-spacing:0px;word-spacing:0px;writing-mode:lr-tb;text-anchor:start;fill:#ffffff;fill-opacity:1;stroke:none;stroke-width:0.26458332;stroke-opacity:1"
         x="156.26451"
         y="152.47504"
         id="text3171-5-3-4-1"><tspan
           y="152.47504"
           x="156.26451"
           id="tspan3608"
           sodipodi:role="line">Eigen</tspan></text>
    </g>
    <g
       id="g3856"
       transform="matrix(0.729,0,0,0.729,14.434095,28.676454)"
       inkscape:export-xdpi="96"
       inkscape:export-ydpi="96">
      <path
         d="m 110.17835,154.41425 v 0 c 0,0.86874 5.20573,1.57298 11.62732,1.57298 6.42159,0 11.62732,-0.70424 11.62732,-1.57298 v 9.43787 c 0,0.86873 -5.20573,1.57298 -11.62732,1.57298 -6.42159,0 -11.62732,-0.70425 -11.62732,-1.57298 z"
         id="path41"
         inkscape:connector-curvature="0"
         style="fill:#4f81bd;fill-rule:evenodd;stroke-width:0.22399487" />
      <path
         d="m 110.17835,154.41425 v 0 c 0,-0.86873 5.20573,-1.57298 11.62732,-1.57298 6.42159,0 11.62732,0.70425 11.62732,1.57298 v 0 c 0,0.86874 -5.20573,1.57298 -11.62732,1.57298 -6.42159,0 -11.62732,-0.70424 -11.62732,-1.57298 z"
         id="path43"
         inkscape:connector-curvature="0"
         style="fill:#95b3d7;fill-rule:evenodd;stroke-width:0.22399487" />
      <path
         d="m 133.43299,154.41425 v 0 c 0,0.86874 -5.20573,1.57298 -11.62732,1.57298 -6.42159,0 -11.62732,-0.70424 -11.62732,-1.57298 v 0 c 0,-0.86873 5.20573,-1.57298 11.62732,-1.57298 6.42159,0 11.62732,0.70425 11.62732,1.57298 v 9.43787 c 0,0.86873 -5.20573,1.57298 -11.62732,1.57298 -6.42159,0 -11.62732,-0.70425 -11.62732,-1.57298 v -9.43787"
         id="path45"
         inkscape:connector-curvature="0"
         style="fill:#000000;fill-opacity:0;fill-rule:evenodd;stroke-width:0.22399487" />
      <path
         d="m 133.43299,154.41425 v 0 c 0,0.86874 -5.20573,1.57298 -11.62732,1.57298 -6.42159,0 -11.62732,-0.70424 -11.62732,-1.57298 v 0 c 0,-0.86873 5.20573,-1.57298 11.62732,-1.57298 6.42159,0 11.62732,0.70425 11.62732,1.57298 v 9.43787 c 0,0.86873 -5.20573,1.57298 -11.62732,1.57298 -6.42159,0 -11.62732,-0.70425 -11.62732,-1.57298 v -9.43787"
         id="path47"
         inkscape:connector-curvature="0"
         style="fill:#8fbbf3;fill-opacity:1;fill-rule:evenodd;stroke:#333333;stroke-width:0.25397846;stroke-linecap:butt;stroke-linejoin:round" />
      <path
         d="m 114.86053,160.72717 q 0,0.12457 -0.031,0.23135 -0.031,0.10677 -0.0895,0.19219 -0.055,0.0854 -0.13423,0.14948 -0.0792,0.0641 -0.17896,0.11034 -0.0998,0.0427 -0.21339,0.0641 -0.11358,0.0213 -0.25813,0.0213 h -0.67801 q -0.0482,0 -0.0895,-0.032 -0.0413,-0.032 -0.0413,-0.1139 v -2.3953 q 0,-0.0783 0.0413,-0.11033 0.0413,-0.032 0.0895,-0.032 h 0.58853 q 0.23403,0 0.38202,0.0463 0.148,0.0427 0.24781,0.13168 0.0998,0.0854 0.14798,0.21356 0.0516,0.12456 0.0516,0.28473 0,0.0961 -0.0241,0.18507 -0.0207,0.0854 -0.0654,0.16016 -0.0413,0.0712 -0.1067,0.13169 -0.0653,0.0569 -0.15143,0.0961 0.10669,0.0178 0.19962,0.0747 0.0929,0.0534 0.16175,0.13881 0.0688,0.0854 0.11014,0.19931 0.0413,0.1139 0.0413,0.2527 z m -0.51969,-1.20299 q 0,-0.0961 -0.0276,-0.1744 -0.0276,-0.0819 -0.0826,-0.13525 -0.0551,-0.0534 -0.148,-0.0819 -0.0895,-0.032 -0.23747,-0.032 h -0.35793 v 0.86843 h 0.39579 q 0.13422,0 0.21682,-0.0356 0.0826,-0.0356 0.13423,-0.0961 0.0551,-0.0605 0.0792,-0.14236 0.0276,-0.0819 0.0276,-0.17085 z m 0.15488,1.22435 q 0,-0.12101 -0.0379,-0.21355 -0.0379,-0.0925 -0.11013,-0.15305 -0.0689,-0.0641 -0.17553,-0.0961 -0.10669,-0.032 -0.27189,-0.032 h -0.413 v 0.94674 h 0.50248 q 0.12047,0 0.2065,-0.0285 0.0895,-0.0285 0.15488,-0.0854 0.0688,-0.0569 0.10669,-0.14237 0.0379,-0.0854 0.0379,-0.19575 z m 1.17867,0.69403 q 0,0.0178 -0.007,0.032 -0.007,0.0107 -0.0276,0.0178 -0.0172,0.007 -0.0482,0.0107 -0.031,0.003 -0.0826,0.003 -0.0482,0 -0.0826,-0.003 -0.031,-0.003 -0.0516,-0.0107 -0.0172,-0.007 -0.0241,-0.0178 -0.007,-0.0142 -0.007,-0.032 v -2.76902 q 0,-0.0178 0.007,-0.0285 0.007,-0.0142 0.0241,-0.0213 0.0206,-0.0107 0.0516,-0.0142 0.0344,-0.003 0.0826,-0.003 0.0516,0 0.0826,0.003 0.031,0.003 0.0482,0.0142 0.0207,0.007 0.0276,0.0213 0.007,0.0107 0.007,0.0285 z m 2.16142,0 q 0,0.0178 -0.007,0.032 -0.007,0.0107 -0.0276,0.0178 -0.0172,0.007 -0.0482,0.0107 -0.0276,0.003 -0.0688,0.003 -0.0447,0 -0.0758,-0.003 -0.0275,-0.003 -0.0447,-0.0107 -0.0172,-0.007 -0.0241,-0.0178 -0.007,-0.0142 -0.007,-0.032 v -0.24558 q -0.15488,0.17796 -0.30632,0.25981 -0.14799,0.0783 -0.30286,0.0783 -0.17897,0 -0.30288,-0.0605 -0.12388,-0.064 -0.1996,-0.17083 -0.0757,-0.10678 -0.11014,-0.24915 -0.0344,-0.14236 -0.0344,-0.34523 v -1.13182 q 0,-0.0178 0.007,-0.0285 0.007,-0.0107 0.0276,-0.0214 0.0206,-0.0107 0.0516,-0.0107 0.0344,-0.003 0.0826,-0.003 0.0482,0 0.0792,0.003 0.031,0 0.0482,0.0107 0.0207,0.0107 0.0276,0.0214 0.0103,0.0107 0.0103,0.0285 v 1.08555 q 0,0.16372 0.0206,0.26337 0.0241,0.0997 0.0723,0.17084 0.0482,0.0677 0.12045,0.10678 0.0723,0.0356 0.16864,0.0356 0.1239,0 0.24781,-0.089 0.1239,-0.0925 0.26156,-0.2705 v -1.30265 q 0,-0.0178 0.007,-0.0285 0.007,-0.0107 0.0276,-0.0213 0.0206,-0.0107 0.0516,-0.0107 0.031,-0.003 0.0792,-0.003 0.0482,0 0.0792,0.003 0.0344,0 0.0516,0.0107 0.0172,0.0107 0.0276,0.0213 0.0103,0.0107 0.0103,0.0285 z m 2.15213,-1.01435 q 0,0.0819 -0.0413,0.11744 -0.0379,0.032 -0.086,0.032 h -1.18394 q 0,0.1566 0.0276,0.28117 0.031,0.12457 0.0998,0.21355 0.0723,0.089 0.18241,0.13881 0.11358,0.0462 0.27534,0.0462 0.13078,0 0.23059,-0.0214 0.0998,-0.0213 0.17208,-0.0462 0.0757,-0.0285 0.12046,-0.0499 0.0482,-0.0249 0.0723,-0.0249 0.0137,0 0.0241,0.007 0.0137,0.007 0.0172,0.0249 0.007,0.0142 0.0103,0.0392 0.003,0.0249 0.003,0.0641 0,0.0249 -0.003,0.0462 0,0.0178 -0.003,0.0356 -0.003,0.0142 -0.0103,0.0285 -0.007,0.0107 -0.0206,0.0214 -0.0103,0.0107 -0.0654,0.0392 -0.0516,0.0249 -0.13766,0.0498 -0.0861,0.0249 -0.19962,0.0427 -0.11358,0.0213 -0.24092,0.0213 -0.22371,0 -0.39235,-0.0641 -0.16865,-0.064 -0.28223,-0.18864 -0.11357,-0.12813 -0.17208,-0.31676 -0.0585,-0.1922 -0.0585,-0.44846 0,-0.23846 0.0585,-0.43066 0.0619,-0.19219 0.17552,-0.32388 0.11357,-0.13525 0.27189,-0.20643 0.16176,-0.0747 0.36138,-0.0747 0.21338,0 0.36138,0.0712 0.15143,0.0712 0.24779,0.19219 0.0964,0.11745 0.14111,0.28117 0.0447,0.16017 0.0447,0.34169 z m -0.33384,-0.0997 q 0.007,-0.2705 -0.11702,-0.42354 -0.12046,-0.15305 -0.35794,-0.15305 -0.12389,0 -0.21681,0.0498 -0.0895,0.0462 -0.15144,0.12457 -0.0619,0.0783 -0.0964,0.18508 -0.0344,0.10321 -0.0379,0.2171 z m 2.60909,0.78657 q 0,0.0356 -0.003,0.0605 0,0.0249 -0.007,0.0427 -0.003,0.0178 -0.0137,0.032 -0.007,0.0142 -0.0276,0.0356 -0.0172,0.0213 -0.0826,0.064 -0.0654,0.0427 -0.16176,0.0854 -0.0929,0.0392 -0.21682,0.0641 -0.1239,0.0285 -0.26846,0.0285 -0.25468,0 -0.45774,-0.0854 -0.20305,-0.089 -0.34759,-0.25625 -0.14455,-0.17085 -0.22027,-0.41998 -0.0757,-0.25271 -0.0757,-0.57659 0,-0.33456 0.0826,-0.59438 0.0826,-0.26337 0.23059,-0.44489 0.15144,-0.18151 0.36138,-0.27761 0.20994,-0.0961 0.46462,-0.0961 0.11358,0 0.22028,0.0249 0.10668,0.0213 0.19617,0.0534 0.0895,0.032 0.15831,0.0783 0.0723,0.0427 0.0998,0.0712 0.0276,0.0249 0.0344,0.0427 0.007,0.0142 0.0103,0.0356 0.007,0.0178 0.0103,0.0462 0.003,0.0249 0.003,0.0605 0,0.0427 -0.003,0.0712 -0.003,0.0285 -0.0137,0.0498 -0.007,0.0178 -0.0172,0.0285 -0.0103,0.0107 -0.0276,0.0107 -0.0276,0 -0.0792,-0.0392 -0.0482,-0.0427 -0.12734,-0.0925 -0.0792,-0.0498 -0.19275,-0.089 -0.11357,-0.0392 -0.27188,-0.0392 -0.17208,0 -0.31664,0.0712 -0.14111,0.0712 -0.24092,0.20999 -0.0998,0.13881 -0.15487,0.34168 -0.0551,0.19931 -0.0551,0.45557 0,0.25626 0.0516,0.45201 0.0551,0.19576 0.15488,0.32744 0.0998,0.13169 0.24436,0.19932 0.14455,0.0676 0.32696,0.0676 0.15487,0 0.26845,-0.0392 0.11702,-0.0392 0.19617,-0.089 0.0826,-0.0498 0.13423,-0.089 0.0516,-0.0392 0.0826,-0.0392 0.0137,0 0.0241,0.007 0.0103,0.003 0.0137,0.0213 0.007,0.0178 0.0103,0.0499 0.003,0.032 0.003,0.0783 z m 2.09819,-0.62642 q 0,0.2278 -0.0585,0.41999 -0.0585,0.19219 -0.17553,0.331 -0.11358,0.1388 -0.2891,0.2171 -0.17209,0.0783 -0.39924,0.0783 -0.2237,0 -0.3889,-0.0677 -0.16521,-0.0676 -0.27534,-0.19931 -0.11013,-0.13169 -0.1652,-0.31676 -0.0551,-0.18863 -0.0551,-0.42354 0,-0.22779 0.0585,-0.41998 0.0585,-0.19219 0.17209,-0.331 0.11702,-0.13881 0.2891,-0.21711 0.17208,-0.0783 0.40268,-0.0783 0.2237,0 0.3889,0.0712 0.16521,0.0676 0.27534,0.19931 0.11013,0.12814 0.1652,0.31676 0.0551,0.18509 0.0551,0.41999 z m -0.34761,0.0249 q 0,-0.15303 -0.0276,-0.28828 -0.0276,-0.13525 -0.0895,-0.23491 -0.0619,-0.10321 -0.16865,-0.16016 -0.10669,-0.0605 -0.26501,-0.0605 -0.14799,0 -0.25468,0.0534 -0.10325,0.0534 -0.17208,0.15304 -0.0654,0.0997 -0.0998,0.2349 -0.0344,0.1317 -0.0344,0.29185 0,0.15305 0.0276,0.2883 0.0276,0.13524 0.0895,0.23846 0.0653,0.0996 0.17209,0.16017 0.10669,0.0569 0.26501,0.0569 0.14455,0 0.24779,-0.0534 0.1067,-0.0534 0.17553,-0.14949 0.0688,-0.0997 0.0998,-0.23491 0.0344,-0.13524 0.0344,-0.29541 z m 2.39076,0.92895 q 0,0.0178 -0.0103,0.032 -0.007,0.0107 -0.0241,0.0178 -0.0172,0.007 -0.0516,0.0107 -0.031,0.003 -0.0792,0.003 -0.0482,0 -0.0826,-0.003 -0.031,-0.003 -0.0516,-0.0107 -0.0172,-0.007 -0.0241,-0.0178 -0.007,-0.0142 -0.007,-0.032 v -1.09266 q 0,-0.16016 -0.0241,-0.25626 -0.0241,-0.0997 -0.0723,-0.16729 -0.0447,-0.0712 -0.12047,-0.10677 -0.0723,-0.0392 -0.16864,-0.0392 -0.1239,0 -0.24779,0.0925 -0.1239,0.089 -0.26158,0.26694 v 1.30265 q 0,0.0178 -0.007,0.032 -0.007,0.0107 -0.0275,0.0178 -0.0172,0.007 -0.0482,0.0107 -0.031,0.003 -0.0826,0.003 -0.0482,0 -0.0826,-0.003 -0.031,-0.003 -0.0516,-0.0107 -0.0172,-0.007 -0.0241,-0.0178 -0.007,-0.0142 -0.007,-0.032 v -1.865 q 0,-0.0178 0.007,-0.0285 0.007,-0.0107 0.0241,-0.0214 0.0172,-0.0107 0.0447,-0.0107 0.031,-0.003 0.0757,-0.003 0.0447,0 0.0723,0.003 0.031,0 0.0447,0.0107 0.0172,0.0107 0.0241,0.0214 0.007,0.0107 0.007,0.0285 v 0.24559 q 0.15143,-0.17441 0.30286,-0.25626 0.15144,-0.0854 0.30632,-0.0854 0.18241,0 0.30286,0.0641 0.1239,0.0641 0.19962,0.17084 0.0792,0.10678 0.11013,0.24914 0.0344,0.13881 0.0344,0.33812 z m 1.57048,-2.63378 q 0,0.0392 -0.007,0.0641 -0.003,0.0213 -0.0103,0.0392 -0.003,0.0142 -0.0103,0.0214 -0.007,0.003 -0.0207,0.003 -0.0137,0 -0.0344,-0.0107 -0.0207,-0.0107 -0.0516,-0.0213 -0.031,-0.0107 -0.0723,-0.0178 -0.0413,-0.0107 -0.0929,-0.0107 -0.0758,0 -0.12734,0.0249 -0.0516,0.0249 -0.086,0.0783 -0.031,0.0498 -0.0447,0.13525 -0.0137,0.0854 -0.0137,0.20286 v 0.20644 h 0.40267 q 0.0172,0 0.0276,0.007 0.0103,0.007 0.0206,0.0249 0.0103,0.0178 0.0137,0.0462 0.003,0.0249 0.003,0.064 0,0.0747 -0.0172,0.10677 -0.0172,0.032 -0.0482,0.032 h -0.40267 v 1.6372 q 0,0.0178 -0.0103,0.032 -0.007,0.0107 -0.0276,0.0178 -0.0172,0.007 -0.0482,0.0107 -0.031,0.003 -0.0792,0.003 -0.0482,0 -0.0826,-0.003 -0.031,-0.003 -0.0516,-0.0107 -0.0172,-0.007 -0.0276,-0.0178 -0.007,-0.0142 -0.007,-0.032 v -1.6372 h -0.25469 q -0.031,0 -0.0482,-0.032 -0.0137,-0.032 -0.0137,-0.10677 0,-0.0392 0.003,-0.064 0.003,-0.0285 0.0103,-0.0462 0.0103,-0.0178 0.0206,-0.0249 0.0137,-0.007 0.0276,-0.007 h 0.25469 v -0.19576 q 0,-0.19219 0.0344,-0.331 0.0379,-0.14237 0.11013,-0.23135 0.0723,-0.089 0.17897,-0.13168 0.11014,-0.0427 0.25812,-0.0427 0.0723,0 0.13768,0.0142 0.0653,0.0107 0.0998,0.0285 0.0379,0.0142 0.0482,0.0285 0.0137,0.0107 0.0206,0.032 0.0103,0.0178 0.0137,0.0462 0.003,0.0285 0.003,0.0676 z m 0.59328,2.63378 q 0,0.0178 -0.007,0.032 -0.007,0.0107 -0.0276,0.0178 -0.0172,0.007 -0.0482,0.0107 -0.031,0.003 -0.0826,0.003 -0.0482,0 -0.0826,-0.003 -0.031,-0.003 -0.0516,-0.0107 -0.0172,-0.007 -0.0241,-0.0178 -0.007,-0.0142 -0.007,-0.032 v -1.865 q 0,-0.0142 0.007,-0.0249 0.007,-0.0142 0.0241,-0.0214 0.0206,-0.0107 0.0516,-0.0142 0.0344,-0.003 0.0826,-0.003 0.0516,0 0.0826,0.003 0.031,0.003 0.0482,0.0142 0.0206,0.007 0.0276,0.0214 0.007,0.0107 0.007,0.0249 z m 0.0379,-2.49853 q 0,0.12101 -0.0447,0.16728 -0.0413,0.0427 -0.16176,0.0427 -0.11357,0 -0.15832,-0.0427 -0.0413,-0.0427 -0.0413,-0.16016 0,-0.12101 0.0413,-0.16372 0.0447,-0.0462 0.1652,-0.0462 0.11358,0 0.15488,0.0427 0.0447,0.0427 0.0447,0.16017 z m 2.08569,0.71895 q 0,0.0712 -0.0206,0.10322 -0.0172,0.032 -0.0482,0.032 h -0.25812 q 0.0688,0.0747 0.0964,0.16728 0.0276,0.089 0.0276,0.18507 0,0.16372 -0.0516,0.2883 -0.0482,0.12457 -0.1411,0.20999 -0.0929,0.0854 -0.22371,0.13168 -0.12734,0.0463 -0.28222,0.0463 -0.11013,0 -0.20994,-0.0285 -0.0998,-0.032 -0.15488,-0.0782 -0.0344,0.0356 -0.0585,0.0854 -0.0241,0.0462 -0.0241,0.11034 0,0.0712 0.0654,0.12101 0.0654,0.0462 0.17552,0.0498 l 0.47152,0.0214 q 0.13422,0.003 0.24436,0.0392 0.11357,0.032 0.19617,0.0961 0.0826,0.0641 0.12735,0.15661 0.0482,0.0925 0.0482,0.21355 0,0.12813 -0.055,0.24558 -0.0516,0.11745 -0.15832,0.20287 -0.10669,0.089 -0.27533,0.13881 -0.16521,0.0534 -0.39235,0.0534 -0.21683,0 -0.37171,-0.0392 -0.15143,-0.0392 -0.25124,-0.10677 -0.0964,-0.064 -0.14111,-0.1566 -0.0447,-0.0925 -0.0447,-0.19931 0,-0.0712 0.0137,-0.13525 0.0172,-0.0641 0.0482,-0.12101 0.0344,-0.0569 0.0826,-0.11034 0.0516,-0.0534 0.11701,-0.10677 -0.0998,-0.0499 -0.14798,-0.12813 -0.0447,-0.0819 -0.0447,-0.17084 0,-0.12813 0.0482,-0.22779 0.0516,-0.0997 0.1239,-0.17796 -0.0619,-0.0747 -0.0998,-0.17083 -0.0344,-0.0997 -0.0344,-0.23491 0,-0.16016 0.0516,-0.28473 0.055,-0.12813 0.14456,-0.21355 0.0929,-0.089 0.2237,-0.13525 0.13079,-0.0462 0.28222,-0.0462 0.0826,0 0.15143,0.0107 0.0723,0.007 0.13423,0.0249 h 0.54722 q 0.0344,0 0.0516,0.0356 0.0172,0.032 0.0172,0.10322 z m -0.51969,0.49116 q 0,-0.19219 -0.10326,-0.29897 -0.0998,-0.10677 -0.28565,-0.10677 -0.0964,0 -0.16864,0.0356 -0.0688,0.032 -0.11702,0.089 -0.0482,0.057 -0.0723,0.13525 -0.0207,0.0747 -0.0207,0.15661 0,0.18507 0.0998,0.29185 0.10325,0.10677 0.28566,0.10677 0.0964,0 0.16864,-0.032 0.0723,-0.032 0.12046,-0.089 0.0482,-0.0569 0.0688,-0.13169 0.0241,-0.0747 0.0241,-0.1566 z m 0.16864,1.47706 q 0,-0.11746 -0.0964,-0.18152 -0.0964,-0.0677 -0.25813,-0.0712 l -0.46806,-0.0178 q -0.0654,0.0534 -0.1067,0.0997 -0.0379,0.0462 -0.0619,0.089 -0.0241,0.0427 -0.0344,0.0819 -0.0103,0.0427 -0.0103,0.0854 0,0.13525 0.13078,0.20287 0.13423,0.0712 0.3717,0.0712 0.15143,0 0.25124,-0.032 0.10326,-0.0285 0.16521,-0.0783 0.0619,-0.0498 0.0895,-0.1139 0.0276,-0.0641 0.0276,-0.13525 z"
         id="path49"
         inkscape:connector-curvature="0"
         style="fill:#000000;fill-opacity:1;fill-rule:nonzero;stroke-width:0.22399487" />
    </g>
    <path
       style="fill:#0065a2;fill-opacity:0.43627451;fill-rule:evenodd;stroke:#333333;stroke-width:0.80735528;stroke-linecap:butt;stroke-linejoin:round;stroke-miterlimit:4;stroke-dasharray:none;stroke-opacity:1"
       inkscape:connector-curvature="0"
       id="path63-5-3"
       d="m 119.33069,134.80839 3.19848,-3.24215 3.19849,3.24215 h -1.59925 v 5.88083 h 1.59925 l -3.19849,3.24216 -3.19848,-3.24216 h 1.59924 v -5.88083 z"
       inkscape:export-xdpi="96"
       inkscape:export-ydpi="96" />
    <path
       style="fill:#4f81bd;fill-rule:evenodd;stroke-width:0.16329226"
       inkscape:connector-curvature="0"
       id="path41-8"
       d="m 114.05285,147.03091 v 0 c 0,0.63331 3.79498,1.14671 8.47632,1.14671 4.68135,0 8.47632,-0.5134 8.47632,-1.14671 v 6.88022 c 0,0.63329 -3.79497,1.14669 -8.47632,1.14669 -4.68134,0 -8.47632,-0.5134 -8.47632,-1.14669 z"
       inkscape:export-xdpi="96"
       inkscape:export-ydpi="96" />
    <path
       style="fill:#95b3d7;fill-rule:evenodd;stroke-width:0.16329226"
       inkscape:connector-curvature="0"
       id="path43-9"
       d="m 114.05285,147.03091 v 0 c 0,-0.63331 3.79498,-1.14669 8.47632,-1.14669 4.68135,0 8.47632,0.51338 8.47632,1.14669 v 0 c 0,0.63331 -3.79497,1.14671 -8.47632,1.14671 -4.68134,0 -8.47632,-0.5134 -8.47632,-1.14671 z"
       inkscape:export-xdpi="96"
       inkscape:export-ydpi="96" />
    <path
       style="fill:#000000;fill-opacity:0;fill-rule:evenodd;stroke-width:0.16329226"
       inkscape:connector-curvature="0"
       id="path45-7"
       d="m 131.00549,147.03091 v 0 c 0,0.63331 -3.79497,1.14671 -8.47632,1.14671 -4.68134,0 -8.47632,-0.5134 -8.47632,-1.14671 v 0 c 0,-0.63331 3.79498,-1.14669 8.47632,-1.14669 4.68135,0 8.47632,0.51338 8.47632,1.14669 v 6.88022 c 0,0.63329 -3.79497,1.14669 -8.47632,1.14669 -4.68134,0 -8.47632,-0.5134 -8.47632,-1.14669 v -6.88022"
       inkscape:export-xdpi="96"
       inkscape:export-ydpi="96" />
    <path
       style="fill:#8fbbf3;fill-opacity:1;fill-rule:evenodd;stroke:#333333;stroke-width:0.1851503;stroke-linecap:butt;stroke-linejoin:round"
       inkscape:connector-curvature="0"
       id="path47-7"
       d="m 131.00549,147.03091 v 0 c 0,0.63331 -3.79497,1.14671 -8.47632,1.14671 -4.68134,0 -8.47632,-0.5134 -8.47632,-1.14671 v 0 c 0,-0.63331 3.79498,-1.14669 8.47632,-1.14669 4.68135,0 8.47632,0.51338 8.47632,1.14669 v 6.88022 c 0,0.63329 -3.79497,1.14669 -8.47632,1.14669 -4.68134,0 -8.47632,-0.5134 -8.47632,-1.14669 v -6.88022"
       inkscape:export-xdpi="96"
       inkscape:export-ydpi="96" />
    <text
       xml:space="preserve"
       style="font-style:normal;font-variant:normal;font-weight:normal;font-stretch:normal;font-size:2.57174993px;line-height:1.25;font-family:sans-serif;-inkscape-font-specification:'sans-serif, Normal';font-variant-ligatures:normal;font-variant-caps:normal;font-variant-numeric:normal;font-feature-settings:normal;text-align:start;letter-spacing:0px;word-spacing:0px;writing-mode:lr-tb;text-anchor:start;fill:#000000;fill-opacity:1;stroke:none;stroke-width:0.19288123"
       x="119.00055"
       y="152.27037"
       id="text3925"
       inkscape:export-xdpi="96"
       inkscape:export-ydpi="96"><tspan
         sodipodi:role="line"
         id="tspan10305"
         x="119.00055"
         y="152.27037">HDF5</tspan></text>
    <g
       id="g7735"
       transform="matrix(0.729,0,0,0.729,18.745502,36.711909)"
       inkscape:export-xdpi="96"
       inkscape:export-ydpi="96">
      <g
         id="g854"
         transform="matrix(0.2084432,0,0,0.20844318,41.72811,158.85454)">
        <path
           inkscape:connector-curvature="0"
           style="fill:#222222;stroke:#222222"
           d="m 14,91 v 4 c 0,0 -2,0 -3,0 -1,0 -2,2 -2,2 1,0 18,0 19,0 0,0 -1,-2 -2,-2 -1,0 -3,0 -3,0 v -4"
           id="path2" />
        <path
           inkscape:connector-curvature="0"
           style="fill:#cccccc;stroke:#000000;stroke-width:2px;stroke-linecap:butt"
           d="m 2.1,89 c 0,-5 0,-16 0,-20 0,-1 0,-3 1.9,-3 3.9,0 29,0 31,0 2,0 2,2 2,4 0,4 0,17 0,19 0,1 0,2 -3,2 C 32,91 6,91 4,91 2.1,91 2.1,89 2.1,89 Z"
           id="path4" />
        <path
           inkscape:connector-curvature="0"
           style="fill:#333333;stroke:#cccccc"
           d="M 4,68 H 35 V 89 H 4 Z"
           id="path6" />
        <path
           inkscape:connector-curvature="0"
           style="fill:#222222;stroke:#222222"
           d="m 76,91 v 4 c 0,0 -2,0 -3,0 -1,0 -2,2 -2,2 1,0 19,0 20,0 0,0 -1,-2 -2,-2 -1,0 -3,0 -3,0 v -4"
           id="path8" />
        <path
           inkscape:connector-curvature="0"
           style="fill:#cccccc;stroke:#000000;stroke-width:2px;stroke-linecap:butt"
           d="m 63,89 c 0,-5 0,-16 0,-20 0,-1 0,-3 2,-3 4,0 29,0 31,0 2,0 2,2 2,4 0,4 0,17 0,19 0,1 0,2 -3,2 -2,0 -28,0 -30,0 -2,0 -2,-2 -2,-2 z"
           id="path10" />
        <path
           inkscape:connector-curvature="0"
           style="fill:#333333;stroke:#cccccc"
           d="M 65,68 H 96 V 89 H 65 Z"
           id="path12" />
        <path
           inkscape:connector-curvature="0"
           style="fill:#222222;stroke:#222222"
           d="m 44,30 v 4 c 0,0 -2,0 -3,0 -1,0 -2,2 -2,2 1,0 19,0 20,0 0,0 -1,-2 -2,-2 -1,0 -3,0 -3,0 v -4"
           id="path14" />
        <path
           inkscape:connector-curvature="0"
           style="fill:#cccccc;stroke:#000000;stroke-width:2px;stroke-linecap:butt"
           d="m 32,28 c 0,-5 0,-16 0,-20 0,-1 0,-3 2,-3 4,0 29,0 31,0 2,0 2,2 2,4 0,4 0,17 0,19 0,1 0,2 -3,2 -2,0 -28,0 -30,0 -2,0 -2,-2 -2,-2 z"
           id="path16" />
        <path
           inkscape:connector-curvature="0"
           style="fill:#333333;stroke:#cccccc"
           d="M 34,7 H 65 V 28 H 34 Z"
           id="path18" />
        <path
           inkscape:connector-curvature="0"
           style="fill:none;stroke:#222222;stroke-width:4"
           d="M 2,51 H 20 V 64 51 H 98 80 V 64 51 H 49 V 37"
           id="path20" />
        <circle
           r="5"
           cx="49"
           cy="51"
           style="fill:#222222"
           id="ellipse22" />
        <circle
           r="5"
           cx="20"
           cy="51"
           style="fill:#222222"
           id="ellipse24" />
        <circle
           r="5"
           cx="80"
           cy="51"
           style="fill:#222222"
           id="ellipse26" />
      </g>
      <text
         id="text7717"
         y="184.3631"
         x="43.121475"
         style="font-style:normal;font-variant:normal;font-weight:normal;font-stretch:normal;font-size:4.23333311px;line-height:1.25;font-family:sans-serif;-inkscape-font-specification:'sans-serif, Normal';font-variant-ligatures:normal;font-variant-caps:normal;font-variant-numeric:normal;font-feature-settings:normal;text-align:start;letter-spacing:0px;word-spacing:0px;writing-mode:lr-tb;text-anchor:start;fill:#000000;fill-opacity:1;stroke:none;stroke-width:0.26458332"
         xml:space="preserve"><tspan
           style="font-style:normal;font-variant:normal;font-weight:normal;font-stretch:normal;font-size:4.23333311px;font-family:sans-serif;-inkscape-font-specification:'sans-serif, Normal';font-variant-ligatures:normal;font-variant-caps:normal;font-variant-numeric:normal;font-feature-settings:normal;text-align:start;writing-mode:lr-tb;text-anchor:start;stroke-width:0.26458332"
           y="184.3631"
           x="43.121475"
           id="tspan7715"
           sodipodi:role="line">Network</tspan></text>
    </g>
    <text
       xml:space="preserve"
       style="font-style:normal;font-variant:normal;font-weight:normal;font-stretch:normal;font-size:7.71524954px;line-height:1.25;font-family:sans-serif;-inkscape-font-specification:'sans-serif, Normal';font-variant-ligatures:normal;font-variant-caps:normal;font-variant-numeric:normal;font-feature-settings:normal;text-align:start;letter-spacing:0px;word-spacing:0px;writing-mode:lr-tb;text-anchor:start;fill:#ffffff;fill-opacity:1;stroke:none;stroke-width:0.19288123"
       x="66.808022"
       y="108.54636"
       id="text8412"
       inkscape:export-xdpi="96"
       inkscape:export-ydpi="96"><tspan
         sodipodi:role="line"
         id="tspan8542"
         x="66.808022"
         y="108.54636"
         style="stroke-width:0.19288123">NeuroTessMesh</tspan></text>
    <path
       style="fill:#0065a2;fill-opacity:0.43627451;fill-rule:evenodd;stroke:#333333;stroke-width:0.80735528;stroke-linecap:butt;stroke-linejoin:round;stroke-miterlimit:4;stroke-dasharray:none;stroke-opacity:1"
       inkscape:connector-curvature="0"
       id="path63-5-3-5"
       d="m 100.03193,129.02191 3.19848,-3.24214 3.19848,3.24214 h -1.59925 v 5.88083 h 1.59925 l -3.19848,3.24216 -3.19848,-3.24216 h 1.59923 v -5.88083 z"
       inkscape:export-xdpi="96"
       inkscape:export-ydpi="96" />
    <path
       style="fill:#0065a2;fill-opacity:0.43627451;fill-rule:evenodd;stroke:#333333;stroke-width:0.80735528;stroke-linecap:butt;stroke-linejoin:round;stroke-miterlimit:4;stroke-dasharray:none;stroke-opacity:1"
       inkscape:connector-curvature="0"
       id="path63-5-3-52"
       d="m 53.572181,141.44436 3.198488,-3.24216 3.19848,3.24216 h -1.599251 v 5.88083 h 1.599251 l -3.19848,3.24215 -3.198488,-3.24215 h 1.599237 v -5.88083 z"
       inkscape:export-xdpi="96"
       inkscape:export-ydpi="96" />
    <g
       id="g8491"
       transform="matrix(0.729,0,0,0.729,49.927138,54.131765)"
       inkscape:export-xdpi="96"
       inkscape:export-ydpi="96">
      <path
         d="m 133.82023,87.105948 h 21.13334 v 8.55 h -21.13334 z"
         id="path29-8-2"
         inkscape:connector-curvature="0"
         style="fill:#5011a3;fill-opacity:1;fill-rule:evenodd;stroke-width:0.26458332" />
      <text
         xml:space="preserve"
         style="font-style:normal;font-variant:normal;font-weight:normal;font-stretch:normal;font-size:3.52777767px;line-height:1.25;font-family:sans-serif;-inkscape-font-specification:'sans-serif, Normal';font-variant-ligatures:normal;font-variant-caps:normal;font-variant-numeric:normal;font-feature-settings:normal;text-align:start;letter-spacing:0px;word-spacing:0px;writing-mode:lr-tb;text-anchor:start;fill:#ffffff;fill-opacity:1;stroke:none;stroke-width:0.26458332;stroke-opacity:1"
         x="136.48213"
         y="90.436989"
         id="text3171-5-3-8"><tspan
           y="90.436989"
           x="136.48213"
           id="tspan8480"
           sodipodi:role="line">  Acute</tspan><tspan
           y="94.84671"
           x="136.48213"
           id="tspan8482"
           sodipodi:role="line">Recorder</tspan><tspan
           y="99.256432"
           x="136.48213"
           id="tspan8484"
           sodipodi:role="line" /></text>
    </g>
    <g
       id="g8669"
       transform="matrix(0.729,0,0,0.729,28.561194,49.215819)"
       inkscape:export-xdpi="96"
       inkscape:export-ydpi="96">
      <path
         d="m 53.727971,110.92609 h 14.291371 v 8.55 H 53.727971 Z"
         id="path127"
         inkscape:connector-curvature="0"
         style="fill:#eea453;fill-opacity:1;fill-rule:evenodd;stroke-width:0.22282395" />
      <text
         id="text8572"
         y="117.32359"
         x="54.036865"
         style="font-style:normal;font-variant:normal;font-weight:normal;font-stretch:normal;font-size:6.3499999px;line-height:1.25;font-family:sans-serif;-inkscape-font-specification:'sans-serif, Normal';font-variant-ligatures:normal;font-variant-caps:normal;font-variant-numeric:normal;font-feature-settings:normal;text-align:start;letter-spacing:0px;word-spacing:0px;writing-mode:lr-tb;text-anchor:start;fill:#000000;fill-opacity:1;stroke:none;stroke-width:0.26458332"
         xml:space="preserve"><tspan
           style="font-style:normal;font-variant:normal;font-weight:normal;font-stretch:normal;font-size:6.3499999px;font-family:sans-serif;-inkscape-font-specification:'sans-serif, Normal';font-variant-ligatures:normal;font-variant-caps:normal;font-variant-numeric:normal;font-feature-settings:normal;text-align:start;writing-mode:lr-tb;text-anchor:start;stroke-width:0.26458332"
           y="117.32359"
           x="54.036865"
           id="tspan8570"
           sodipodi:role="line">GLM</tspan></text>
    </g>
    <g
       id="g8597"
       transform="matrix(0.729,0,0,0.729,24.290252,49.215819)"
       inkscape:export-xdpi="96"
       inkscape:export-ydpi="96">
      <path
         d="m 73.877973,110.92609 h 21.133333 v 8.55 H 73.877973 Z"
         id="path29"
         inkscape:connector-curvature="0"
         style="fill:#3729dd;fill-opacity:1;fill-rule:evenodd;stroke-width:0.26458332" />
      <text
         id="text8576"
         y="117.51257"
         x="74.995605"
         style="font-style:normal;font-variant:normal;font-weight:normal;font-stretch:normal;font-size:6.3499999px;line-height:1.25;font-family:sans-serif;-inkscape-font-specification:'sans-serif, Normal';font-variant-ligatures:normal;font-variant-caps:normal;font-variant-numeric:normal;font-feature-settings:normal;text-align:start;letter-spacing:0px;word-spacing:0px;writing-mode:lr-tb;text-anchor:start;fill:#ffffff;fill-opacity:1;stroke:none;stroke-width:0.26458332"
         xml:space="preserve"><tspan
           style="font-style:normal;font-variant:normal;font-weight:normal;font-stretch:normal;font-size:6.3499999px;font-family:sans-serif;-inkscape-font-specification:'sans-serif, Normal';font-variant-ligatures:normal;font-variant-caps:normal;font-variant-numeric:normal;font-feature-settings:normal;text-align:start;writing-mode:lr-tb;text-anchor:start;fill:#ffffff;stroke-width:0.26458332"
           y="117.51257"
           x="74.995605"
           id="tspan8574"
           sodipodi:role="line">GLEW</tspan></text>
    </g>
    <g
       id="g8661"
       transform="matrix(0.729,0,0,0.729,4.7338574,26.869068)"
       inkscape:export-xdpi="96"
       inkscape:export-ydpi="96">
      <path
         d="m 148.34836,133.03006 h 26.47293 v 8.55 h -26.47293 z"
         id="path113-8-3-0"
         inkscape:connector-curvature="0"
         style="fill:#e5f156;fill-opacity:1;fill-rule:evenodd;stroke-width:0.16429617" />
      <text
         id="text3171-5-1-4"
         y="139.67236"
         x="152.87218"
         style="font-style:normal;font-variant:normal;font-weight:normal;font-stretch:normal;font-size:6.3499999px;line-height:1.25;font-family:sans-serif;-inkscape-font-specification:'sans-serif, Normal';font-variant-ligatures:normal;font-variant-caps:normal;font-variant-numeric:normal;font-feature-settings:normal;text-align:start;letter-spacing:0px;word-spacing:0px;writing-mode:lr-tb;text-anchor:start;fill:#000000;fill-opacity:1;stroke:none;stroke-width:0.26458332"
         xml:space="preserve"><tspan
           y="139.67236"
           x="152.87218"
           id="tspan8650"
           sodipodi:role="line">HDF5</tspan><tspan
           y="147.60986"
           x="152.87218"
           id="tspan8652"
           sodipodi:role="line" /><tspan
           y="155.54736"
           x="152.87218"
           id="tspan8654"
           sodipodi:role="line" /></text>
    </g>
    <g
       id="g931">
      <path
         d="m 67.728884,117.61503 h 25.829032 v 12.76558 H 67.728884 Z"
         id="path71"
         inkscape:connector-curvature="0"
         style="fill:#ff3366;fill-rule:evenodd;stroke-width:0.18149635" />
      <path
         d="m 73.825876,121.42339 q 0,0.041 -0.0121,0.0725 -0.0122,0.0284 -0.03347,0.0473 -0.02127,0.0189 -0.0486,0.0284 -0.02732,0.006 -0.05162,0.006 h -0.112428 q -0.05162,0 -0.09114,-0.009 -0.03952,-0.0126 -0.07592,-0.0442 -0.03347,-0.0315 -0.06987,-0.082 -0.0365,-0.0537 -0.07904,-0.13561 l -0.826486,-1.54855 q -0.06382,-0.11984 -0.130656,-0.24915 -0.06382,-0.13246 -0.121542,-0.25546 h -0.003 q 0.003,0.15138 0.003,0.30908 0.003,0.15769 0.003,0.31222 v 1.64316 q 0,0.0126 -0.0091,0.0284 -0.0061,0.0126 -0.02732,0.0221 -0.01825,0.006 -0.0486,0.009 -0.03035,0.006 -0.07904,0.006 -0.0486,0 -0.08207,-0.006 -0.03035,-0.003 -0.0486,-0.009 -0.01825,-0.009 -0.02732,-0.0221 -0.0061,-0.0158 -0.0061,-0.0284 v -2.51046 q 0,-0.0852 0.04255,-0.11985 0.04557,-0.0347 0.09719,-0.0347 h 0.167124 q 0.05777,0 0.09719,0.009 0.03952,0.009 0.06987,0.0347 0.03347,0.0252 0.0608,0.0694 0.03035,0.041 0.06685,0.10723 l 0.635063,1.19215 q 0.05777,0.11038 0.112427,0.21447 0.05465,0.10412 0.106348,0.205 0.05162,0.10088 0.100218,0.19869 0.0486,0.0977 0.09719,0.19553 h 0.003 q -0.003,-0.16715 -0.006,-0.34692 0,-0.17977 0,-0.34377 v -1.476 q 0,-0.0158 0.006,-0.0284 0.0091,-0.0126 0.02732,-0.0221 0.02127,-0.009 0.05162,-0.0126 0.03035,-0.003 0.08207,-0.003 0.04557,0 0.07602,0.003 0.03337,0.003 0.05162,0.0126 0.01825,0.009 0.0243,0.0221 0.0091,0.0126 0.0091,0.0284 z m 2.215481,-0.93353 q 0,0.0821 -0.03952,0.1167 -0.03952,0.0347 -0.09114,0.0347 h -1.194156 q 0,0.15769 0.03035,0.28385 0.03035,0.12615 0.100319,0.21761 0.0729,0.0915 0.185353,0.13877 0.112427,0.0473 0.276507,0.0473 0.130656,0 0.230934,-0.0221 0.103314,-0.0221 0.176239,-0.0473 0.0729,-0.0284 0.121542,-0.0504 0.0486,-0.0221 0.0729,-0.0221 0.0122,0 0.0243,0.009 0.0121,0.006 0.01825,0.0221 0.006,0.0126 0.0091,0.041 0.003,0.0252 0.003,0.0631 0,0.0252 -0.003,0.0473 -0.003,0.0189 -0.0061,0.0347 -0.003,0.0158 -0.0091,0.0284 -0.006,0.0126 -0.01825,0.0252 -0.0122,0.009 -0.06685,0.0379 -0.05465,0.0252 -0.142806,0.0504 -0.08509,0.0252 -0.200546,0.0442 -0.112428,0.0221 -0.243084,0.0221 -0.224855,0 -0.395014,-0.0662 -0.167124,-0.0662 -0.282586,-0.19238 -0.115473,-0.12931 -0.176239,-0.32169 -0.05777,-0.19554 -0.05777,-0.451 0,-0.24285 0.0608,-0.43838 0.0608,-0.19555 0.173194,-0.33117 0.115472,-0.1356 0.276516,-0.20814 0.164079,-0.0725 0.364626,-0.0725 0.215731,0 0.364626,0.0725 0.15193,0.0725 0.249163,0.19238 0.09719,0.11984 0.142816,0.28385 0.04557,0.164 0.04557,0.34692 z m -0.337283,-0.10088 q 0.0061,-0.27438 -0.115472,-0.42893 -0.121542,-0.15768 -0.364626,-0.15768 -0.121542,0 -0.215741,0.0504 -0.09417,0.0473 -0.157999,0.12931 -0.0608,0.0789 -0.09719,0.18609 -0.03347,0.10402 -0.0365,0.22076 z m 2.407055,1.12908 q 0,0.0189 -0.0091,0.0315 -0.006,0.009 -0.0243,0.0189 -0.01825,0.006 -0.0486,0.009 -0.02732,0.006 -0.06987,0.006 -0.04557,0 -0.07602,-0.006 -0.03035,-0.003 -0.0486,-0.009 -0.01522,-0.009 -0.02127,-0.0189 -0.006,-0.0126 -0.006,-0.0315 v -0.24916 q -0.154965,0.17978 -0.306895,0.26177 -0.15193,0.082 -0.309939,0.082 -0.182308,0 -0.306895,-0.0631 -0.124536,-0.0631 -0.200506,-0.1703 -0.07592,-0.1104 -0.109383,-0.25231 -0.03347,-0.14508 -0.03347,-0.35323 v -1.148 q 0,-0.0158 0.006,-0.0252 0.0061,-0.0125 0.02732,-0.0221 0.02127,-0.009 0.05162,-0.0126 0.03347,-0.003 0.08207,-0.003 0.0486,0 0.07904,0.003 0.03337,0.003 0.05162,0.0126 0.02127,0.009 0.02732,0.0221 0.0091,0.009 0.0091,0.0252 v 1.10384 q 0,0.164 0.0243,0.26492 0.0243,0.10098 0.06987,0.17031 0.0486,0.0694 0.121542,0.11038 0.0729,0.0379 0.170159,0.0379 0.124577,0 0.249163,-0.0915 0.124577,-0.0946 0.264358,-0.27122 v -1.32461 q 0,-0.0158 0.006,-0.0252 0.0091,-0.0126 0.02732,-0.0221 0.02127,-0.009 0.05162,-0.0126 0.03347,-0.003 0.08509,-0.003 0.0486,0 0.07904,0.003 0.03347,0.003 0.05162,0.0126 0.01825,0.009 0.02732,0.0221 0.0091,0.009 0.0091,0.0252 z m 1.683843,-1.76616 q 0,0.0442 -0.003,0.0757 -0.003,0.0315 -0.0091,0.0504 -0.006,0.0189 -0.01522,0.0284 -0.0091,0.009 -0.0243,0.009 -0.01522,0 -0.03952,-0.009 -0.0243,-0.009 -0.05465,-0.0189 -0.02732,-0.009 -0.06382,-0.019 -0.0365,-0.009 -0.07905,-0.009 -0.05162,0 -0.100319,0.0221 -0.0486,0.0221 -0.103303,0.0694 -0.05162,0.0473 -0.112438,0.12931 -0.05777,0.0788 -0.127611,0.19555 v 1.24261 q 0,0.0189 -0.0091,0.0315 -0.0061,0.009 -0.0243,0.019 -0.01825,0.006 -0.05162,0.009 -0.03347,0.006 -0.08207,0.006 -0.0486,0 -0.08207,-0.006 -0.03337,-0.003 -0.05162,-0.009 -0.01825,-0.009 -0.02732,-0.019 -0.006,-0.0126 -0.006,-0.0315 v -1.89231 q 0,-0.0158 0.006,-0.0252 0.0061,-0.0126 0.0243,-0.0221 0.01825,-0.009 0.04557,-0.0126 0.03035,-0.003 0.07592,-0.003 0.04557,0 0.0729,0.003 0.03035,0.003 0.04557,0.0126 0.01825,0.009 0.0243,0.0221 0.0061,0.009 0.0061,0.0252 v 0.27754 q 0.07592,-0.11355 0.13977,-0.18609 0.06685,-0.0725 0.124577,-0.11353 0.0608,-0.041 0.118507,-0.0567 0.05777,-0.0158 0.115463,-0.0158 0.02732,0 0.0608,0.003 0.03337,0.003 0.06987,0.0126 0.0365,0.009 0.06382,0.0189 0.03035,0.009 0.04255,0.0221 0.0122,0.009 0.01522,0.0189 0.0061,0.009 0.0091,0.0252 0.003,0.0126 0.003,0.041 0.003,0.0284 0.003,0.0788 z m 2.008149,0.80109 q 0,0.23022 -0.0608,0.42576 -0.05777,0.19238 -0.173194,0.3343 -0.115462,0.14193 -0.2917,0.22078 -0.176239,0.0788 -0.407174,0.0788 -0.224855,0 -0.391969,-0.0694 -0.167124,-0.0694 -0.279551,-0.20185 -0.109393,-0.13246 -0.164079,-0.32168 -0.05465,-0.18924 -0.05465,-0.42894 0,-0.23338 0.05777,-0.42576 0.05777,-0.19554 0.173204,-0.3343 0.118507,-0.14194 0.291701,-0.22078 0.173193,-0.0788 0.407163,-0.0788 0.224855,0 0.391979,0.0694 0.167124,0.0694 0.276506,0.20185 0.112428,0.13245 0.167124,0.32169 0.05777,0.18923 0.05777,0.42892 z m -0.352477,0.0221 q 0,-0.15454 -0.02732,-0.29015 -0.02732,-0.13562 -0.09114,-0.23971 -0.0608,-0.10402 -0.170158,-0.16399 -0.106348,-0.06 -0.267393,-0.06 -0.14585,0 -0.252208,0.0567 -0.106348,0.0536 -0.176238,0.15453 -0.06987,0.0977 -0.103303,0.23655 -0.03347,0.1356 -0.03347,0.29645 0,0.1577 0.02732,0.29331 0.02732,0.13561 0.09114,0.2397 0.06382,0.10088 0.170159,0.16084 0.109383,0.06 0.270427,0.06 0.14586,0 0.252208,-0.0537 0.106348,-0.0567 0.176239,-0.15454 0.06987,-0.0977 0.100218,-0.23339 0.03347,-0.13876 0.03347,-0.30277 z m 2.241927,0.83892 q 0,0.041 -0.006,0.0694 -0.003,0.0284 -0.0122,0.0504 -0.0091,0.0189 -0.02127,0.0284 -0.0122,0.009 -0.03035,0.009 h -1.160733 q -0.04557,0 -0.08812,-0.0315 -0.03952,-0.0348 -0.03952,-0.1167 v -2.51675 q 0,-0.0158 0.0061,-0.0284 0.0091,-0.0126 0.02732,-0.0189 0.02127,-0.009 0.05465,-0.0126 0.0365,-0.006 0.08509,-0.006 0.05162,0 0.08509,0.006 0.03347,0.003 0.05162,0.0126 0.02127,0.006 0.02732,0.0189 0.0091,0.0125 0.0091,0.0284 v 2.35276 h 0.941958 q 0.01825,0 0.03035,0.009 0.0121,0.009 0.02127,0.0284 0.0091,0.0158 0.0122,0.0473 0.0061,0.0284 0.0061,0.0694 z m 2.488167,-1.23315 q 0,0.328 -0.07592,0.59292 -0.07289,0.26492 -0.22181,0.45099 -0.148895,0.18609 -0.37375,0.28701 -0.224855,0.10088 -0.52567,0.10088 -0.294736,0 -0.510476,-0.0915 -0.215741,-0.0915 -0.358557,-0.26493 -0.13977,-0.17661 -0.209661,-0.43522 -0.06685,-0.25862 -0.06685,-0.59608 0,-0.32169 0.0729,-0.58346 0.07592,-0.26177 0.224855,-0.44469 0.15193,-0.18608 0.376785,-0.28384 0.224855,-0.10099 0.52567,-0.10099 0.288666,0 0.501362,0.0915 0.21574,0.0883 0.358556,0.26178 0.142805,0.17345 0.212696,0.42892 0.06987,0.25546 0.06987,0.58661 z m -0.367671,0.0252 q 0,-0.23339 -0.03952,-0.43208 -0.03952,-0.1987 -0.130656,-0.34377 -0.09114,-0.14508 -0.246129,-0.22708 -0.15193,-0.082 -0.37982,-0.082 -0.22789,0 -0.382855,0.0883 -0.15193,0.0883 -0.249163,0.23653 -0.09417,0.14508 -0.136736,0.34378 -0.04255,0.19553 -0.04255,0.41 0,0.23968 0.03952,0.44153 0.03952,0.20185 0.130657,0.35007 0.09114,0.14509 0.243083,0.22709 0.15193,0.0788 0.382855,0.0788 0.230935,0 0.385899,-0.0883 0.154975,-0.0883 0.249164,-0.23654 0.09719,-0.15138 0.136736,-0.34693 0.03952,-0.19868 0.03952,-0.41945 z m 2.449431,-1.19847 q 0,0.0409 -0.003,0.0694 -0.003,0.0284 -0.0122,0.0473 -0.0091,0.0189 -0.0243,0.0284 -0.0122,0.006 -0.02732,0.006 h -0.738377 v 2.35908 q 0,0.0158 -0.0091,0.0284 -0.006,0.0126 -0.02732,0.0221 -0.02127,0.006 -0.05465,0.009 -0.03337,0.006 -0.08207,0.006 -0.0486,0 -0.08509,-0.006 -0.03347,-0.003 -0.05465,-0.009 -0.01825,-0.009 -0.02732,-0.0221 -0.0091,-0.0126 -0.0091,-0.0284 v -2.35933 H 86.37267 q -0.01825,0 -0.03035,-0.006 -0.0122,-0.009 -0.02127,-0.0284 -0.0091,-0.0189 -0.01522,-0.0473 -0.003,-0.0284 -0.003,-0.0694 0,-0.0409 0.003,-0.0694 0.0061,-0.0315 0.01522,-0.0504 0.0091,-0.0189 0.02127,-0.0252 0.0122,-0.009 0.03035,-0.009 h 1.823139 q 0.01522,0 0.02732,0.009 0.01522,0.006 0.0243,0.0252 0.0091,0.0189 0.0122,0.0504 0.003,0.0284 0.003,0.0694 z m 1.176441,1.99639 q 0,0.14508 -0.05162,0.25861 -0.05162,0.11353 -0.148895,0.19239 -0.09417,0.0757 -0.22789,0.11669 -0.130656,0.0409 -0.288666,0.0409 -0.09719,0 -0.185353,-0.0158 -0.08812,-0.0158 -0.157999,-0.041 -0.06987,-0.0252 -0.118507,-0.0504 -0.0486,-0.0252 -0.06987,-0.0473 -0.02127,-0.0221 -0.03347,-0.06 -0.0091,-0.0378 -0.0091,-0.10088 0,-0.041 0.003,-0.0662 0.006,-0.0284 0.0122,-0.0442 0.006,-0.019 0.01522,-0.0252 0.0122,-0.009 0.02732,-0.009 0.02127,0 0.06382,0.0284 0.04557,0.0284 0.109392,0.0631 0.06382,0.0347 0.148886,0.0631 0.08812,0.0284 0.200546,0.0284 0.08509,0 0.154965,-0.0189 0.06987,-0.0189 0.118507,-0.0567 0.05162,-0.0379 0.07904,-0.0946 0.02732,-0.0567 0.02732,-0.13246 0,-0.0821 -0.03952,-0.13562 -0.03952,-0.0537 -0.106358,-0.0946 -0.06382,-0.0442 -0.14585,-0.0757 -0.07905,-0.0347 -0.167114,-0.0694 -0.08509,-0.0347 -0.167124,-0.0789 -0.08207,-0.0473 -0.14585,-0.11038 -0.06382,-0.0662 -0.103313,-0.15769 -0.03952,-0.0915 -0.03952,-0.21762 0,-0.11038 0.03952,-0.21131 0.04255,-0.10402 0.124577,-0.17977 0.08509,-0.0757 0.209661,-0.123 0.124587,-0.0473 0.288666,-0.0473 0.0729,0 0.14585,0.0126 0.0729,0.0126 0.130656,0.0315 0.0608,0.0189 0.100319,0.041 0.04255,0.0221 0.06382,0.041 0.02127,0.0158 0.02732,0.0284 0.0091,0.0126 0.0122,0.0284 0.003,0.0158 0.006,0.041 0.003,0.0221 0.003,0.0537 0,0.0378 -0.003,0.0631 -0.003,0.0252 -0.0122,0.0442 -0.006,0.0158 -0.01522,0.0252 -0.0091,0.006 -0.02127,0.006 -0.01825,0 -0.05465,-0.0221 -0.03347,-0.0252 -0.08812,-0.0504 -0.05465,-0.0284 -0.130656,-0.0504 -0.0729,-0.0221 -0.167124,-0.0221 -0.08509,0 -0.15192,0.0189 -0.06382,0.0189 -0.106348,0.0567 -0.03952,0.0379 -0.0608,0.0883 -0.02127,0.0504 -0.02127,0.10723 0,0.082 0.03952,0.13878 0.04255,0.0567 0.106348,0.0977 0.06382,0.041 0.14585,0.0757 0.08509,0.0347 0.170159,0.0694 0.08812,0.0347 0.170169,0.0789 0.08509,0.0442 0.148885,0.10723 0.06685,0.0631 0.106348,0.15138 0.03952,0.0883 0.03952,0.21131 z"
         id="path75"
         inkscape:connector-curvature="0"
         style="fill:#ffffff;fill-rule:nonzero;stroke-width:0.19812281" />
      <g
         transform="matrix(1.0082285,0,0,1.0464778,-92.062412,-46.784465)"
         id="g8819">
        <path
           style="fill:#d9d2e9;fill-rule:evenodd;stroke-width:0.19288124"
           inkscape:connector-curvature="0"
           id="path119"
           d="m 161.68565,162.00577 h 19.2213 v 6.23295 h -19.2213 z" />
        <path
           style="fill:#000000;fill-rule:nonzero;stroke-width:0.19288124"
           inkscape:connector-curvature="0"
           id="path123"
           d="m 166.67392,164.61677 q 0,0.009 -0.006,0.0151 -0.003,0.006 -0.0151,0.012 -0.009,0.003 -0.0271,0.003 -0.0181,0.003 -0.0452,0.003 -0.0271,0 -0.0452,-0.003 -0.0181,0 -0.0301,-0.003 -0.009,-0.006 -0.0151,-0.012 -0.003,-0.006 -0.003,-0.0151 v -0.59672 q 0,-0.0874 -0.0151,-0.13863 -0.0121,-0.0542 -0.0392,-0.0934 -0.0241,-0.0392 -0.0663,-0.0572 -0.0392,-0.0211 -0.0934,-0.0211 -0.0723,0 -0.14165,0.0513 -0.0693,0.0482 -0.14767,0.14466 v 0.71125 q 0,0.009 -0.006,0.0151 -0.003,0.006 -0.0121,0.012 -0.009,0.003 -0.0271,0.003 -0.0181,0.003 -0.0482,0.003 -0.0271,0 -0.0452,-0.003 -0.0181,0 -0.0301,-0.003 -0.009,-0.006 -0.0151,-0.012 -0.003,-0.006 -0.003,-0.0151 v -1.01865 q 0,-0.009 0.003,-0.0151 0.006,-0.006 0.0151,-0.009 0.009,-0.006 0.0241,-0.009 0.0181,-0.003 0.0452,-0.003 0.0241,0 0.0392,0.003 0.0181,0.003 0.0271,0.009 0.009,0.003 0.0121,0.009 0.003,0.006 0.003,0.0151 v 0.13562 q 0.0874,-0.0964 0.17179,-0.14165 0.0844,-0.0452 0.17178,-0.0452 0.10247,0 0.17179,0.0362 0.0693,0.0332 0.11151,0.0904 0.0452,0.0573 0.0633,0.13563 0.0181,0.0784 0.0181,0.18685 z m 0.52591,0 q 0,0.009 -0.006,0.0151 -0.003,0.006 -0.0121,0.012 -0.009,0.003 -0.0271,0.003 -0.0181,0.003 -0.0482,0.003 -0.0271,0 -0.0452,-0.003 -0.0181,0 -0.0301,-0.003 -0.009,-0.006 -0.0151,-0.012 -0.003,-0.006 -0.003,-0.0151 v -1.50989 q 0,-0.009 0.003,-0.0151 0.006,-0.009 0.0151,-0.012 0.0121,-0.006 0.0301,-0.006 0.0181,-0.003 0.0452,-0.003 0.0301,0 0.0482,0.003 0.0181,0 0.0271,0.006 0.009,0.003 0.0121,0.012 0.006,0.006 0.006,0.0151 z m 1.1942,-0.97344 q 0,0.0422 -0.012,0.0603 -0.009,0.0151 -0.0241,0.0151 h -0.14768 q 0.0392,0.0422 0.0542,0.0904 0.0181,0.0482 0.0181,0.10247 0,0.0874 -0.0301,0.15672 -0.0271,0.0663 -0.0814,0.11452 -0.0512,0.0452 -0.12356,0.0723 -0.0723,0.0241 -0.15973,0.0241 -0.0633,0 -0.12055,-0.0151 -0.0542,-0.0181 -0.0844,-0.0422 -0.0211,0.0181 -0.0332,0.0452 -0.0121,0.0271 -0.0121,0.0603 0,0.0391 0.0362,0.0663 0.0362,0.0241 0.0964,0.0271 l 0.26823,0.012 q 0.0753,0.003 0.13863,0.0211 0.0633,0.0181 0.1085,0.0542 0.0452,0.0332 0.0723,0.0844 0.0271,0.0482 0.0271,0.11452 0,0.0723 -0.0301,0.13562 -0.0301,0.0633 -0.0904,0.11151 -0.0603,0.0482 -0.1537,0.0754 -0.0934,0.0271 -0.22302,0.0271 -0.12055,0 -0.20795,-0.0211 -0.0874,-0.0211 -0.14466,-0.0573 -0.0542,-0.0362 -0.0784,-0.0874 -0.0241,-0.0482 -0.0241,-0.1085 0,-0.0362 0.009,-0.0723 0.009,-0.0332 0.0271,-0.0663 0.0181,-0.0332 0.0452,-0.0603 0.0301,-0.0301 0.0663,-0.0572 -0.0573,-0.0271 -0.0844,-0.0693 -0.0241,-0.0452 -0.0241,-0.0934 0,-0.0693 0.0271,-0.12357 0.0271,-0.0542 0.0693,-0.0995 -0.0332,-0.0391 -0.0542,-0.0904 -0.0211,-0.0542 -0.0211,-0.12959 0,-0.0874 0.0301,-0.15672 0.0301,-0.0693 0.0814,-0.11451 0.0512,-0.0482 0.12357,-0.0723 0.0753,-0.0271 0.15973,-0.0271 0.0452,0 0.0844,0.006 0.0422,0.003 0.0784,0.012 h 0.30741 q 0.0181,0 0.0271,0.0211 0.009,0.0181 0.009,0.0542 z m -0.28932,0.26822 q 0,-0.10246 -0.0573,-0.15973 -0.0573,-0.0603 -0.16275,-0.0603 -0.0542,0 -0.0964,0.0181 -0.0392,0.0181 -0.0663,0.0513 -0.0241,0.0301 -0.0392,0.0723 -0.0121,0.0422 -0.0121,0.0874 0,0.0994 0.0573,0.15671 0.0573,0.0573 0.15973,0.0573 0.0542,0 0.0934,-0.0151 0.0422,-0.0181 0.0693,-0.0483 0.0271,-0.0332 0.0392,-0.0723 0.0151,-0.0422 0.0151,-0.0874 z m 0.0934,0.80769 q 0,-0.0663 -0.0542,-0.10247 -0.0542,-0.0361 -0.14466,-0.0361 l -0.26521,-0.009 q -0.0362,0.0271 -0.0603,0.0542 -0.0211,0.0241 -0.0362,0.0452 -0.0121,0.0241 -0.0181,0.0452 -0.003,0.0241 -0.003,0.0482 0,0.0754 0.0723,0.1115 0.0753,0.0392 0.20795,0.0392 0.0874,0 0.14165,-0.0181 0.0573,-0.0151 0.0934,-0.0422 0.0362,-0.0271 0.0512,-0.0633 0.0151,-0.0332 0.0151,-0.0723 z m 1.28424,-0.657 q 0,0.0452 -0.0211,0.0633 -0.0211,0.0181 -0.0512,0.0181 H 168.744 q 0,0.0844 0.0151,0.15371 0.0181,0.0663 0.0573,0.11753 0.0422,0.0482 0.10548,0.0754 0.0633,0.0241 0.1537,0.0241 0.0723,0 0.1296,-0.012 0.0573,-0.012 0.0964,-0.0271 0.0422,-0.0151 0.0693,-0.0271 0.0271,-0.012 0.0392,-0.012 0.009,0 0.0151,0.006 0.006,0.003 0.009,0.012 0.003,0.006 0.003,0.0211 0.003,0.0151 0.003,0.0332 0,0.0151 -0.003,0.0271 0,0.009 -0.003,0.0181 0,0.009 -0.003,0.0151 -0.003,0.006 -0.009,0.0151 -0.006,0.006 -0.0392,0.0211 -0.0301,0.012 -0.0784,0.0271 -0.0482,0.012 -0.1115,0.0211 -0.0633,0.012 -0.13562,0.012 -0.12658,0 -0.22302,-0.0332 -0.0934,-0.0362 -0.15672,-0.10549 -0.0633,-0.0693 -0.0964,-0.17178 -0.0331,-0.10549 -0.0331,-0.24412 0,-0.12959 0.0331,-0.23507 0.0332,-0.10548 0.0964,-0.17781 0.0663,-0.0723 0.15672,-0.11151 0.0904,-0.0392 0.20192,-0.0392 0.12055,0 0.20494,0.0392 0.0844,0.0392 0.13863,0.10548 0.0542,0.0633 0.0784,0.15069 0.0241,0.0874 0.0241,0.18685 z m -0.18685,-0.0542 q 0.003,-0.14767 -0.0663,-0.22904 -0.0663,-0.0844 -0.20192,-0.0844 -0.0693,0 -0.12055,0.0271 -0.0512,0.0241 -0.0874,0.0663 -0.0331,0.0422 -0.0542,0.0995 -0.0181,0.0573 -0.0211,0.12056 z m 1.34753,0.60878 q 0,0.009 -0.006,0.0151 -0.003,0.006 -0.0151,0.012 -0.009,0.003 -0.0271,0.003 -0.0181,0.003 -0.0452,0.003 -0.0271,0 -0.0452,-0.003 -0.0181,0 -0.0301,-0.003 -0.009,-0.006 -0.0151,-0.012 -0.003,-0.006 -0.003,-0.0151 v -0.59672 q 0,-0.0874 -0.0151,-0.13864 -0.0121,-0.0542 -0.0392,-0.0934 -0.0241,-0.0392 -0.0663,-0.0572 -0.0392,-0.0211 -0.0934,-0.0211 -0.0723,0 -0.14165,0.0513 -0.0693,0.0482 -0.14767,0.14466 v 0.71125 q 0,0.009 -0.006,0.0151 -0.003,0.006 -0.0121,0.012 -0.009,0.003 -0.0271,0.003 -0.0181,0.003 -0.0482,0.003 -0.0271,0 -0.0452,-0.003 -0.0181,0 -0.0301,-0.003 -0.009,-0.006 -0.0151,-0.012 -0.003,-0.006 -0.003,-0.0151 v -1.01865 q 0,-0.009 0.003,-0.0151 0.006,-0.006 0.0151,-0.009 0.009,-0.006 0.0241,-0.009 0.0181,-0.003 0.0452,-0.003 0.0241,0 0.0392,0.003 0.0181,0.003 0.0271,0.009 0.009,0.003 0.0121,0.009 0.003,0.006 0.003,0.0151 v 0.13561 q 0.0874,-0.0964 0.17178,-0.14164 0.0844,-0.0452 0.17179,-0.0452 0.10247,0 0.17178,0.0362 0.0693,0.0332 0.11151,0.0904 0.0452,0.0573 0.0633,0.13562 0.0181,0.0784 0.0181,0.18685 z m 1.20701,-0.55454 q 0,0.0452 -0.0211,0.0633 -0.0211,0.0181 -0.0512,0.0181 h -0.66604 q 0,0.0844 0.0151,0.1537 0.0181,0.0663 0.0573,0.11754 0.0422,0.0482 0.10549,0.0754 0.0633,0.0241 0.1537,0.0241 0.0723,0 0.12959,-0.012 0.0573,-0.012 0.0964,-0.0271 0.0422,-0.0151 0.0693,-0.0271 0.0271,-0.012 0.0392,-0.012 0.009,0 0.0151,0.006 0.006,0.003 0.009,0.012 0.003,0.006 0.003,0.0211 0.003,0.0151 0.003,0.0332 0,0.0151 -0.003,0.0271 0,0.009 -0.003,0.0181 0,0.009 -0.003,0.0151 -0.003,0.006 -0.009,0.0151 -0.006,0.006 -0.0392,0.0211 -0.0301,0.012 -0.0784,0.0271 -0.0482,0.012 -0.11151,0.0211 -0.0633,0.012 -0.13562,0.012 -0.12658,0 -0.22302,-0.0332 -0.0934,-0.0362 -0.15672,-0.10549 -0.0633,-0.0693 -0.0964,-0.17178 -0.0331,-0.10549 -0.0331,-0.24412 0,-0.12959 0.0331,-0.23508 0.0332,-0.10547 0.0964,-0.17781 0.0663,-0.0723 0.15672,-0.1115 0.0904,-0.0392 0.20192,-0.0392 0.12055,0 0.20494,0.0392 0.0844,0.0391 0.13863,0.10548 0.0542,0.0633 0.0784,0.15069 0.0241,0.0874 0.0241,0.18685 z m -0.18685,-0.0542 q 0.003,-0.14768 -0.0663,-0.22905 -0.0663,-0.0844 -0.20193,-0.0844 -0.0693,0 -0.12055,0.0271 -0.0512,0.0241 -0.0874,0.0663 -0.0332,0.0422 -0.0542,0.0995 -0.0181,0.0572 -0.0211,0.12054 z m 1.06725,-0.34357 q 0,0.0241 -0.003,0.0422 0,0.0181 -0.003,0.0271 -0.003,0.009 -0.009,0.0151 -0.006,0.003 -0.0151,0.003 -0.009,0 -0.0211,-0.003 -0.0121,-0.006 -0.0301,-0.009 -0.0151,-0.006 -0.0362,-0.009 -0.0211,-0.006 -0.0452,-0.006 -0.0271,0 -0.0542,0.012 -0.0271,0.009 -0.0573,0.0362 -0.0301,0.0241 -0.0633,0.0693 -0.0332,0.0422 -0.0723,0.10548 v 0.66906 q 0,0.009 -0.006,0.0151 -0.003,0.006 -0.0121,0.012 -0.009,0.003 -0.0271,0.003 -0.0181,0.003 -0.0482,0.003 -0.0271,0 -0.0452,-0.003 -0.0181,0 -0.0301,-0.003 -0.009,-0.006 -0.0151,-0.012 -0.003,-0.006 -0.003,-0.0151 v -1.01865 q 0,-0.009 0.003,-0.0151 0.006,-0.006 0.0151,-0.009 0.009,-0.006 0.0241,-0.009 0.0181,-0.003 0.0452,-0.003 0.0241,0 0.0392,0.003 0.0181,0.003 0.0271,0.009 0.009,0.003 0.0121,0.009 0.003,0.006 0.003,0.0151 v 0.14767 q 0.0422,-0.0603 0.0784,-0.0994 0.0392,-0.0392 0.0693,-0.0603 0.0332,-0.0211 0.0663,-0.0301 0.0332,-0.009 0.0663,-0.009 0.0121,0 0.0301,0.003 0.0211,0 0.0392,0.006 0.0211,0.003 0.0362,0.009 0.0181,0.006 0.0241,0.012 0.009,0.006 0.009,0.012 0.003,0.003 0.003,0.012 0.003,0.006 0.003,0.0241 0.003,0.0151 0.003,0.0391 z m 0.93126,0.95235 q 0,0.012 -0.009,0.0211 -0.009,0.006 -0.0271,0.009 -0.0151,0.003 -0.0452,0.003 -0.0301,0 -0.0482,-0.003 -0.0151,-0.003 -0.0241,-0.009 -0.009,-0.009 -0.009,-0.0211 v -0.10247 q -0.0663,0.0723 -0.14768,0.11151 -0.0814,0.0391 -0.17178,0.0391 -0.0814,0 -0.14768,-0.0211 -0.0633,-0.0211 -0.1115,-0.0603 -0.0452,-0.0392 -0.0693,-0.0964 -0.0241,-0.0573 -0.0241,-0.13261 0,-0.0844 0.0332,-0.14767 0.0362,-0.0633 0.0994,-0.10549 0.0663,-0.0422 0.15974,-0.0633 0.0964,-0.0211 0.21699,-0.0211 h 0.13863 v -0.0784 q 0,-0.0603 -0.0121,-0.10548 -0.012,-0.0452 -0.0392,-0.0723 -0.0271,-0.0301 -0.0723,-0.0452 -0.0452,-0.0181 -0.10849,-0.0181 -0.0693,0 -0.12356,0.0181 -0.0542,0.0151 -0.0964,0.0362 -0.0422,0.0181 -0.0693,0.0362 -0.0271,0.0151 -0.0422,0.0151 -0.009,0 -0.0151,-0.003 -0.006,-0.006 -0.0121,-0.0151 -0.003,-0.009 -0.006,-0.0211 -0.003,-0.0151 -0.003,-0.0332 0,-0.0271 0.003,-0.0422 0.006,-0.0181 0.0211,-0.0332 0.0151,-0.0151 0.0512,-0.0332 0.0392,-0.0211 0.0874,-0.0362 0.0482,-0.0181 0.10548,-0.0271 0.0573,-0.012 0.11754,-0.012 0.1085,0 0.18384,0.0271 0.0784,0.0241 0.12356,0.0723 0.0482,0.0482 0.0693,0.12055 0.0241,0.0693 0.0241,0.16274 z m -0.18686,-0.46412 h -0.15973 q -0.0753,0 -0.1326,0.012 -0.0573,0.012 -0.0934,0.0392 -0.0362,0.0241 -0.0542,0.0603 -0.0181,0.0362 -0.0181,0.0814 0,0.0814 0.0482,0.12959 0.0512,0.0452 0.14164,0.0452 0.0754,0 0.13562,-0.0362 0.0633,-0.0391 0.13261,-0.11754 z m 1.03598,0.38878 q 0,0.0332 -0.006,0.0512 -0.003,0.0181 -0.012,0.0271 -0.009,0.009 -0.0271,0.0181 -0.0181,0.009 -0.0422,0.012 -0.0211,0.006 -0.0482,0.009 -0.0271,0.003 -0.0512,0.003 -0.0814,0 -0.13863,-0.0211 -0.0542,-0.0211 -0.0904,-0.0633 -0.0362,-0.0422 -0.0542,-0.10548 -0.0151,-0.0663 -0.0151,-0.15371 v -0.59369 h -0.14161 q -0.0181,0 -0.0301,-0.0181 -0.009,-0.0181 -0.009,-0.0603 0,-0.0211 0.003,-0.0361 0.003,-0.0151 0.006,-0.0241 0.006,-0.009 0.0121,-0.012 0.009,-0.006 0.0181,-0.006 h 0.14165 v -0.24111 q 0,-0.009 0.003,-0.0151 0.006,-0.006 0.0151,-0.009 0.0121,-0.006 0.0301,-0.009 0.0181,-0.003 0.0452,-0.003 0.0271,0 0.0452,0.003 0.0181,0.003 0.0271,0.009 0.0121,0.003 0.0151,0.009 0.006,0.006 0.006,0.0151 v 0.24111 h 0.2622 q 0.009,0 0.0151,0.006 0.006,0.003 0.009,0.012 0.006,0.009 0.009,0.0241 0.003,0.0151 0.003,0.0361 0,0.0422 -0.0121,0.0603 -0.009,0.0181 -0.0241,0.0181 h -0.2622 v 0.5666 q 0,0.10547 0.0301,0.15973 0.0332,0.0513 0.11151,0.0513 0.0271,0 0.0452,-0.003 0.0211,-0.006 0.0362,-0.012 0.0181,-0.006 0.0271,-0.009 0.012,-0.006 0.0211,-0.006 0.006,0 0.0121,0.003 0.006,0.003 0.006,0.012 0.003,0.006 0.006,0.0211 0.003,0.012 0.003,0.0332 z m 1.16859,-0.44604 q 0,0.12356 -0.0331,0.22904 -0.0301,0.10549 -0.0964,0.18083 -0.0663,0.0753 -0.16275,0.11754 -0.0964,0.0422 -0.22603,0.0422 -0.12658,0 -0.22001,-0.0362 -0.0934,-0.0392 -0.15671,-0.1085 -0.0603,-0.0723 -0.0904,-0.17178 -0.0301,-0.10247 -0.0301,-0.23206 0,-0.12357 0.0301,-0.22905 0.0332,-0.10548 0.0964,-0.18083 0.0663,-0.0753 0.16275,-0.11753 0.0995,-0.0422 0.22904,-0.0422 0.12658,0 0.217,0.0392 0.0934,0.0362 0.15671,0.10849 0.0633,0.0693 0.0934,0.17179 0.0301,0.10246 0.0301,0.22904 z m -0.19589,0.012 q 0,-0.0814 -0.0151,-0.1537 -0.0151,-0.0754 -0.0512,-0.12959 -0.0332,-0.0572 -0.0934,-0.0874 -0.0603,-0.0332 -0.15069,-0.0332 -0.0814,0 -0.14165,0.0301 -0.0573,0.0271 -0.0964,0.0814 -0.0392,0.0542 -0.0573,0.12959 -0.0181,0.0723 -0.0181,0.15973 0,0.0814 0.0151,0.15671 0.0151,0.0723 0.0482,0.1296 0.0362,0.0542 0.0964,0.0874 0.0603,0.0301 0.15069,0.0301 0.0814,0 0.14165,-0.0301 0.0603,-0.0301 0.0964,-0.0814 0.0392,-0.0542 0.0573,-0.12658 0.0181,-0.0753 0.0181,-0.16275 z m 1.06687,-0.44302 q 0,0.0241 -0.003,0.0422 0,0.0181 -0.003,0.0271 -0.003,0.009 -0.009,0.0151 -0.006,0.003 -0.0151,0.003 -0.009,0 -0.0211,-0.003 -0.0121,-0.006 -0.0301,-0.009 -0.0151,-0.006 -0.0362,-0.009 -0.0211,-0.006 -0.0452,-0.006 -0.0271,0 -0.0542,0.012 -0.0271,0.009 -0.0573,0.0362 -0.0301,0.0241 -0.0633,0.0693 -0.0332,0.0422 -0.0723,0.10548 v 0.66906 q 0,0.009 -0.006,0.0151 -0.003,0.006 -0.0121,0.012 -0.009,0.003 -0.0271,0.003 -0.0181,0.003 -0.0482,0.003 -0.0271,0 -0.0452,-0.003 -0.0181,0 -0.0301,-0.003 -0.009,-0.006 -0.0151,-0.012 -0.003,-0.006 -0.003,-0.0151 v -1.01866 q 0,-0.009 0.003,-0.0151 0.006,-0.006 0.0151,-0.009 0.009,-0.006 0.0241,-0.009 0.0181,-0.003 0.0452,-0.003 0.0241,0 0.0392,0.003 0.0181,0.003 0.0271,0.009 0.009,0.003 0.0121,0.009 0.003,0.006 0.003,0.0151 v 0.14768 q 0.0422,-0.0603 0.0784,-0.0995 0.0392,-0.0391 0.0693,-0.0603 0.0332,-0.0211 0.0663,-0.0301 0.0332,-0.009 0.0663,-0.009 0.012,0 0.0301,0.003 0.0211,0 0.0392,0.006 0.0211,0.003 0.0362,0.009 0.0181,0.006 0.0241,0.012 0.009,0.006 0.009,0.012 0.003,0.003 0.003,0.012 0.003,0.006 0.003,0.0241 0.003,0.0151 0.003,0.0392 z m 0.25843,0.81672 q 0,0.0362 -0.003,0.0663 -0.003,0.0271 -0.012,0.0542 -0.006,0.0271 -0.0211,0.0513 -0.0121,0.0271 -0.0301,0.0542 l -0.15671,0.23206 q -0.006,0.009 -0.0121,0.0151 -0.006,0.006 -0.0181,0.009 -0.0121,0.006 -0.0271,0.006 -0.0121,0.003 -0.0332,0.003 -0.0181,0 -0.0332,-0.003 -0.0121,0 -0.0181,-0.006 -0.006,-0.003 -0.006,-0.009 0,-0.006 0.003,-0.0151 l 0.15068,-0.31344 v -0.14466 q 0,-0.0301 0.006,-0.0482 0.006,-0.0181 0.0181,-0.0271 0.0151,-0.009 0.0362,-0.012 0.0211,-0.003 0.0512,-0.003 0.0271,0 0.0452,0.003 0.0211,0.003 0.0332,0.012 0.0151,0.009 0.0211,0.0271 0.006,0.0181 0.006,0.0482 z" />
        <path
           style="fill:#000000;fill-rule:nonzero;stroke-width:0.19288124"
           inkscape:connector-curvature="0"
           id="path125"
           d="m 165.16289,167.31711 q 0,0.009 -0.006,0.0151 -0.003,0.006 -0.0151,0.012 -0.009,0.003 -0.0271,0.003 -0.0181,0.003 -0.0452,0.003 -0.0271,0 -0.0452,-0.003 -0.0181,0 -0.0301,-0.003 -0.009,-0.006 -0.0151,-0.012 -0.003,-0.006 -0.003,-0.0151 v -0.59673 q 0,-0.0874 -0.0151,-0.13863 -0.0121,-0.0542 -0.0392,-0.0934 -0.0241,-0.0391 -0.0663,-0.0573 -0.0392,-0.0211 -0.0934,-0.0211 -0.0723,0 -0.14165,0.0512 -0.0693,0.0482 -0.14767,0.14465 v 0.71125 q 0,0.009 -0.006,0.0151 -0.003,0.006 -0.0121,0.012 -0.009,0.003 -0.0271,0.003 -0.0181,0.003 -0.0482,0.003 -0.0271,0 -0.0452,-0.003 -0.0181,0 -0.0301,-0.003 -0.009,-0.006 -0.0151,-0.012 -0.003,-0.006 -0.003,-0.0151 v -1.01865 q 0,-0.009 0.003,-0.0151 0.006,-0.006 0.0151,-0.009 0.009,-0.006 0.0241,-0.009 0.0181,-0.003 0.0452,-0.003 0.0241,0 0.0392,0.003 0.0181,0.003 0.0271,0.009 0.009,0.003 0.0121,0.009 0.003,0.006 0.003,0.0151 v 0.13562 q 0.0874,-0.0964 0.17179,-0.14165 0.0844,-0.0452 0.17178,-0.0452 0.10247,0 0.17178,0.0362 0.0693,0.0332 0.11151,0.0904 0.0452,0.0572 0.0633,0.13562 0.0181,0.0784 0.0181,0.18685 z m 0.5259,0 q 0,0.009 -0.006,0.0151 -0.003,0.006 -0.012,0.012 -0.009,0.003 -0.0271,0.003 -0.0181,0.003 -0.0482,0.003 -0.0271,0 -0.0452,-0.003 -0.0181,0 -0.0301,-0.003 -0.009,-0.006 -0.0151,-0.012 -0.003,-0.006 -0.003,-0.0151 v -1.50989 q 0,-0.009 0.003,-0.0151 0.006,-0.009 0.0151,-0.012 0.0121,-0.006 0.0301,-0.006 0.0181,-0.003 0.0452,-0.003 0.0301,0 0.0482,0.003 0.0181,0 0.0271,0.006 0.009,0.003 0.012,0.012 0.006,0.006 0.006,0.0151 z m 0.94105,-0.95235 q 0,0.0241 -0.003,0.0422 0,0.0181 -0.003,0.0271 -0.003,0.009 -0.009,0.0151 -0.006,0.003 -0.0151,0.003 -0.009,0 -0.0211,-0.003 -0.0121,-0.006 -0.0301,-0.009 -0.0151,-0.006 -0.0362,-0.009 -0.0211,-0.006 -0.0452,-0.006 -0.0271,0 -0.0542,0.012 -0.0271,0.009 -0.0573,0.0362 -0.0301,0.0241 -0.0633,0.0693 -0.0332,0.0422 -0.0723,0.10548 v 0.66906 q 0,0.009 -0.006,0.0151 -0.003,0.006 -0.0121,0.012 -0.009,0.003 -0.0271,0.003 -0.0181,0.003 -0.0482,0.003 -0.0271,0 -0.0452,-0.003 -0.0181,0 -0.0301,-0.003 -0.009,-0.006 -0.0151,-0.012 -0.003,-0.006 -0.003,-0.0151 v -1.01865 q 0,-0.009 0.003,-0.0151 0.006,-0.006 0.0151,-0.009 0.009,-0.006 0.0241,-0.009 0.0181,-0.003 0.0452,-0.003 0.0241,0 0.0392,0.003 0.0181,0.003 0.0271,0.009 0.009,0.003 0.0121,0.009 0.003,0.006 0.003,0.0151 v 0.14767 q 0.0422,-0.0603 0.0784,-0.0994 0.0392,-0.0392 0.0693,-0.0603 0.0332,-0.0211 0.0663,-0.0301 0.0332,-0.009 0.0663,-0.009 0.012,0 0.0301,0.003 0.0211,0 0.0392,0.006 0.0211,0.003 0.0362,0.009 0.0181,0.006 0.0241,0.012 0.009,0.006 0.009,0.012 0.003,0.003 0.003,0.012 0.003,0.006 0.003,0.0241 0.003,0.0151 0.003,0.0392 z m 1.04767,0.39782 q 0,0.0452 -0.0211,0.0633 -0.0211,0.0181 -0.0512,0.0181 h -0.66604 q 0,0.0844 0.0151,0.15371 0.0181,0.0663 0.0573,0.11753 0.0422,0.0482 0.10549,0.0753 0.0633,0.0241 0.1537,0.0241 0.0723,0 0.12959,-0.012 0.0573,-0.012 0.0964,-0.0271 0.0422,-0.0151 0.0693,-0.0271 0.0271,-0.012 0.0392,-0.012 0.009,0 0.0151,0.006 0.006,0.003 0.009,0.012 0.003,0.006 0.003,0.0211 0.003,0.0151 0.003,0.0332 0,0.0151 -0.003,0.0271 0,0.009 -0.003,0.0181 0,0.009 -0.003,0.0151 -0.003,0.006 -0.009,0.0151 -0.006,0.006 -0.0392,0.0211 -0.0301,0.012 -0.0784,0.0271 -0.0482,0.012 -0.11151,0.0211 -0.0633,0.012 -0.13562,0.012 -0.12658,0 -0.22302,-0.0332 -0.0934,-0.0362 -0.15672,-0.10548 -0.0633,-0.0693 -0.0964,-0.17178 -0.0332,-0.10549 -0.0332,-0.24412 0,-0.12959 0.0332,-0.23507 0.0332,-0.10548 0.0964,-0.17781 0.0663,-0.0723 0.15672,-0.11151 0.0904,-0.0392 0.20192,-0.0392 0.12055,0 0.20494,0.0392 0.0844,0.0392 0.13863,0.10548 0.0542,0.0633 0.0784,0.15069 0.0241,0.0874 0.0241,0.18685 z m -0.18686,-0.0542 q 0.003,-0.14767 -0.0663,-0.22904 -0.0663,-0.0844 -0.20192,-0.0844 -0.0693,0 -0.12055,0.0271 -0.0512,0.0241 -0.0874,0.0663 -0.0332,0.0422 -0.0542,0.0995 -0.0181,0.0572 -0.0211,0.12055 z m 1.34753,0.60878 q 0,0.009 -0.006,0.0151 -0.003,0.006 -0.0151,0.012 -0.009,0.003 -0.0271,0.003 -0.0181,0.003 -0.0452,0.003 -0.0271,0 -0.0452,-0.003 -0.0181,0 -0.0301,-0.003 -0.009,-0.006 -0.0151,-0.012 -0.003,-0.006 -0.003,-0.0151 v -0.59672 q 0,-0.0874 -0.0151,-0.13864 -0.0121,-0.0542 -0.0392,-0.0934 -0.0241,-0.0392 -0.0663,-0.0573 -0.0392,-0.0211 -0.0934,-0.0211 -0.0723,0 -0.14165,0.0513 -0.0693,0.0482 -0.14767,0.14466 v 0.71125 q 0,0.009 -0.006,0.0151 -0.003,0.006 -0.0121,0.012 -0.009,0.003 -0.0271,0.003 -0.0181,0.003 -0.0482,0.003 -0.0271,0 -0.0452,-0.003 -0.0181,0 -0.0301,-0.003 -0.009,-0.006 -0.0151,-0.012 -0.003,-0.006 -0.003,-0.0151 v -1.01866 q 0,-0.009 0.003,-0.0151 0.006,-0.006 0.0151,-0.009 0.009,-0.006 0.0241,-0.009 0.0181,-0.003 0.0452,-0.003 0.0241,0 0.0392,0.003 0.0181,0.003 0.0271,0.009 0.009,0.003 0.0121,0.009 0.003,0.006 0.003,0.0151 v 0.13562 q 0.0874,-0.0964 0.17179,-0.14164 0.0844,-0.0452 0.17178,-0.0452 0.10247,0 0.17179,0.0362 0.0693,0.0332 0.11151,0.0904 0.0452,0.0572 0.0633,0.13562 0.0181,0.0784 0.0181,0.18685 z m 1.21305,0 q 0,0.009 -0.006,0.0151 -0.003,0.006 -0.0121,0.012 -0.009,0.003 -0.0271,0.003 -0.0151,0.003 -0.0362,0.003 -0.0241,0 -0.0422,-0.003 -0.0151,0 -0.0271,-0.003 -0.009,-0.006 -0.0151,-0.012 -0.003,-0.006 -0.003,-0.0151 v -0.13562 q -0.0784,0.0874 -0.16576,0.13562 -0.0874,0.0482 -0.18987,0.0482 -0.11151,0 -0.18987,-0.0422 -0.0784,-0.0452 -0.12959,-0.11754 -0.0482,-0.0753 -0.0723,-0.1748 -0.0211,-0.0994 -0.0211,-0.21096 0,-0.13261 0.0271,-0.23809 0.0301,-0.10548 0.0844,-0.17781 0.0573,-0.0753 0.13864,-0.11452 0.0814,-0.0422 0.18986,-0.0422 0.0874,0 0.15973,0.0391 0.0753,0.0392 0.14768,0.11453 v -0.59071 q 0,-0.009 0.003,-0.0151 0.006,-0.006 0.0151,-0.009 0.0121,-0.006 0.0301,-0.009 0.0181,-0.003 0.0452,-0.003 0.0271,0 0.0452,0.003 0.0181,0.003 0.0271,0.009 0.0121,0.003 0.0181,0.009 0.006,0.006 0.006,0.0151 z m -0.18987,-0.71728 q -0.0753,-0.0934 -0.14768,-0.14164 -0.0693,-0.0513 -0.14466,-0.0513 -0.0723,0 -0.12356,0.0362 -0.0482,0.0332 -0.0784,0.0904 -0.0301,0.0542 -0.0452,0.12356 -0.0151,0.0693 -0.0151,0.14165 0,0.0784 0.0121,0.15069 0.0121,0.0723 0.0422,0.12959 0.0301,0.0573 0.0784,0.0934 0.0482,0.0332 0.12055,0.0332 0.0392,0 0.0723,-0.009 0.0332,-0.012 0.0693,-0.0332 0.0362,-0.0241 0.0753,-0.0603 0.0422,-0.0391 0.0844,-0.0964 z m 1.39989,0.16274 q 0,0.0452 -0.0211,0.0633 -0.0211,0.0181 -0.0512,0.0181 h -0.66604 q 0,0.0844 0.0151,0.15371 0.0181,0.0663 0.0573,0.11753 0.0422,0.0482 0.10549,0.0753 0.0633,0.0241 0.1537,0.0241 0.0723,0 0.12959,-0.012 0.0573,-0.012 0.0964,-0.0271 0.0422,-0.0151 0.0693,-0.0271 0.0271,-0.012 0.0392,-0.012 0.009,0 0.0151,0.006 0.006,0.003 0.009,0.012 0.003,0.006 0.003,0.0211 0.003,0.0151 0.003,0.0332 0,0.0151 -0.003,0.0271 0,0.009 -0.003,0.0181 0,0.009 -0.003,0.0151 -0.003,0.006 -0.009,0.0151 -0.006,0.006 -0.0392,0.0211 -0.0301,0.012 -0.0784,0.0271 -0.0482,0.012 -0.11151,0.0211 -0.0633,0.012 -0.13562,0.012 -0.12658,0 -0.22302,-0.0332 -0.0934,-0.0362 -0.15671,-0.10548 -0.0633,-0.0693 -0.0964,-0.17179 -0.0332,-0.10548 -0.0332,-0.24412 0,-0.12959 0.0332,-0.23507 0.0332,-0.10548 0.0964,-0.17782 0.0663,-0.0723 0.15671,-0.1115 0.0904,-0.0392 0.20193,-0.0392 0.12055,0 0.20493,0.0392 0.0844,0.0391 0.13864,0.10548 0.0542,0.0633 0.0784,0.15069 0.0241,0.0874 0.0241,0.18685 z m -0.18685,-0.0542 q 0.003,-0.14768 -0.0663,-0.22905 -0.0663,-0.0844 -0.20192,-0.0844 -0.0693,0 -0.12056,0.0271 -0.0512,0.0241 -0.0874,0.0663 -0.0332,0.0422 -0.0542,0.0994 -0.0181,0.0572 -0.0211,0.12055 z m 1.06725,-0.34357 q 0,0.0241 -0.003,0.0422 0,0.0181 -0.003,0.0271 -0.003,0.009 -0.009,0.0151 -0.006,0.003 -0.0151,0.003 -0.009,0 -0.0211,-0.003 -0.0121,-0.006 -0.0301,-0.009 -0.0151,-0.006 -0.0362,-0.009 -0.0211,-0.006 -0.0452,-0.006 -0.0271,0 -0.0542,0.012 -0.0271,0.009 -0.0573,0.0362 -0.0301,0.0241 -0.0633,0.0693 -0.0332,0.0422 -0.0723,0.10548 v 0.66905 q 0,0.009 -0.006,0.0151 -0.003,0.006 -0.0121,0.012 -0.009,0.003 -0.0271,0.003 -0.0181,0.003 -0.0482,0.003 -0.0271,0 -0.0452,-0.003 -0.0181,0 -0.0301,-0.003 -0.009,-0.006 -0.0151,-0.012 -0.003,-0.006 -0.003,-0.0151 v -1.01865 q 0,-0.009 0.003,-0.0151 0.006,-0.006 0.0151,-0.009 0.009,-0.006 0.0241,-0.009 0.0181,-0.003 0.0452,-0.003 0.0241,0 0.0392,0.003 0.0181,0.003 0.0271,0.009 0.009,0.003 0.0121,0.009 0.003,0.006 0.003,0.0151 v 0.14767 q 0.0422,-0.0603 0.0784,-0.0994 0.0392,-0.0392 0.0693,-0.0603 0.0332,-0.0211 0.0663,-0.0301 0.0332,-0.009 0.0663,-0.009 0.0121,0 0.0301,0.003 0.0211,0 0.0392,0.006 0.0211,0.003 0.0362,0.009 0.0181,0.006 0.0241,0.012 0.009,0.006 0.009,0.012 0.003,0.003 0.003,0.012 0.003,0.006 0.003,0.0241 0.003,0.0151 0.003,0.0391 z m 0.25843,0.81673 q 0,0.0362 -0.003,0.0663 -0.003,0.0271 -0.012,0.0542 -0.006,0.0271 -0.0211,0.0512 -0.0121,0.0271 -0.0301,0.0542 l -0.15671,0.23206 q -0.006,0.009 -0.0121,0.0151 -0.006,0.006 -0.0181,0.009 -0.0121,0.006 -0.0271,0.006 -0.0121,0.003 -0.0332,0.003 -0.0181,0 -0.0331,-0.003 -0.0121,0 -0.0181,-0.006 -0.006,-0.003 -0.006,-0.009 0,-0.006 0.003,-0.0151 l 0.15069,-0.31343 v -0.14466 q 0,-0.0301 0.006,-0.0482 0.006,-0.0181 0.0181,-0.0271 0.0151,-0.009 0.0362,-0.012 0.0211,-0.003 0.0512,-0.003 0.0271,0 0.0452,0.003 0.0211,0.003 0.0332,0.012 0.0151,0.009 0.0211,0.0271 0.006,0.0181 0.006,0.0482 z m 1.73066,0.13563 q 0,0.009 -0.006,0.0151 -0.003,0.006 -0.0151,0.012 -0.009,0.003 -0.0271,0.003 -0.0181,0.003 -0.0452,0.003 -0.0271,0 -0.0452,-0.003 -0.0181,0 -0.0301,-0.003 -0.009,-0.006 -0.0151,-0.012 -0.003,-0.006 -0.003,-0.0151 v -0.59674 q 0,-0.0874 -0.0151,-0.13863 -0.0121,-0.0542 -0.0392,-0.0934 -0.0241,-0.0391 -0.0663,-0.0573 -0.0392,-0.0211 -0.0934,-0.0211 -0.0723,0 -0.14165,0.0513 -0.0693,0.0482 -0.14767,0.14467 v 0.71125 q 0,0.009 -0.006,0.0151 -0.003,0.006 -0.0121,0.012 -0.009,0.003 -0.0271,0.003 -0.0181,0.003 -0.0482,0.003 -0.0271,0 -0.0452,-0.003 -0.0181,0 -0.0301,-0.003 -0.009,-0.006 -0.0151,-0.012 -0.003,-0.006 -0.003,-0.0151 v -1.01866 q 0,-0.009 0.003,-0.0151 0.006,-0.006 0.0151,-0.009 0.009,-0.006 0.0241,-0.009 0.0181,-0.003 0.0452,-0.003 0.0241,0 0.0392,0.003 0.0181,0.003 0.0271,0.009 0.009,0.003 0.0121,0.009 0.003,0.006 0.003,0.0151 v 0.13562 q 0.0874,-0.0964 0.17178,-0.14165 0.0844,-0.0452 0.17179,-0.0452 0.10247,0 0.17178,0.0362 0.0693,0.0332 0.11151,0.0904 0.0452,0.0572 0.0633,0.13562 0.0181,0.0784 0.0181,0.18685 z m 0.5259,0 q 0,0.009 -0.006,0.0151 -0.003,0.006 -0.0121,0.012 -0.009,0.003 -0.0271,0.003 -0.0181,0.003 -0.0482,0.003 -0.0271,0 -0.0452,-0.003 -0.0181,0 -0.0301,-0.003 -0.009,-0.006 -0.0151,-0.012 -0.003,-0.006 -0.003,-0.0151 v -1.50991 q 0,-0.009 0.003,-0.0151 0.006,-0.009 0.0151,-0.012 0.0121,-0.006 0.0301,-0.006 0.0181,-0.003 0.0452,-0.003 0.0301,0 0.0482,0.003 0.0181,0 0.0271,0.006 0.009,0.003 0.0121,0.012 0.006,0.006 0.006,0.0151 z m 0.90187,-1.43758 q 0,0.0211 -0.003,0.0362 0,0.012 -0.003,0.0211 -0.003,0.006 -0.009,0.009 -0.003,0.003 -0.009,0.003 -0.009,0 -0.0211,-0.003 -0.012,-0.006 -0.0301,-0.012 -0.0151,-0.006 -0.0392,-0.012 -0.0211,-0.006 -0.0542,-0.006 -0.0392,0 -0.0693,0.0151 -0.0301,0.012 -0.0482,0.0422 -0.0181,0.0271 -0.0271,0.0753 -0.006,0.0452 -0.006,0.11152 v 0.10849 h 0.22604 q 0.009,0 0.0151,0.006 0.006,0.003 0.0121,0.012 0.006,0.009 0.009,0.0241 0.003,0.0151 0.003,0.0362 0,0.0422 -0.0121,0.0603 -0.009,0.0181 -0.0271,0.0181 h -0.22604 v 0.89208 q 0,0.009 -0.006,0.0151 -0.003,0.006 -0.0151,0.012 -0.009,0.003 -0.0271,0.003 -0.0181,0.003 -0.0452,0.003 -0.0271,0 -0.0452,-0.003 -0.0181,0 -0.0301,-0.003 -0.009,-0.006 -0.0151,-0.012 -0.003,-0.006 -0.003,-0.0151 v -0.89208 h -0.14466 q -0.0181,0 -0.0271,-0.0181 -0.009,-0.0181 -0.009,-0.0603 0,-0.0211 0,-0.0362 0.003,-0.0151 0.006,-0.0241 0.006,-0.009 0.0121,-0.012 0.009,-0.006 0.0181,-0.006 h 0.14466 v -0.10548 q 0,-0.10548 0.0181,-0.18083 0.0211,-0.0753 0.0603,-0.12357 0.0422,-0.0513 0.10247,-0.0723 0.0633,-0.0241 0.14466,-0.0241 0.0392,0 0.0753,0.009 0.0392,0.006 0.0603,0.0151 0.0211,0.006 0.0271,0.0151 0.006,0.006 0.009,0.0181 0.006,0.009 0.006,0.0241 0.003,0.0151 0.003,0.0362 z m 0.95914,0.88304 q 0,0.0452 -0.0211,0.0633 -0.0211,0.0181 -0.0512,0.0181 h -0.66604 q 0,0.0844 0.0151,0.1537 0.0181,0.0663 0.0573,0.11753 0.0422,0.0482 0.10548,0.0753 0.0633,0.0241 0.1537,0.0241 0.0723,0 0.12959,-0.012 0.0573,-0.012 0.0964,-0.0271 0.0422,-0.0151 0.0693,-0.0271 0.0271,-0.012 0.0392,-0.012 0.009,0 0.0151,0.006 0.006,0.003 0.009,0.012 0.003,0.006 0.003,0.0211 0.003,0.0151 0.003,0.0332 0,0.0151 -0.003,0.0271 0,0.009 -0.003,0.0181 0,0.009 -0.003,0.0151 -0.003,0.006 -0.009,0.0151 -0.006,0.006 -0.0392,0.0211 -0.0301,0.012 -0.0784,0.0271 -0.0482,0.012 -0.11151,0.0211 -0.0633,0.012 -0.13562,0.012 -0.12658,0 -0.22302,-0.0332 -0.0934,-0.0362 -0.15672,-0.10548 -0.0633,-0.0693 -0.0964,-0.17178 -0.0331,-0.10548 -0.0331,-0.24412 0,-0.12959 0.0331,-0.23507 0.0332,-0.10548 0.0964,-0.17781 0.0663,-0.0723 0.15672,-0.11151 0.0904,-0.0392 0.20192,-0.0392 0.12055,0 0.20494,0.0392 0.0844,0.0392 0.13863,0.10548 0.0542,0.0633 0.0784,0.15068 0.0241,0.0874 0.0241,0.18686 z m -0.18686,-0.0542 q 0.003,-0.14767 -0.0663,-0.22904 -0.0663,-0.0844 -0.20192,-0.0844 -0.0693,0 -0.12055,0.0271 -0.0512,0.0241 -0.0874,0.0663 -0.0332,0.0422 -0.0543,0.0995 -0.0181,0.0573 -0.0211,0.12055 z m 1.98043,0.60878 q 0,0.009 -0.006,0.0151 -0.003,0.006 -0.0151,0.012 -0.009,0.003 -0.0271,0.003 -0.0181,0.003 -0.0452,0.003 -0.0271,0 -0.0452,-0.003 -0.0181,0 -0.0301,-0.003 -0.009,-0.006 -0.0151,-0.012 -0.003,-0.006 -0.003,-0.0151 v -0.62084 q 0,-0.0633 -0.0121,-0.11453 -0.0121,-0.0542 -0.0362,-0.0934 -0.0241,-0.0392 -0.0633,-0.0573 -0.0392,-0.0211 -0.0904,-0.0211 -0.0633,0 -0.12959,0.0513 -0.0633,0.0482 -0.14165,0.14466 v 0.71125 q 0,0.009 -0.006,0.0151 -0.003,0.006 -0.0151,0.012 -0.009,0.003 -0.0271,0.003 -0.0181,0.003 -0.0452,0.003 -0.0271,0 -0.0452,-0.003 -0.0181,0 -0.0301,-0.003 -0.0121,-0.006 -0.0151,-0.012 -0.003,-0.006 -0.003,-0.0151 v -0.62084 q 0,-0.0633 -0.0121,-0.11452 -0.0121,-0.0542 -0.0392,-0.0934 -0.0241,-0.0392 -0.0633,-0.0573 -0.0362,-0.0211 -0.0874,-0.0211 -0.0663,0 -0.1326,0.0513 -0.0633,0.0482 -0.14165,0.14465 v 0.71125 q 0,0.009 -0.006,0.0151 -0.003,0.006 -0.0121,0.012 -0.009,0.003 -0.0271,0.003 -0.0181,0.003 -0.0482,0.003 -0.0271,0 -0.0452,-0.003 -0.0181,0 -0.0301,-0.003 -0.009,-0.006 -0.0151,-0.012 -0.003,-0.006 -0.003,-0.0151 v -1.01865 q 0,-0.009 0.003,-0.0151 0.006,-0.006 0.0151,-0.009 0.009,-0.006 0.0241,-0.009 0.0181,-0.003 0.0452,-0.003 0.0241,0 0.0392,0.003 0.0181,0.003 0.0271,0.009 0.009,0.003 0.0121,0.009 0.003,0.006 0.003,0.0151 v 0.13562 q 0.0874,-0.0964 0.16576,-0.14165 0.0814,-0.0452 0.16576,-0.0452 0.0633,0 0.11151,0.0151 0.0512,0.0151 0.0904,0.0422 0.0392,0.0271 0.0663,0.0633 0.0271,0.0362 0.0452,0.0814 0.0512,-0.0542 0.0964,-0.0934 0.0452,-0.0392 0.0874,-0.0633 0.0422,-0.0241 0.0814,-0.0332 0.0422,-0.012 0.0814,-0.012 0.0994,0 0.16576,0.0362 0.0663,0.0332 0.10548,0.0904 0.0422,0.0573 0.0603,0.13563 0.0181,0.0784 0.0181,0.16274 z" />
      </g>
    </g>
  </g>
</svg>
